<?xml version="1.0" encoding="UTF-8" standalone="no"?>
<!-- Created with Inkscape (http://www.inkscape.org/) -->

<svg
   width="309.65955mm"
   height="260.82565mm"
   viewBox="0 0 309.65954 260.82566"
   version="1.1"
   id="svg1"
   xml:space="preserve"
   inkscape:version="1.3 (0e150ed6c4, 2023-07-21)"
   sodipodi:docname="Base_Plate.svg"
   xmlns:inkscape="http://www.inkscape.org/namespaces/inkscape"
   xmlns:sodipodi="http://sodipodi.sourceforge.net/DTD/sodipodi-0.dtd"
   xmlns="http://www.w3.org/2000/svg"
   xmlns:svg="http://www.w3.org/2000/svg"><sodipodi:namedview
     id="namedview1"
     pagecolor="#ffffff"
     bordercolor="#000000"
     borderopacity="0.25"
     inkscape:showpageshadow="2"
     inkscape:pageopacity="0.0"
     inkscape:pagecheckerboard="0"
     inkscape:deskcolor="#d1d1d1"
     inkscape:document-units="mm"
     inkscape:zoom="0.69219277"
     inkscape:cx="634.93873"
     inkscape:cy="473.1341"
     inkscape:window-width="1920"
     inkscape:window-height="991"
     inkscape:window-x="-9"
     inkscape:window-y="-9"
     inkscape:window-maximized="1"
     inkscape:current-layer="layer1"
     showgrid="false" /><defs
     id="defs1"><marker
       id="DistanceX"
       orient="auto"
       refX="0"
       refY="0"
       style="overflow:visible"><path
         d="M 3,-3 -3,3 M 0,-5 V 5"
         style="stroke:#000000;stroke-width:0.5"
         id="path1" /></marker><pattern
       id="Hatch"
       patternUnits="userSpaceOnUse"
       width="8"
       height="8"
       x="0"
       y="0"><path
         d="M8 4 l-4,4"
         stroke="#000000"
         stroke-width="0.25"
         linecap="square"
         id="path2" /><path
         d="M6 2 l-4,4"
         stroke="#000000"
         stroke-width="0.25"
         linecap="square"
         id="path3" /><path
         d="M4 0 l-4,4"
         stroke="#000000"
         stroke-width="0.25"
         linecap="square"
         id="path4" /></pattern><symbol
       id="*MODEL_SPACE" /><symbol
       id="*PAPER_SPACE" /></defs><g
     inkscape:label="Calque 1"
     inkscape:groupmode="layer"
     id="layer1"
     transform="translate(260.89648,54.865554)"><g
       inkscape:label="0"
       id="g25"
       transform="matrix(0,0.26458333,-0.26458333,0,191.94387,75.351433)"
       style="stroke:#ff0000;stroke-width:0.377953;stroke-dasharray:none;stroke-opacity:1"><path
         d="M 414.26646,971.33858 V 1273.7008 H 281.98299 V 971.33858 Z"
         style="fill:none;stroke:#ff0000;stroke-width:0.377953;stroke-dasharray:none;stroke-opacity:1"
         id="path5" /><path
         d="M -281.98299,971.33858 V 1273.7008 H -414.26646 V 971.33858 Z"
         style="fill:none;stroke:#ff0000;stroke-width:0.377953;stroke-dasharray:none;stroke-opacity:1"
         id="path6" /><path
         d="M 472.44094,555.59055 H -472.44094 V 1689.4488 h 944.88188 z"
         style="fill:none;stroke:#ff0000;stroke-width:0.377953;stroke-dasharray:none;stroke-opacity:1"
         id="path7" /><path
         d="M -281.98299,1273.7008 H -414.26646 V 971.33858 h 132.28347 z"
         style="fill:none;stroke:#ff0000;stroke-width:0.377953;stroke-dasharray:none;stroke-opacity:1"
         id="path8" /><path
         d="m -227.14961,1122.5197 a 6.2362205,6.2362205 0 0 0 -12.47244,0 6.2362205,6.2362205 0 0 0 12.47244,0 z"
         style="fill:none;stroke:#ff0000;stroke-width:0.377953;stroke-dasharray:none;stroke-opacity:1"
         id="path9" /><path
         d="m -131.14961,1122.5197 a 6.2362205,6.2362205 0 0 0 -12.47244,0 6.2362205,6.2362205 0 0 0 12.47244,0 z"
         style="fill:none;stroke:#ff0000;stroke-width:0.377953;stroke-dasharray:none;stroke-opacity:1"
         id="path10" /><path
         d="m 143.62205,1122.5197 a 6.2362205,6.2362205 0 0 0 -12.47244,0 6.2362205,6.2362205 0 0 0 12.47244,0 z"
         style="fill:none;stroke:#ff0000;stroke-width:0.377953;stroke-dasharray:none;stroke-opacity:1"
         id="path11" /><path
         d="m 239.62205,1122.5197 a 6.2362205,6.2362205 0 0 0 -12.47244,0 6.2362205,6.2362205 0 0 0 12.47244,0 z"
         style="fill:none;stroke:#ff0000;stroke-width:0.377953;stroke-dasharray:none;stroke-opacity:1"
         id="path12" /><path
         d="M 281.98299,971.33858 H 414.26646 V 1273.7008 H 281.98299 Z"
         style="fill:none;stroke:#ff0000;stroke-width:0.377953;stroke-dasharray:none;stroke-opacity:1"
         id="path13" /><path
         d="m 31.559055,1576.063 a 3.779528,3.779528 0 0 0 -7.559055,0 3.779528,3.779528 0 0 0 7.559055,0 z"
         style="fill:none;stroke:#ff0000;stroke-width:0.377953;stroke-dasharray:none;stroke-opacity:1"
         id="path14" /><path
         d="m -24,1576.063 a 3.779528,3.779528 0 0 0 -7.559055,0 3.779528,3.779528 0 0 0 7.559055,0 z"
         style="fill:none;stroke:#ff0000;stroke-width:0.377953;stroke-dasharray:none;stroke-opacity:1"
         id="path15" /><path
         style="fill:none;stroke:#ff0000;stroke-width:0.377953;stroke-dasharray:none;stroke-opacity:1"
         d="M 98.6457,1393.53 H 169.455"
         id="path16" /><path
         d="m 98.645669,1380.6425 a 6.4441,6.4441 0 0 0 0,12.8882"
         style="fill:none;stroke:#ff0000;stroke-width:0.377953;stroke-dasharray:none;stroke-opacity:1"
         id="path17" /><path
         style="fill:none;stroke:#ff0000;stroke-width:0.377953;stroke-dasharray:none;stroke-opacity:1"
         d="M 169.455,1380.64 H 98.6457"
         id="path18" /><path
         d="m 169.45512,1393.5307 a 6.4441,6.4441 0 0 0 0,-12.8882"
         style="fill:none;stroke:#ff0000;stroke-width:0.377953;stroke-dasharray:none;stroke-opacity:1"
         id="path19" /><path
         style="fill:none;stroke:#ff0000;stroke-width:0.377953;stroke-dasharray:none;stroke-opacity:1"
         d="m -169.455,1393.53 h 70.8093"
         id="path20" /><path
         style="fill:none;stroke:#ff0000;stroke-width:0.377953;stroke-dasharray:none;stroke-opacity:1"
         d="M -98.6457,1380.64 H -169.455"
         id="path21" /><path
         d="m -169.45512,1380.6425 a 6.4441,6.4441 0 0 0 0,12.8882"
         style="fill:none;stroke:#ff0000;stroke-width:0.377953;stroke-dasharray:none;stroke-opacity:1"
         id="path22" /><path
         d="m -98.645669,1393.5307 a 6.4441,6.4441 0 0 0 0,-12.8882"
         style="fill:none;stroke:#ff0000;stroke-width:0.377953;stroke-dasharray:none;stroke-opacity:1"
         id="path23" /><path
         d="m 31.559055,668.97638 a 3.779528,3.779528 0 0 0 -7.559055,0 3.779528,3.779528 0 0 0 7.559055,0 z"
         style="fill:none;stroke:#ff0000;stroke-width:0.377953;stroke-dasharray:none;stroke-opacity:1"
         id="path24" /><path
         d="m -24,668.97638 a 3.779528,3.779528 0 0 0 -7.559055,0 3.779528,3.779528 0 0 0 7.559055,0 z"
         style="fill:none;stroke:#ff0000;stroke-width:0.377953;stroke-dasharray:none;stroke-opacity:1"
         id="path25" /></g><rect
       style="fill:none;stroke:#0000ff;stroke-width:0.0724175;stroke-dasharray:none;stroke-opacity:1"
       id="rect1"
       width="260.75323"
       height="309.58713"
       x="-54.829346"
       y="-48.726852"
       transform="rotate(90)" /></g></svg>
