<?xml version="1.0" encoding="UTF-8" standalone="no"?>
<svg
   viewBox="0 0 1005.5207 1484.7826"
   width="1005.5207"
   height="1484.7826"
   version="1.1"
   id="svg64"
   sodipodi:docname="Panels.svg"
   inkscape:version="1.3 (0e150ed6c4, 2023-07-21)"
   xml:space="preserve"
   xmlns:inkscape="http://www.inkscape.org/namespaces/inkscape"
   xmlns:sodipodi="http://sodipodi.sourceforge.net/DTD/sodipodi-0.dtd"
   xmlns="http://www.w3.org/2000/svg"
   xmlns:svg="http://www.w3.org/2000/svg"><sodipodi:namedview
     id="namedview64"
     pagecolor="#ffffff"
     bordercolor="#000000"
     borderopacity="0.25"
     inkscape:showpageshadow="2"
     inkscape:pageopacity="0.0"
     inkscape:pagecheckerboard="0"
     inkscape:deskcolor="#d1d1d1"
     showgrid="false"
     inkscape:zoom="0.69219278"
     inkscape:cx="516.47462"
     inkscape:cy="530.92146"
     inkscape:window-width="1920"
     inkscape:window-height="991"
     inkscape:window-x="-9"
     inkscape:window-y="-9"
     inkscape:window-maximized="1"
     inkscape:current-layer="g64" /><desc
     id="desc1">Back_Panel.dxf - scale = 1.000000, origin = (0.000000, 0.000000), method = manual</desc><defs
     id="defs4"><marker
       id="DistanceX"
       orient="auto"
       refX="0"
       refY="0"
       style="overflow:visible"><path
         d="M 3,-3 -3,3 M 0,-5 V 5"
         style="stroke:#000000;stroke-width:0.5"
         id="path1" /></marker><pattern
       id="Hatch"
       patternUnits="userSpaceOnUse"
       width="8"
       height="8"
       x="0"
       y="0"><path
         d="M8 4 l-4,4"
         stroke="#000000"
         stroke-width="0.25"
         linecap="square"
         id="path2" /><path
         d="M6 2 l-4,4"
         stroke="#000000"
         stroke-width="0.25"
         linecap="square"
         id="path3" /><path
         d="M4 0 l-4,4"
         stroke="#000000"
         stroke-width="0.25"
         linecap="square"
         id="path4" /></pattern><symbol
       id="*MODEL_SPACE" /><symbol
       id="*PAPER_SPACE" /><marker
       id="DistanceX-7"
       orient="auto"
       refX="0"
       refY="0"
       style="overflow:visible"><path
         d="M 3,-3 -3,3 M 0,-5 V 5"
         style="stroke:#000000;stroke-width:0.5"
         id="path1-0" /></marker><pattern
       id="Hatch-2"
       patternUnits="userSpaceOnUse"
       width="8"
       height="8"
       x="0"
       y="0"><path
         d="M8 4 l-4,4"
         stroke="#000000"
         stroke-width="0.25"
         linecap="square"
         id="path2-8" /><path
         d="M6 2 l-4,4"
         stroke="#000000"
         stroke-width="0.25"
         linecap="square"
         id="path3-3" /><path
         d="M4 0 l-4,4"
         stroke="#000000"
         stroke-width="0.25"
         linecap="square"
         id="path4-2" /></pattern><symbol
       id="*MODEL_SPACE-4" /><symbol
       id="*PAPER_SPACE-3" /></defs><g
     inkscape:groupmode="layer"
     inkscape:label="0"
     id="g64"
     transform="translate(182.00051,796.70998)"><g
       id="g66"
       transform="translate(-17.763795,-52.87874)"
       style="stroke:#ff0000;stroke-width:0.377953;stroke-dasharray:none;stroke-opacity:1"><path
         d="M -116.15352,717.26387 H 793.20081 V 452.69694 h -909.35433 z"
         style="fill:none;stroke:#ff0000;stroke-width:0.377953;stroke-dasharray:none;stroke-opacity:1"
         id="path5" /><path
         d="m 236.66537,471.02765 a 7.559055,7.559055 0 0 0 -15.11811,0 7.559055,7.559055 0 0 0 15.11811,0 z"
         style="fill:none;stroke:#ff0000;stroke-width:0.377953;stroke-dasharray:none;stroke-opacity:1"
         id="path6" /><path
         d="m 457.76774,471.02765 a 7.55906,7.55906 0 0 0 -15.11812,0 7.55906,7.55906 0 0 0 15.11812,0 z"
         style="fill:none;stroke:#ff0000;stroke-width:0.377953;stroke-dasharray:none;stroke-opacity:1"
         id="path7" /><path
         d="m 782.99608,606.00403 a 7.559055,7.559055 0 0 0 -15.11811,0 7.559055,7.559055 0 0 0 15.11811,0 z"
         style="fill:none;stroke:#ff0000;stroke-width:0.377953;stroke-dasharray:none;stroke-opacity:1"
         id="path8" /><path
         d="m 782.99608,563.95678 a 7.559055,7.559055 0 0 0 -15.11811,0 7.559055,7.559055 0 0 0 15.11811,0 z"
         style="fill:none;stroke:#ff0000;stroke-width:0.377953;stroke-dasharray:none;stroke-opacity:1"
         id="path9" /><path
         d="m -88.562973,563.95678 a 7.559055,7.559055 0 0 0 -15.118107,0 7.559055,7.559055 0 0 0 15.118107,0 z"
         style="fill:none;stroke:#ff0000;stroke-width:0.377953;stroke-dasharray:none;stroke-opacity:1"
         id="path10" /><path
         d="m -88.562973,606.00403 a 7.559055,7.559055 0 0 0 -15.118107,0 7.559055,7.559055 0 0 0 15.118107,0 z"
         style="fill:none;stroke:#ff0000;stroke-width:0.377953;stroke-dasharray:none;stroke-opacity:1"
         id="path11" /><path
         d="m 161.07482,698.93316 a 7.559055,7.559055 0 0 0 -15.11811,0 7.559055,7.559055 0 0 0 15.11811,0 z"
         style="fill:none;stroke:#ff0000;stroke-width:0.377953;stroke-dasharray:none;stroke-opacity:1"
         id="path12" /><path
         d="m 533.35829,698.93316 a 7.559055,7.559055 0 0 0 -15.11811,0 7.559055,7.559055 0 0 0 15.11811,0 z"
         style="fill:none;stroke:#ff0000;stroke-width:0.377953;stroke-dasharray:none;stroke-opacity:1"
         id="path13" /><path
         d="m 347.06537,499.4308 v 42.59528 z"
         style="fill:none;stroke:#ff0000;stroke-width:0.377953;stroke-dasharray:none;stroke-opacity:1"
         id="path14" /><path
         d="M 443.36774,499.4308 H 347.06537 Z"
         style="fill:none;stroke:#ff0000;stroke-width:0.377953;stroke-dasharray:none;stroke-opacity:1"
         id="path15" /><path
         d="M 443.36774,542.02608 V 499.4308 Z"
         style="fill:none;stroke:#ff0000;stroke-width:0.377953;stroke-dasharray:none;stroke-opacity:1"
         id="path16" /><path
         d="m 347.06537,542.02608 h 96.30237 z"
         style="fill:none;stroke:#ff0000;stroke-width:0.377953;stroke-dasharray:none;stroke-opacity:1"
         id="path17" /><path
         d="m 742.93309,641.67332 a 26.456695,26.456695 0 0 0 -52.91339,0 26.456695,26.456695 0 0 0 52.91339,0 z"
         style="fill:none;stroke:#ff0000;stroke-width:0.377953;stroke-dasharray:none;stroke-opacity:1"
         id="path18" /><path
         d="m 280.88585,520.72844 a 17.95276,17.95276 0 0 0 -35.90552,0 17.95276,17.95276 0 0 0 35.90552,0 z"
         style="fill:none;stroke:#ff0000;stroke-width:0.377953;stroke-dasharray:none;stroke-opacity:1"
         id="path19" /><path
         d="m -29.86691,547.18513 a 10.696063,10.696063 0 0 0 -21.392126,0 10.696063,10.696063 0 0 0 21.392126,0 z"
         style="fill:none;stroke:#ff0000;stroke-width:0.377953;stroke-dasharray:none;stroke-opacity:1"
         id="path37" /><path
         d="m 728.30632,547.18513 a 10.696065,10.696065 0 0 0 -21.39213,0 10.696065,10.696065 0 0 0 21.39213,0 z"
         style="fill:none;stroke:#ff0000;stroke-width:0.377953;stroke-dasharray:none;stroke-opacity:1"
         id="path38" /><path
         d="M -64.373997,572.97587 H 197.54726 a 9.448819,9.448819 0 0 1 9.44882,9.44882 v 2.74473 a 9.448819,9.448819 0 0 0 9.44882,9.44882 h 100.15748 a 9.448819,9.448819 0 0 1 9.44882,9.44882 v 53.76374 a 9.448819,9.448819 0 0 1 -9.44882,9.44882 H -64.373997 a 9.448819,9.448819 0 0 1 -9.448819,-9.44882 v -75.40611 a 9.448819,9.448819 0 0 1 9.448819,-9.44882 z"
         style="fill:none;stroke:#ff0000;stroke-width:0.377953;stroke-dasharray:none;stroke-opacity:1"
         id="path39" /><path
         d="m 547.55515,590.36623 a 17.007874,17.007874 0 0 0 -17.00788,17.00788 v 54.80315 h 64.25197 v -54.80315 a 17.007874,17.007874 0 0 0 -17.00787,-17.00788 z"
         style="fill:none;stroke:#ff0000;stroke-width:0.377953;stroke-dasharray:none;stroke-opacity:1"
         id="path40" /><path
         d="m 485.85436,607.03395 c 0,-0.32499 -0.009,-0.6494 -0.0282,-0.97384 -0.0188,-0.32445 -0.0469,-0.64777 -0.0844,-0.97059 -0.0375,-0.32282 -0.0842,-0.64398 -0.1403,-0.96409 -0.0561,-0.32012 -0.12129,-0.63804 -0.19576,-0.95438 -0.0745,-0.31633 -0.15796,-0.62999 -0.25059,-0.94152 -0.0463,-0.15563 -0.0947,-0.31044 -0.1455,-0.46467 -0.1016,-0.30872 -0.21192,-0.61398 -0.33117,-0.91629 -0.11925,-0.30231 -0.24703,-0.60069 -0.38355,-0.89563 -0.0682,-0.14735 -0.13847,-0.29356 -0.21091,-0.43888 -0.14499,-0.29087 -0.29812,-0.57706 -0.45966,-0.85905 -0.16154,-0.282 -0.33093,-0.55883 -0.5085,-0.83103 -0.17755,-0.27218 -0.36267,-0.53879 -0.55568,-0.80028 -0.0964,-0.13064 -0.19462,-0.25975 -0.29477,-0.38754 -0.20048,-0.25581 -0.40799,-0.50539 -0.62288,-0.74916 -0.2149,-0.24378 -0.43648,-0.48095 -0.66513,-0.71193 -0.11422,-0.11539 -0.23,-0.22902 -0.34751,-0.34106 -0.23522,-0.22427 -0.4765,-0.44137 -0.72426,-0.65166 -0.24776,-0.21029 -0.50119,-0.41309 -0.76071,-0.60873 -0.12964,-0.0977 -0.26058,-0.19351 -0.39299,-0.28746 -0.26507,-0.18807 -0.5351,-0.36816 -0.81056,-0.54058 -0.27548,-0.17244 -0.55544,-0.33661 -0.84042,-0.49284 -0.28496,-0.15622 -0.57397,-0.30397 -0.86752,-0.44348 -0.14664,-0.0697 -0.29415,-0.13721 -0.44275,-0.20264 -0.29745,-0.13098 -0.59817,-0.25314 -0.90266,-0.3667 -0.30449,-0.11356 -0.61176,-0.21815 -0.92234,-0.31393 -0.15515,-0.0479 -0.31084,-0.0934 -0.46731,-0.13678 -0.31321,-0.0868 -0.62838,-0.16436 -0.94605,-0.23289 -0.31766,-0.0685 -0.63679,-0.12778 -0.95791,-0.17784 -0.16043,-0.025 -0.32105,-0.0477 -0.48212,-0.0681 -0.35016,-0.0443 -0.701,-0.0775 -1.0532,-0.0997 -0.3536,-0.0223 -0.70715,-0.0334 -1.06146,-0.0334"
         style="fill:none;stroke:#ff0000;stroke-width:0.377953;stroke-dasharray:none;stroke-opacity:1"
         id="path41" /><path
         style="fill:none;stroke:#ff0000;stroke-width:0.377953;stroke-dasharray:none;stroke-opacity:1"
         d="m 426.96927,590.17836 h 42.0284"
         id="path42" /><path
         d="m 426.96932,590.17726 c -0.32499,0 -0.6494,0.009 -0.97384,0.0281 -0.32445,0.0188 -0.64777,0.0469 -0.97059,0.0844 -0.32282,0.0375 -0.64397,0.0842 -0.96409,0.1403 -0.32012,0.0561 -0.63804,0.12128 -0.95438,0.19576 -0.31633,0.0745 -0.62999,0.15795 -0.94152,0.25058 -0.15563,0.0463 -0.31044,0.0948 -0.46467,0.14551 -0.30872,0.10159 -0.61398,0.21192 -0.91629,0.33117 -0.30231,0.11924 -0.60069,0.24702 -0.89563,0.38355 -0.14735,0.0682 -0.29356,0.13847 -0.43888,0.2109 -0.29087,0.14499 -0.57706,0.29812 -0.85905,0.45966 -0.282,0.16155 -0.55883,0.33094 -0.83103,0.5085 -0.27218,0.17756 -0.53879,0.36268 -0.80028,0.55568 -0.13063,0.0964 -0.25975,0.19463 -0.38754,0.29478 -0.25581,0.20047 -0.50539,0.40798 -0.74916,0.62288 -0.24378,0.21489 -0.48095,0.43648 -0.71193,0.66512 -0.11539,0.11423 -0.22902,0.23 -0.34106,0.34751 -0.22427,0.23522 -0.44137,0.47651 -0.65166,0.72427 -0.21029,0.24775 -0.41309,0.50118 -0.60873,0.7607 -0.0977,0.12965 -0.19351,0.26058 -0.28746,0.393 -0.18807,0.26506 -0.36816,0.5351 -0.54058,0.81056 -0.17244,0.27548 -0.33661,0.55543 -0.49284,0.84041 -0.15622,0.28497 -0.30397,0.57398 -0.44348,0.86752 -0.0697,0.14665 -0.13721,0.29416 -0.20264,0.44275 -0.13098,0.29746 -0.25314,0.59817 -0.3667,0.90266 -0.11356,0.3045 -0.21815,0.61177 -0.31393,0.92234 -0.0479,0.15515 -0.0934,0.31084 -0.13677,0.46731 -0.0868,0.31321 -0.16437,0.62839 -0.2329,0.94605 -0.0685,0.31767 -0.12778,0.63679 -0.17784,0.95792 -0.025,0.16042 -0.0477,0.32104 -0.0681,0.48212 -0.0443,0.35016 -0.0775,0.70099 -0.0997,1.0532 -0.0223,0.3536 -0.0334,0.70715 -0.0334,1.06146"
         style="fill:none;stroke:#ff0000;stroke-width:0.377953;stroke-dasharray:none;stroke-opacity:1"
         id="path43" /><path
         style="fill:none;stroke:#ff0000;stroke-width:0.377953;stroke-dasharray:none;stroke-opacity:1"
         d="m 410.11267,607.40836 v -0.37"
         id="path44" /><path
         style="fill:none;stroke:#ff0000;stroke-width:0.377953;stroke-dasharray:none;stroke-opacity:1"
         d="m 410.11267,658.99836 v -51.59"
         id="path45" /><path
         style="fill:none;stroke:#ff0000;stroke-width:0.377953;stroke-dasharray:none;stroke-opacity:1"
         d="m 410.11267,658.99836 h 75.7421"
         id="path46" /><path
         style="fill:none;stroke:#ff0000;stroke-width:0.377953;stroke-dasharray:none;stroke-opacity:1"
         d="m 485.85477,658.99836 v -51.59"
         id="path47" /><path
         style="fill:none;stroke:#ff0000;stroke-width:0.377953;stroke-dasharray:none;stroke-opacity:1"
         d="m 485.85477,607.40836 v -0.37"
         id="path48" /><path
         d="m 93.232303,490.49222 h 85.417317 a 9.448819,9.448819 0 0 1 9.44882,9.44882 v 37.79527 a 9.448819,9.448819 0 0 1 -9.44882,9.44882 H 93.232303 a 9.448819,9.448819 0 0 1 -9.448819,-9.44882 v -37.79527 a 9.448819,9.448819 0 0 1 9.448819,-9.44882 z"
         style="fill:none;stroke:#ff0000;stroke-width:0.377953;stroke-dasharray:none;stroke-opacity:1"
         id="path50" /><path
         d="m 349.18428,606.382 a 5.669291,5.669291 0 0 0 0,11.33858 h 37.79527 a 5.669291,5.669291 0 0 0 0,-11.33858 z"
         style="fill:none;stroke:#ff0000;stroke-width:0.377953;stroke-dasharray:none;stroke-opacity:1"
         id="path57" /><path
         d="m 349.18428,644.17727 a 5.669291,5.669291 0 0 0 0,11.33858 h 37.79527 a 5.669291,5.669291 0 0 0 0,-11.33858 z"
         style="fill:none;stroke:#ff0000;stroke-width:0.377953;stroke-dasharray:none;stroke-opacity:1"
         id="path57-9" /><path
         d="m 8.1929317,522.6182 a 5.669291,5.669291 0 0 0 0,11.33858 H 45.988208 a 5.669291,5.669291 0 0 0 0,-11.33858 z"
         style="fill:none;stroke:#ff0000;stroke-width:0.377953;stroke-dasharray:none;stroke-opacity:1"
         id="path63" /><path
         d="m 8.1929317,503.72056 a 5.669291,5.669291 0 0 0 0,11.33858 H 45.988208 a 5.669291,5.669291 0 0 0 0,-11.33858 z"
         style="fill:none;stroke:#ff0000;stroke-width:0.377953;stroke-dasharray:none;stroke-opacity:1"
         id="path63-0" /></g><g
       id="g65"
       style="stroke:#ff0000;stroke-width:0.377953;stroke-dasharray:none;stroke-opacity:1"><path
         d="m 655.77717,-127.7541 v -19.639 l 17.00788,-9.8195 17.00787,9.8195 v 19.639 l -17.00787,9.8195 z"
         style="fill:none;stroke:#ff0000;stroke-width:0.377953;stroke-dasharray:none;stroke-opacity:1"
         id="path5-0" /><path
         d="m 644.43859,-68.8371 -17.00787,-9.8195 v -19.639 l 17.00787,-9.8195 17.00787,9.8195 v 19.639 z"
         style="fill:none;stroke:#ff0000;stroke-width:0.377953;stroke-dasharray:none;stroke-opacity:1"
         id="path6-2" /><path
         d="m 655.77717,-29.5591 v -19.639 l 17.00788,-9.8195 17.00787,9.8195 v 19.639 l -17.00787,9.8195 z"
         style="fill:none;stroke:#ff0000;stroke-width:0.377953;stroke-dasharray:none;stroke-opacity:1"
         id="path7-4" /><path
         d="m 684.12363,-78.6566 v -19.639 l 17.00787,-9.8195 17.00788,9.8195 v 19.639 l -17.00788,9.8195 z"
         style="fill:none;stroke:#ff0000;stroke-width:0.377953;stroke-dasharray:none;stroke-opacity:1"
         id="path8-1" /><path
         d="m 599.08426,-127.7541 v -19.639 l 17.00787,-9.8195 17.00788,9.8195 v 19.639 l -17.00788,9.8195 z"
         style="fill:none;stroke:#ff0000;stroke-width:0.377953;stroke-dasharray:none;stroke-opacity:1"
         id="path9-7" /><path
         d="m 684.02831,0.0638 17.04843,-9.749 16.96702,9.89 -0.0814,19.6388 -17.04844,9.7489 -16.96702,-9.8899 z"
         style="fill:none;stroke:#ff0000;stroke-width:0.377953;stroke-dasharray:none;stroke-opacity:1"
         id="path10-0" /><path
         d="m 135.03387,262.0167 a 5.669295,5.669295 0 0 0 -11.33859,0 5.669295,5.669295 0 0 0 11.33859,0 z"
         style="fill:none;stroke:#ff0000;stroke-width:0.377953;stroke-dasharray:none;stroke-opacity:1"
         id="path11-5" /><path
         d="M 495.14725,-203.7723 V 245.0088 H 146.37245 V -203.7723 Z"
         style="fill:none;stroke:#ff0000;stroke-width:0.377953;stroke-dasharray:none;stroke-opacity:1"
         id="path12-1" /><path
         d="M 131.78347,-640.79908 H -94.98818 v -75.59056 h 226.77165 z"
         style="fill:none;stroke:#ff0000;stroke-width:0.377953;stroke-dasharray:none;stroke-opacity:1"
         id="path13-0" /><path
         d="M 598.88097,68.518 V 48.879 l 17.00787,-9.8195 17.00788,9.8195 v 19.639 l -17.00788,9.8195 z"
         style="fill:none;stroke:#ff0000;stroke-width:0.377953;stroke-dasharray:none;stroke-opacity:1"
         id="path14-3" /><path
         d="m 517.82442,-220.7802 a 5.669295,5.669295 0 0 0 -11.33859,0 5.669295,5.669295 0 0 0 11.33859,0 z"
         style="fill:none;stroke:#ff0000;stroke-width:0.377953;stroke-dasharray:none;stroke-opacity:1"
         id="path15-9" /><path
         d="m 672.58176,39.0595 17.00787,9.8195 V 68.518 L 672.58176,78.3375 655.57388,68.518 V 48.879 Z"
         style="fill:none;stroke:#ff0000;stroke-width:0.377953;stroke-dasharray:none;stroke-opacity:1"
         id="path16-1" /><path
         d="m 135.03387,-220.7802 a 5.669295,5.669295 0 0 0 -11.33859,0 5.669295,5.669295 0 0 0 11.33859,0 z"
         style="fill:none;stroke:#ff0000;stroke-width:0.377953;stroke-dasharray:none;stroke-opacity:1"
         id="path17-4" /><path
         d="m 599.08426,-29.5591 v -19.639 l 17.00787,-9.8195 17.00788,9.8195 v 19.639 l -17.00788,9.8195 z"
         style="fill:none;stroke:#ff0000;stroke-width:0.377953;stroke-dasharray:none;stroke-opacity:1"
         id="path18-0" /><path
         d="m 683.92034,97.9765 17.00787,-9.8195 17.00788,9.8195 v 19.639 l -17.00788,9.8195 -17.00787,-9.8195 z"
         style="fill:none;stroke:#ff0000;stroke-width:0.377953;stroke-dasharray:none;stroke-opacity:1"
         id="path19-2" /><path
         d="m 517.82442,262.0167 a 5.669295,5.669295 0 0 0 -11.33859,0 5.669295,5.669295 0 0 0 11.33859,0 z"
         style="fill:none;stroke:#ff0000;stroke-width:0.377953;stroke-dasharray:none;stroke-opacity:1"
         id="path20" /><path
         d="m 644.22149,29.3575 -16.96702,-9.8899 0.0814,-19.6389 17.04843,-9.7489 16.96702,9.8899 -0.0814,19.6389 z"
         style="fill:none;stroke:#ff0000;stroke-width:0.377953;stroke-dasharray:none;stroke-opacity:1"
         id="path21" /><path
         d="m -31.26535,-19.7396 -17.00787,-9.8195 v -19.639 l 17.00787,-9.8195 17.00788,9.8195 v 19.639 z"
         style="fill:none;stroke:#ff0000;stroke-width:0.377953;stroke-dasharray:none;stroke-opacity:1"
         id="path22" /><path
         d="M 25.42757,-19.7396 8.41969,-29.5591 v -19.639 l 17.00788,-9.8195 17.00787,9.8195 v 19.639 z"
         style="fill:none;stroke:#ff0000;stroke-width:0.377953;stroke-dasharray:none;stroke-opacity:1"
         id="path23" /><path
         d="m 615.88884,176.5325 -17.00787,-9.8195 v -19.639 l 17.00787,-9.8195 17.00788,9.8195 v 19.639 z"
         style="fill:none;stroke:#ff0000;stroke-width:0.377953;stroke-dasharray:none;stroke-opacity:1"
         id="path24" /><path
         d="m 42.43544,-127.7541 -17.00787,9.8195 -17.00788,-9.8195 v -19.639 l 17.00788,-9.8195 17.00787,9.8195 z"
         style="fill:none;stroke:#ff0000;stroke-width:0.377953;stroke-dasharray:none;stroke-opacity:1"
         id="path25" /><path
         d="m 689.58963,147.074 v 19.639 l -17.00787,9.8195 -17.00788,-9.8195 v -19.639 l 17.00788,-9.8195 z"
         style="fill:none;stroke:#ff0000;stroke-width:0.377953;stroke-dasharray:none;stroke-opacity:1"
         id="path26" /><path
         d="m -2.91889,-108.1151 17.00787,9.8195 v 19.639 l -17.00787,9.8195 -17.00787,-9.8195 v -19.639 z"
         style="fill:none;stroke:#ff0000;stroke-width:0.377953;stroke-dasharray:none;stroke-opacity:1"
         id="path27" /><path
         d="m -76.61968,-78.6566 v -19.639 l 17.00788,-9.8195 17.00787,9.8195 v 19.639 l -17.00787,9.8195 z"
         style="fill:none;stroke:#ff0000;stroke-width:0.377953;stroke-dasharray:none;stroke-opacity:1"
         id="path28" /><path
         d="m -31.26535,-117.9346 -17.00787,-9.8195 v -19.639 l 17.00787,-9.8195 17.00788,9.8195 v 19.639 z"
         style="fill:none;stroke:#ff0000;stroke-width:0.377953;stroke-dasharray:none;stroke-opacity:1"
         id="path29" /><path
         d="m 644.2353,127.435 -17.00788,-9.8195 v -19.639 l 17.00788,-9.8195 17.00787,9.8195 v 19.639 z"
         style="fill:none;stroke:#ff0000;stroke-width:0.377953;stroke-dasharray:none;stroke-opacity:1"
         id="path30" /><path
         d="m -31.06206,176.5325 -17.00787,-9.8195 v -19.639 l 17.00787,-9.8195 17.00788,9.8195 v 19.639 z"
         style="fill:none;stroke:#ff0000;stroke-width:0.377953;stroke-dasharray:none;stroke-opacity:1"
         id="path31" /><path
         d="M -19.72347,117.6155 V 97.9765 L -2.7156,88.157 14.29228,97.9765 v 19.639 L -2.7156,127.435 Z"
         style="fill:none;stroke:#ff0000;stroke-width:0.377953;stroke-dasharray:none;stroke-opacity:1"
         id="path32" /><path
         d="m 14.18382,-0.1713 0.0814,19.6389 -16.96702,9.8899 -17.04843,-9.7489 -0.0814,-19.6389 16.96702,-9.8899 z"
         style="fill:none;stroke:#ff0000;stroke-width:0.377953;stroke-dasharray:none;stroke-opacity:1"
         id="path33" /><path
         d="m -42.40064,97.9765 v 19.639 l -17.00787,9.8195 -17.00788,-9.8195 v -19.639 l 17.00788,-9.8195 z"
         style="fill:none;stroke:#ff0000;stroke-width:0.377953;stroke-dasharray:none;stroke-opacity:1"
         id="path34" /><path
         d="m -42.42719,19.7026 -16.96702,9.8899 -17.04844,-9.7489 -0.0814,-19.6388 16.96702,-9.89 17.04843,9.749 z"
         style="fill:none;stroke:#ff0000;stroke-width:0.377953;stroke-dasharray:none;stroke-opacity:1"
         id="path35" /><path
         d="M 42.63873,48.879 V 68.518 L 25.63086,78.3375 8.62298,68.518 V 48.879 l 17.00788,-9.8195 z"
         style="fill:none;stroke:#ff0000;stroke-width:0.377953;stroke-dasharray:none;stroke-opacity:1"
         id="path36" /><path
         d="M -31.06206,78.3375 -48.06993,68.518 V 48.879 l 17.00787,-9.8195 17.00788,9.8195 v 19.639 z"
         style="fill:none;stroke:#ff0000;stroke-width:0.377953;stroke-dasharray:none;stroke-opacity:1"
         id="path37-8" /><path
         d="m 42.63873,147.074 v 19.639 L 25.63086,176.5325 8.62298,166.713 v -19.639 l 17.00788,-9.8195 z"
         style="fill:none;stroke:#ff0000;stroke-width:0.377953;stroke-dasharray:none;stroke-opacity:1"
         id="path38-6" /><path
         d="M 793.20079,-773.08255 H -151.68109 V 360.7757 h 944.88188 z"
         style="fill:none;stroke:#ff0000;stroke-width:0.377953;stroke-dasharray:none;stroke-opacity:1"
         id="path39-2" /><path
         d="m 764.09843,-480.73609 a 7.5590555,7.5590555 0 0 0 -15.11811,0 7.5590555,7.5590555 0 0 0 15.11811,0 z"
         style="fill:none;stroke:#ff0000;stroke-width:0.377953;stroke-dasharray:none;stroke-opacity:1"
         id="path40-7" /><path
         d="m 764.09843,67.2954 a 7.5590555,7.5590555 0 0 0 -15.11811,0 7.5590555,7.5590555 0 0 0 15.11811,0 z"
         style="fill:none;stroke:#ff0000;stroke-width:0.377953;stroke-dasharray:none;stroke-opacity:1"
         id="path41-8" /><path
         d="m 555.65749,322.4135 a 7.559055,7.559055 0 0 0 -15.11811,0 7.559055,7.559055 0 0 0 15.11811,0 z"
         style="fill:none;stroke:#ff0000;stroke-width:0.377953;stroke-dasharray:none;stroke-opacity:1"
         id="path42-2" /><path
         d="m 100.98032,322.4135 a 7.559055,7.559055 0 0 0 -15.11811,0 7.559055,7.559055 0 0 0 15.11811,0 z"
         style="fill:none;stroke:#ff0000;stroke-width:0.377953;stroke-dasharray:none;stroke-opacity:1"
         id="path43-1" /><path
         d="m -107.46062,67.2954 a 7.5590555,7.5590555 0 0 0 -15.11811,0 7.5590555,7.5590555 0 0 0 15.11811,0 z"
         style="fill:none;stroke:#ff0000;stroke-width:0.377953;stroke-dasharray:none;stroke-opacity:1"
         id="path44-3" /><path
         d="m -107.46062,-480.73609 a 7.5590555,7.5590555 0 0 0 -15.11811,0 7.5590555,7.5590555 0 0 0 15.11811,0 z"
         style="fill:none;stroke:#ff0000;stroke-width:0.377953;stroke-dasharray:none;stroke-opacity:1"
         id="path45-5" /><path
         d="m 100.98032,-735.8542 a 7.559055,7.559055 0 0 0 -15.11811,0 7.559055,7.559055 0 0 0 15.11811,0 z"
         style="fill:none;stroke:#ff0000;stroke-width:0.377953;stroke-dasharray:none;stroke-opacity:1"
         id="path46-0" /><path
         d="m 555.65749,-735.8542 a 7.559055,7.559055 0 0 0 -15.11811,0 7.559055,7.559055 0 0 0 15.11811,0 z"
         style="fill:none;stroke:#ff0000;stroke-width:0.377953;stroke-dasharray:none;stroke-opacity:1"
         id="path47-0" /><path
         d="m 466.93956,-614.71837 a 7.575753,7.575753 0 0 0 -10.69012,-10.69012 l -74.69292,74.69291 a 7.5590563,7.5590563 0 1 0 10.69012,10.69012 z"
         style="fill:none;stroke:#ff0000;stroke-width:0.377953;stroke-dasharray:none;stroke-opacity:1"
         id="path56" /><path
         d="m 456.24943,-333.04907 a 7.575753,7.575753 0 0 0 10.69012,-10.69012 l -74.69291,-74.69292 a 7.5590563,7.5590563 0 1 0 -10.69012,10.69012 z"
         style="fill:none;stroke:#ff0000;stroke-width:0.377953;stroke-dasharray:none;stroke-opacity:1"
         id="path56-9" /><path
         d="m 249.61607,-539.68221 a 7.575753,7.575753 0 0 0 10.69012,-10.69012 l -74.69291,-74.69292 a 7.5590563,7.5590563 0 1 0 -10.69012,10.69012 z"
         style="fill:none;stroke:#ff0000;stroke-width:0.377953;stroke-dasharray:none;stroke-opacity:1"
         id="path56-5" /><path
         d="m 174.17158,-343.33063 a 7.646173,7.646173 0 0 0 10.69012,10.69012 l 75.10148,-75.10148 a 7.5590563,7.5590563 0 0 0 -10.69012,-10.69012 z"
         style="fill:none;stroke:#ff0000;stroke-width:0.377953;stroke-dasharray:none;stroke-opacity:1"
         id="path57-94" /><path
         d="m 446.72923,-417.50862 9.8195,-17.00787 -9.8195,-17.00788 h -19.639 l -9.8195,17.00788 9.8195,17.00787 z"
         style="fill:none;stroke:#ff0000;stroke-width:0.377953;stroke-dasharray:none;stroke-opacity:1"
         id="path65" /><path
         d="m 409.20531,-469.40928 v -19.63901 l -17.00787,-9.8195 -17.00788,9.8195 v 19.63901 l 17.00788,9.8195 z"
         style="fill:none;stroke:#ff0000;stroke-width:0.377953;stroke-dasharray:none;stroke-opacity:1"
         id="path66" /><path
         d="m 446.72923,-506.9332 h -19.639 l -9.8195,-17.00788 9.8195,-17.00787 h 19.639 l 9.8195,17.00787 z"
         style="fill:none;stroke:#ff0000;stroke-width:0.377953;stroke-dasharray:none;stroke-opacity:1"
         id="path67" /><path
         d="m 194.79047,-451.52437 h 19.639 l 9.8195,17.00788 -9.8195,17.00787 h -19.639 l -9.8195,-17.00787 z"
         style="fill:none;stroke:#ff0000;stroke-width:0.377953;stroke-dasharray:none;stroke-opacity:1"
         id="path68" /><path
         d="m 249.32226,-459.58978 -17.00787,-9.8195 v -19.63901 l 17.00787,-9.8195 17.00788,9.8195 v 19.63901 z"
         style="fill:none;stroke:#ff0000;stroke-width:0.377953;stroke-dasharray:none;stroke-opacity:1"
         id="path69" /><path
         d="m 194.79047,-506.9332 h 19.639 l 9.8195,-17.00788 -9.8195,-17.00787 h -19.639 l -9.8195,17.00787 z"
         style="fill:none;stroke:#ff0000;stroke-width:0.377953;stroke-dasharray:none;stroke-opacity:1"
         id="path70" /><path
         d="m 382.48001,-353.25941 -17.00787,9.8195 -17.00787,-9.8195 v -19.639 l 17.00787,-9.8195 17.00787,9.8195 z"
         style="fill:none;stroke:#ff0000;stroke-width:0.377953;stroke-dasharray:none;stroke-opacity:1"
         id="path71" /><path
         d="m 340.39885,-407.7912 -9.8195,17.00787 h -19.639 l -9.8195,-17.00787 9.8195,-17.00787 h 19.639 z"
         style="fill:none;stroke:#ff0000;stroke-width:0.377953;stroke-dasharray:none;stroke-opacity:1"
         id="path72" /><path
         d="m 259.03968,-353.25941 17.00788,9.8195 17.00787,-9.8195 v -19.639 l -17.00787,-9.8195 -17.00788,9.8195 z"
         style="fill:none;stroke:#ff0000;stroke-width:0.377953;stroke-dasharray:none;stroke-opacity:1"
         id="path73" /><path
         d="m 382.48001,-605.19816 -17.00787,-9.81951 -17.00787,9.81951 v 19.639 l 17.00787,9.8195 17.00787,-9.8195 z"
         style="fill:none;stroke:#ff0000;stroke-width:0.377953;stroke-dasharray:none;stroke-opacity:1"
         id="path74" /><path
         d="m 293.05543,-605.19816 v 19.639 l -17.00787,9.8195 -17.00788,-9.8195 v -19.639 l 17.00788,-9.81951 z"
         style="fill:none;stroke:#ff0000;stroke-width:0.377953;stroke-dasharray:none;stroke-opacity:1"
         id="path75" /><path
         d="m 330.57935,-567.67425 h -19.639 l -9.8195,17.00788 9.8195,17.00787 h 19.639 l 9.8195,-17.00787 z"
         style="fill:none;stroke:#ff0000;stroke-width:0.377953;stroke-dasharray:none;stroke-opacity:1"
         id="path76" /><path
         d="m 340.39885,-479.22879 -9.8195,-17.00787 h -19.639 l -9.8195,17.00787 9.8195,17.00788 h 19.639 z"
         style="fill:none;stroke:#ff0000;stroke-width:0.377953;stroke-dasharray:none;stroke-opacity:1"
         id="path78" /><path
         d="m 630.68111,-300.6416 a 7.559055,7.559055 0 0 0 15.11811,0 v -377.95276 a 7.559055,7.559055 0 0 0 -15.11811,0 z"
         style="fill:none;stroke:#ff0000;stroke-width:0.377953;stroke-dasharray:none;stroke-opacity:1"
         id="path83" /><path
         d="m 683.5945,-300.6416 a 7.559055,7.559055 0 0 0 15.11811,0 v -377.95276 a 7.559055,7.559055 0 0 0 -15.11811,0 z"
         style="fill:none;stroke:#ff0000;stroke-width:0.377953;stroke-dasharray:none;stroke-opacity:1"
         id="path83-5" /></g><rect
       style="fill:none;stroke:#0000ff;stroke-width:0.368695;stroke-opacity:1"
       id="rect66"
       width="1005.152"
       height="1484.4139"
       x="-181.81616"
       y="-796.52563" /></g></svg>
