0
SECTION
2
HEADER
9
$INSUNITS
70
4
9
$ACADVER
1
AC1014
9
$HANDSEED
5
FFFF
0
ENDSEC
0
SECTION
2
TABLES
0
TABLE
2
VPORT
5
8
100
AcDbSymbolTable
0
ENDTAB
0
TABLE
2
LTYPE
5
5
100
AcDbSymbolTable
0
LTYPE
5
14
100
AcDbSymbolTableRecord
100
AcDbLinetypeTableRecord
2
BYBLOCK
70
0
0
LTYPE
5
15
100
AcDbSymbolTableRecord
100
AcDbLinetypeTableRecord
2
BYLAYER
70
0
0
ENDTAB
0
TABLE
2
LAYER
5
2
100
AcDbSymbolTable
70
2
0
LAYER
5
50
100
AcDbSymbolTableRecord
100
AcDbLayerTableRecord
2
0
70
0
6
CONTINUOUS
0
ENDTAB
0
TABLE
2
STYLE
5
3
100
AcDbSymbolTable
70
1
0
STYLE
5
11
100
AcDbSymbolTableRecord
100
AcDbTextStyleTableRecord
2
STANDARD
70
0
0
ENDTAB
0
TABLE
2
VIEW
5
6
100
AcDbSymbolTable
70
0
0
ENDTAB
0
TABLE
2
UCS
5
7
100
AcDbSymbolTable
70
0
0
ENDTAB
0
TABLE
2
APPID
5
9
100
AcDbSymbolTable
70
2
0
APPID
5
12
100
AcDbSymbolTableRecord
100
AcDbRegAppTableRecord
2
ACAD
70
0
0
ENDTAB
0
TABLE
2
DIMSTYLE
5
A
100
AcDbSymbolTable
70
1
0
ENDTAB
0
TABLE
2
BLOCK_RECORD
5
1
100
AcDbSymbolTable
70
1
0
BLOCK_RECORD
5
1F
100
AcDbSymbolTableRecord
100
AcDbBlockTableRecord
2
*MODEL_SPACE
0
BLOCK_RECORD
5
1B
100
AcDbSymbolTableRecord
100
AcDbBlockTableRecord
2
*PAPER_SPACE
0
ENDTAB
0
ENDSEC
0
SECTION
2
BLOCKS
0
BLOCK
5
20
100
AcDbEntity
100
AcDbBlockBegin
2
*MODEL_SPACE
0
ENDBLK
5
21
100
AcDbEntity
100
AcDbBlockEnd
0
BLOCK
5
1C
100
AcDbEntity
100
AcDbBlockBegin
2
*PAPER_SPACE
0
ENDBLK
5
1D
100
AcDbEntity
100
AcDbBlockEnd
0
ENDSEC
0
SECTION
2
ENTITIES
0
LINE
5
100
100
AcDbEntity
8
0
100
AcDbLine
10
3.3046930120869936e-08
20
-100.00000149011612
30
0
11
3.3046930120869916e-08
21
-95.000001415610313
31
0
0
LINE
5
101
100
AcDbEntity
8
0
100
AcDbLine
10
3.3046930120869916e-08
20
-95.000001415610313
30
0
11
3.304693021331805e-08
21
-90.000001303367796
31
0
0
LINE
5
102
100
AcDbEntity
8
0
100
AcDbLine
10
3.304693021331805e-08
20
-90.000001303367796
30
0
11
5.0000000330469305
21
-90.000001303367796
31
0
0
LINE
5
103
100
AcDbEntity
8
0
100
AcDbLine
10
5.0000000330469305
20
-90.000001303367796
30
0
11
5.0000000330469305
21
-85.000001303367796
31
0
0
LINE
5
104
100
AcDbEntity
8
0
100
AcDbLine
10
5.0000000330469305
20
-85.000001303367796
30
0
11
3.0616177734364057e-16
21
-85.000001303367796
31
0
0
LINE
5
105
100
AcDbEntity
8
0
100
AcDbLine
10
3.3046930120869916e-08
20
-85.000001415610313
30
0
11
3.304693021331805e-08
21
-80.000001303367796
31
0
0
LINE
5
106
100
AcDbEntity
8
0
100
AcDbLine
10
3.304693021331805e-08
20
-80.000001303367796
30
0
11
5.0000000330469305
21
-80.000001303367796
31
0
0
LINE
5
107
100
AcDbEntity
8
0
100
AcDbLine
10
5.0000000330469305
20
-80.000001303367796
30
0
11
5.0000000330469305
21
-75.00000130336781
31
0
0
LINE
5
108
100
AcDbEntity
8
0
100
AcDbLine
10
5.0000000330469305
20
-75.00000130336781
30
0
11
3.0616177734364057e-16
21
-75.00000130336781
31
0
0
LINE
5
109
100
AcDbEntity
8
0
100
AcDbLine
10
3.3046930120869916e-08
20
-75.000001415610313
30
0
11
3.304693021331805e-08
21
-70.00000130336781
31
0
0
LINE
5
110
100
AcDbEntity
8
0
100
AcDbLine
10
3.304693021331805e-08
20
-70.00000130336781
30
0
11
5.0000000330469305
21
-70.00000130336781
31
0
0
LINE
5
111
100
AcDbEntity
8
0
100
AcDbLine
10
5.0000000330469305
20
-70.00000130336781
30
0
11
5.0000000330469305
21
-65.00000130336781
31
0
0
LINE
5
112
100
AcDbEntity
8
0
100
AcDbLine
10
5.0000000330469305
20
-65.00000130336781
30
0
11
3.0616177734364057e-16
21
-65.00000130336781
31
0
0
LINE
5
113
100
AcDbEntity
8
0
100
AcDbLine
10
3.3046930120869916e-08
20
-65.000001415610313
30
0
11
3.304693021331805e-08
21
-60.000001303367803
31
0
0
LINE
5
114
100
AcDbEntity
8
0
100
AcDbLine
10
3.304693021331805e-08
20
-60.000001303367803
30
0
11
5.0000000330469305
21
-60.000001303367803
31
0
0
LINE
5
115
100
AcDbEntity
8
0
100
AcDbLine
10
5.0000000330469305
20
-60.000001303367803
30
0
11
5.0000000330469305
21
-55.000001303367803
31
0
0
LINE
5
116
100
AcDbEntity
8
0
100
AcDbLine
10
5.0000000330469305
20
-55.000001303367803
30
0
11
3.0616177734364057e-16
21
-55.000001303367803
31
0
0
LINE
5
117
100
AcDbEntity
8
0
100
AcDbLine
10
3.3046930120869916e-08
20
-55.000001415610313
30
0
11
3.304693021331805e-08
21
-50.000001303367803
31
0
0
LINE
5
118
100
AcDbEntity
8
0
100
AcDbLine
10
3.304693021331805e-08
20
-50.000001303367803
30
0
11
5.0000000330469305
21
-50.000001303367803
31
0
0
LINE
5
119
100
AcDbEntity
8
0
100
AcDbLine
10
5.0000000330469305
20
-50.000001303367803
30
0
11
5.0000000330469305
21
-45.000001303367803
31
0
0
LINE
5
120
100
AcDbEntity
8
0
100
AcDbLine
10
5.0000000330469305
20
-45.000001303367803
30
0
11
3.0616177734364057e-16
21
-45.000001303367803
31
0
0
LINE
5
121
100
AcDbEntity
8
0
100
AcDbLine
10
3.3046930120869916e-08
20
-45.000001415610313
30
0
11
3.304693021331805e-08
21
-40.000001303367803
31
0
0
LINE
5
122
100
AcDbEntity
8
0
100
AcDbLine
10
3.304693021331805e-08
20
-40.000001303367803
30
0
11
5.0000000330469305
21
-40.000001303367803
31
0
0
LINE
5
123
100
AcDbEntity
8
0
100
AcDbLine
10
5.0000000330469305
20
-40.000001303367803
30
0
11
5.0000000330469305
21
-35.000001303367803
31
0
0
LINE
5
124
100
AcDbEntity
8
0
100
AcDbLine
10
5.0000000330469305
20
-35.000001303367803
30
0
11
3.0616177734364057e-16
21
-35.000001303367803
31
0
0
LINE
5
125
100
AcDbEntity
8
0
100
AcDbLine
10
3.3046930120869916e-08
20
-35.000001415610313
30
0
11
3.304693021331805e-08
21
-30.000001303367799
31
0
0
LINE
5
126
100
AcDbEntity
8
0
100
AcDbLine
10
3.304693021331805e-08
20
-30.000001303367799
30
0
11
5.0000000330469305
21
-30.000001303367799
31
0
0
LINE
5
127
100
AcDbEntity
8
0
100
AcDbLine
10
5.0000000330469305
20
-30.000001303367799
30
0
11
5.0000000330469305
21
-25.000001303367799
31
0
0
LINE
5
128
100
AcDbEntity
8
0
100
AcDbLine
10
5.0000000330469305
20
-25.000001303367799
30
0
11
3.0616177734364057e-16
21
-25.000001303367799
31
0
0
LINE
5
129
100
AcDbEntity
8
0
100
AcDbLine
10
3.3046930120869916e-08
20
-25.000001415610313
30
0
11
3.304693021331805e-08
21
-20.000001303367799
31
0
0
LINE
5
130
100
AcDbEntity
8
0
100
AcDbLine
10
3.304693021331805e-08
20
-20.000001303367799
30
0
11
5.0000000330469305
21
-20.000001303367799
31
0
0
LINE
5
131
100
AcDbEntity
8
0
100
AcDbLine
10
5.0000000330469305
20
-20.000001303367799
30
0
11
5.0000000330469305
21
-15.000001303367799
31
0
0
LINE
5
132
100
AcDbEntity
8
0
100
AcDbLine
10
5.0000000330469305
20
-15.000001303367799
30
0
11
3.0616177734364057e-16
21
-15.000001303367799
31
0
0
LINE
5
133
100
AcDbEntity
8
0
100
AcDbLine
10
3.3046930120869916e-08
20
-15.000001415610313
30
0
11
3.304693021331805e-08
21
-10.000001303367799
31
0
0
LINE
5
134
100
AcDbEntity
8
0
100
AcDbLine
10
3.304693021331805e-08
20
-10.000001303367799
30
0
11
5.0000000330469305
21
-10.000001303367799
31
0
0
LINE
5
135
100
AcDbEntity
8
0
100
AcDbLine
10
5.0000000330469305
20
-10.000001303367799
30
0
11
5.0000000330469305
21
-5.0000013033678004
31
0
0
LINE
5
136
100
AcDbEntity
8
0
100
AcDbLine
10
5.0000000330469305
20
-5.0000013033678004
30
0
11
3.0616177734364057e-16
21
-5.0000013033678004
31
0
0
LINE
5
137
100
AcDbEntity
8
0
100
AcDbLine
10
3.0616177734364057e-16
20
-5.0000013033678004
30
0
11
0
21
0
31
0
0
LINE
5
138
100
AcDbEntity
8
0
100
AcDbLine
10
0
20
-95
30
0
11
0
21
-90
31
0
0
LINE
5
139
100
AcDbEntity
8
0
100
AcDbLine
10
0
20
0
30
0
11
-55
21
0
31
0
0
LINE
5
140
100
AcDbEntity
8
0
100
AcDbLine
10
3.3046930120869936e-08
20
-100.00000149011612
30
0
11
-5.0000001112188119
21
-100.00000149011612
31
0
0
LINE
5
141
100
AcDbEntity
8
0
100
AcDbLine
10
-5.0000001112188119
20
-100.00000149011612
30
0
11
-5.0000001112188119
21
-95.000001490116119
31
0
0
LINE
5
142
100
AcDbEntity
8
0
100
AcDbLine
10
-5.0000001112188119
20
-95.000001490116119
30
0
11
-10.000000111218812
21
-95.000001490116119
31
0
0
LINE
5
143
100
AcDbEntity
8
0
100
AcDbLine
10
-10.000000111218812
20
-95.000001490116119
30
0
11
-10.000000111218812
21
-100.00000149011612
31
0
0
LINE
5
144
100
AcDbEntity
8
0
100
AcDbLine
10
-55
20
0
30
0
11
-55
21
-100.00000149011612
31
0
0
LINE
5
145
100
AcDbEntity
8
0
100
AcDbLine
10
-15.000000111218812
20
-100.00000149011612
30
0
11
-15.000000111218812
21
-95.000001490116119
31
0
0
LINE
5
146
100
AcDbEntity
8
0
100
AcDbLine
10
-15.000000111218812
20
-95.000001490116119
30
0
11
-20.00000011121881
21
-95.000001490116119
31
0
0
LINE
5
147
100
AcDbEntity
8
0
100
AcDbLine
10
-20.00000011121881
20
-95.000001490116119
30
0
11
-20.00000011121881
21
-100.00000149011612
31
0
0
LINE
5
148
100
AcDbEntity
8
0
100
AcDbLine
10
-9.9999999669530695
20
-100.00000149011612
30
0
11
-15.000000111218812
21
-100.00000149011612
31
0
0
LINE
5
149
100
AcDbEntity
8
0
100
AcDbLine
10
-25.00000011121881
20
-100.00000149011612
30
0
11
-25.00000011121881
21
-95.000001490116119
31
0
0
LINE
5
150
100
AcDbEntity
8
0
100
AcDbLine
10
-25.00000011121881
20
-95.000001490116119
30
0
11
-30.00000011121881
21
-95.000001490116119
31
0
0
LINE
5
151
100
AcDbEntity
8
0
100
AcDbLine
10
-30.00000011121881
20
-95.000001490116119
30
0
11
-30.00000011121881
21
-100.00000149011612
31
0
0
LINE
5
152
100
AcDbEntity
8
0
100
AcDbLine
10
-19.999999966953069
20
-100.00000149011612
30
0
11
-25.00000011121881
21
-100.00000149011612
31
0
0
LINE
5
153
100
AcDbEntity
8
0
100
AcDbLine
10
-35.00000011121881
20
-100.00000149011612
30
0
11
-35.00000011121881
21
-95.000001490116119
31
0
0
LINE
5
154
100
AcDbEntity
8
0
100
AcDbLine
10
-35.00000011121881
20
-95.000001490116119
30
0
11
-40.00000011121881
21
-95.000001490116119
31
0
0
LINE
5
155
100
AcDbEntity
8
0
100
AcDbLine
10
-40.00000011121881
20
-95.000001490116119
30
0
11
-40.00000011121881
21
-100.00000149011612
31
0
0
LINE
5
156
100
AcDbEntity
8
0
100
AcDbLine
10
-29.999999966953069
20
-100.00000149011612
30
0
11
-35.00000011121881
21
-100.00000149011612
31
0
0
LINE
5
157
100
AcDbEntity
8
0
100
AcDbLine
10
-45.00000011121881
20
-100.00000149011612
30
0
11
-45.00000011121881
21
-95.000001490116119
31
0
0
LINE
5
158
100
AcDbEntity
8
0
100
AcDbLine
10
-45.00000011121881
20
-95.000001490116119
30
0
11
-50.00000011121881
21
-95.000001490116119
31
0
0
LINE
5
159
100
AcDbEntity
8
0
100
AcDbLine
10
-50.00000011121881
20
-95.000001490116119
30
0
11
-50.00000011121881
21
-100.00000149011612
31
0
0
LINE
5
160
100
AcDbEntity
8
0
100
AcDbLine
10
-39.999999966953069
20
-100.00000149011612
30
0
11
-45.00000011121881
21
-100.00000149011612
31
0
0
LINE
5
161
100
AcDbEntity
8
0
100
AcDbLine
10
-50.00000011121881
20
-100.00000149011612
30
0
11
-55
21
-100.00000149011612
31
0
0
LINE
5
162
100
AcDbEntity
8
0
100
AcDbLine
10
3.3046930213317541e-08
20
50.000001303367803
30
0
11
5.0000000330469305
21
50.000001303367803
31
0
0
LINE
5
163
100
AcDbEntity
8
0
100
AcDbLine
10
3.3046930213317766e-08
20
20.000001303367799
30
0
11
5.0000000330469305
21
20.000001303367799
31
0
0
LINE
5
164
100
AcDbEntity
8
0
100
AcDbLine
10
5.0000000330469305
20
50.000001303367803
30
0
11
5.0000000330469305
21
45.000001303367803
31
0
0
LINE
5
165
100
AcDbEntity
8
0
100
AcDbLine
10
-10.000000111218812
20
95.000001490116119
30
0
11
-10.000000111218812
21
100.00000149011612
31
0
0
LINE
5
166
100
AcDbEntity
8
0
100
AcDbLine
10
-25.00000011121881
20
95.000001490116119
30
0
11
-30.00000011121881
21
95.000001490116119
31
0
0
LINE
5
167
100
AcDbEntity
8
0
100
AcDbLine
10
3.3046930120870413e-08
20
25.000001415610313
30
0
11
3.3046930213317766e-08
21
20.000001303367799
31
0
0
LINE
5
168
100
AcDbEntity
8
0
100
AcDbLine
10
-35.00000011121881
20
95.000001490116119
30
0
11
-40.00000011121881
21
95.000001490116119
31
0
0
LINE
5
169
100
AcDbEntity
8
0
100
AcDbLine
10
5.0000000330469305
20
70.00000130336781
30
0
11
5.0000000330469305
21
65.00000130336781
31
0
0
LINE
5
170
100
AcDbEntity
8
0
100
AcDbLine
10
-15.000000111218812
20
100.00000149011612
30
0
11
-15.000000111218812
21
95.000001490116119
31
0
0
LINE
5
171
100
AcDbEntity
8
0
100
AcDbLine
10
3.3046930213317766e-08
20
70.00000130336781
30
0
11
5.0000000330469305
21
70.00000130336781
31
0
0
LINE
5
172
100
AcDbEntity
8
0
100
AcDbLine
10
3.3046930213317071e-08
20
10.000001303367799
30
0
11
5.0000000330469305
21
10.000001303367799
31
0
0
LINE
5
173
100
AcDbEntity
8
0
100
AcDbLine
10
5.0000000330469305
20
30.000001303367799
30
0
11
5.0000000330469305
21
25.000001303367799
31
0
0
LINE
5
174
100
AcDbEntity
8
0
100
AcDbLine
10
5.0000000330469305
20
5.0000013033678004
30
0
11
3.0616177734364057e-16
21
5.0000013033678004
31
0
0
LINE
5
175
100
AcDbEntity
8
0
100
AcDbLine
10
3.3046930120869354e-08
20
100.00000149011612
30
0
11
-5.0000001112188119
21
100.00000149011612
31
0
0
LINE
5
176
100
AcDbEntity
8
0
100
AcDbLine
10
-15.000000111218812
20
95.000001490116119
30
0
11
-20.00000011121881
21
95.000001490116119
31
0
0
LINE
5
177
100
AcDbEntity
8
0
100
AcDbLine
10
5.0000000330469305
20
60.000001303367803
30
0
11
5.0000000330469305
21
55.000001303367803
31
0
0
LINE
5
178
100
AcDbEntity
8
0
100
AcDbLine
10
3.3046930120869619e-08
20
55.000001415610313
30
0
11
3.3046930213317541e-08
21
50.000001303367803
31
0
0
LINE
5
179
100
AcDbEntity
8
0
100
AcDbLine
10
5.0000000330469305
20
35.000001303367803
30
0
11
3.0616177734364057e-16
21
35.000001303367803
31
0
0
LINE
5
180
100
AcDbEntity
8
0
100
AcDbLine
10
3.3046930120869619e-08
20
15.000001415610313
30
0
11
3.3046930213317071e-08
21
10.000001303367799
31
0
0
LINE
5
181
100
AcDbEntity
8
0
100
AcDbLine
10
5.0000000330469305
20
25.000001303367799
30
0
11
3.0616177734364057e-16
21
25.000001303367799
31
0
0
LINE
5
182
100
AcDbEntity
8
0
100
AcDbLine
10
5.0000000330469305
20
45.000001303367803
30
0
11
3.0616177734364057e-16
21
45.000001303367803
31
0
0
LINE
5
183
100
AcDbEntity
8
0
100
AcDbLine
10
-25.00000011121881
20
100.00000149011612
30
0
11
-25.00000011121881
21
95.000001490116119
31
0
0
LINE
5
184
100
AcDbEntity
8
0
100
AcDbLine
10
-50.00000011121881
20
95.000001490116119
30
0
11
-50.00000011121881
21
100.00000149011612
31
0
0
LINE
5
185
100
AcDbEntity
8
0
100
AcDbLine
10
-45.00000011121881
20
95.000001490116119
30
0
11
-50.00000011121881
21
95.000001490116119
31
0
0
LINE
5
186
100
AcDbEntity
8
0
100
AcDbLine
10
5.0000000330469305
20
85.000001303367796
30
0
11
3.0616177734364057e-16
21
85.000001303367796
31
0
0
LINE
5
187
100
AcDbEntity
8
0
100
AcDbLine
10
3.3046930120870148e-08
20
85.000001415610313
30
0
11
3.3046930213317077e-08
21
80.000001303367796
31
0
0
LINE
5
188
100
AcDbEntity
8
0
100
AcDbLine
10
5.0000000330469305
20
90.000001303367796
30
0
11
5.0000000330469305
21
85.000001303367796
31
0
0
LINE
5
189
100
AcDbEntity
8
0
100
AcDbLine
10
3.3046930213318004e-08
20
30.000001303367799
30
0
11
5.0000000330469305
21
30.000001303367799
31
0
0
LINE
5
190
100
AcDbEntity
8
0
100
AcDbLine
10
5.0000000330469305
20
55.000001303367803
30
0
11
3.0616177734364057e-16
21
55.000001303367803
31
0
0
LINE
5
191
100
AcDbEntity
8
0
100
AcDbLine
10
5.0000000330469305
20
15.000001303367799
30
0
11
3.0616177734364057e-16
21
15.000001303367799
31
0
0
LINE
5
192
100
AcDbEntity
8
0
100
AcDbLine
10
5.0000000330469305
20
80.000001303367796
30
0
11
5.0000000330469305
21
75.00000130336781
31
0
0
LINE
5
193
100
AcDbEntity
8
0
100
AcDbLine
10
-19.999999966953069
20
100.00000149011612
30
0
11
-25.00000011121881
21
100.00000149011612
31
0
0
LINE
5
194
100
AcDbEntity
8
0
100
AcDbLine
10
3.3046930120869619e-08
20
95.000001415610313
30
0
11
3.3046930213317111e-08
21
90.000001303367796
31
0
0
LINE
5
195
100
AcDbEntity
8
0
100
AcDbLine
10
-35.00000011121881
20
100.00000149011612
30
0
11
-35.00000011121881
21
95.000001490116119
31
0
0
LINE
5
196
100
AcDbEntity
8
0
100
AcDbLine
10
-40.00000011121881
20
95.000001490116119
30
0
11
-40.00000011121881
21
100.00000149011612
31
0
0
LINE
5
197
100
AcDbEntity
8
0
100
AcDbLine
10
-30.00000011121881
20
95.000001490116119
30
0
11
-30.00000011121881
21
100.00000149011612
31
0
0
LINE
5
198
100
AcDbEntity
8
0
100
AcDbLine
10
-50.00000011121881
20
100.00000149011612
30
0
11
-55
21
100.00000149011612
31
0
0
LINE
5
199
100
AcDbEntity
8
0
100
AcDbLine
10
-5.0000001112188119
20
95.000001490116119
30
0
11
-10.000000111218812
21
95.000001490116119
31
0
0
LINE
5
200
100
AcDbEntity
8
0
100
AcDbLine
10
-9.9999999669530695
20
100.00000149011612
30
0
11
-15.000000111218812
21
100.00000149011612
31
0
0
LINE
5
201
100
AcDbEntity
8
0
100
AcDbLine
10
-45.00000011121881
20
100.00000149011612
30
0
11
-45.00000011121881
21
95.000001490116119
31
0
0
LINE
5
202
100
AcDbEntity
8
0
100
AcDbLine
10
5.0000000330469305
20
65.00000130336781
30
0
11
3.0616177734364057e-16
21
65.00000130336781
31
0
0
LINE
5
203
100
AcDbEntity
8
0
100
AcDbLine
10
5.0000000330469305
20
75.00000130336781
30
0
11
3.0616177734364057e-16
21
75.00000130336781
31
0
0
LINE
5
204
100
AcDbEntity
8
0
100
AcDbLine
10
0
20
95
30
0
11
0
21
90
31
0
0
LINE
5
205
100
AcDbEntity
8
0
100
AcDbLine
10
3.3046930120870148e-08
20
75.000001415610313
30
0
11
3.3046930213317766e-08
21
70.00000130336781
31
0
0
LINE
5
206
100
AcDbEntity
8
0
100
AcDbLine
10
-5.0000001112188119
20
100.00000149011612
30
0
11
-5.0000001112188119
21
95.000001490116119
31
0
0
LINE
5
207
100
AcDbEntity
8
0
100
AcDbLine
10
3.3046930213318017e-08
20
60.000001303367803
30
0
11
5.0000000330469305
21
60.000001303367803
31
0
0
LINE
5
208
100
AcDbEntity
8
0
100
AcDbLine
10
5.0000000330469305
20
20.000001303367799
30
0
11
5.0000000330469305
21
15.000001303367799
31
0
0
LINE
5
209
100
AcDbEntity
8
0
100
AcDbLine
10
5.0000000330469305
20
10.000001303367799
30
0
11
5.0000000330469305
21
5.0000013033678004
31
0
0
LINE
5
210
100
AcDbEntity
8
0
100
AcDbLine
10
5.0000000330469305
20
40.000001303367803
30
0
11
5.0000000330469305
21
35.000001303367803
31
0
0
LINE
5
211
100
AcDbEntity
8
0
100
AcDbLine
10
3.3046930213317077e-08
20
80.000001303367796
30
0
11
5.0000000330469305
21
80.000001303367796
31
0
0
LINE
5
212
100
AcDbEntity
8
0
100
AcDbLine
10
3.3046930120870148e-08
20
45.000001415610313
30
0
11
3.3046930213317766e-08
21
40.000001303367803
31
0
0
LINE
5
213
100
AcDbEntity
8
0
100
AcDbLine
10
3.3046930213317766e-08
20
40.000001303367803
30
0
11
5.0000000330469305
21
40.000001303367803
31
0
0
LINE
5
214
100
AcDbEntity
8
0
100
AcDbLine
10
-20.00000011121881
20
95.000001490116119
30
0
11
-20.00000011121881
21
100.00000149011612
31
0
0
LINE
5
215
100
AcDbEntity
8
0
100
AcDbLine
10
3.3046930213317111e-08
20
90.000001303367796
30
0
11
5.0000000330469305
21
90.000001303367796
31
0
0
LINE
5
216
100
AcDbEntity
8
0
100
AcDbLine
10
-55
20
0
30
0
11
-55
21
100.00000149011612
31
0
0
LINE
5
217
100
AcDbEntity
8
0
100
AcDbLine
10
3.304693012087028e-08
20
35.000001415610313
30
0
11
3.3046930213318004e-08
21
30.000001303367799
31
0
0
LINE
5
218
100
AcDbEntity
8
0
100
AcDbLine
10
-39.999999966953069
20
100.00000149011612
30
0
11
-45.00000011121881
21
100.00000149011612
31
0
0
LINE
5
219
100
AcDbEntity
8
0
100
AcDbLine
10
-29.999999966953069
20
100.00000149011612
30
0
11
-35.00000011121881
21
100.00000149011612
31
0
0
LINE
5
220
100
AcDbEntity
8
0
100
AcDbLine
10
3.3046930120869354e-08
20
100.00000149011612
30
0
11
3.3046930120869619e-08
21
95.000001415610313
31
0
0
LINE
5
221
100
AcDbEntity
8
0
100
AcDbLine
10
3.3046930120869883e-08
20
65.000001415610313
30
0
11
3.3046930213318017e-08
21
60.000001303367803
31
0
0
LINE
5
222
100
AcDbEntity
8
0
100
AcDbLine
10
3.0616177734364057e-16
20
5.0000013033678004
30
0
11
0
21
0
31
0
0
LINE
5
223
100
AcDbEntity
8
0
100
AcDbLine
10
-55
20
0
30
0
11
0
21
0
31
0
0
LINE
5
224
100
AcDbEntity
8
0
100
AcDbLine
10
0
20
75
30
0
11
0
21
70
31
0
0
LWPOLYLINE
5
225
100
AcDbEntity
8
0
100
AcDbPolyline
90
4
70
1
43
0.0
10
-36.899999966953068
20
52.000001490116119
10
3.3046929914792855e-08
20
52.000001490116119
10
3.3046929914792855e-08
20
86.000001490116119
10
-36.899999966953061
20
86.000001490116119
0
LINE
5
226
100
AcDbEntity
8
0
100
AcDbLine
10
-18.449999966953069
20
52.000001490116119
30
0
11
-18.449999966953065
21
86.000001490116119
31
0
0
LINE
5
227
100
AcDbEntity
8
0
100
AcDbLine
10
-36.899999966953068
20
69.000001490116119
30
0
11
3.3046929914792855e-08
21
69.000001490116119
31
0
0
LINE
5
228
100
AcDbEntity
8
0
100
AcDbLine
10
-4.9999999669530695
20
52.000001490116119
30
0
11
-4.9999999669530695
21
57.000001490116119
31
0
0
LINE
5
229
100
AcDbEntity
8
0
100
AcDbLine
10
-4.9999999669530695
20
57.000001490116119
30
0
11
3.3046929914792855e-08
21
57.000001490116119
31
0
0
CIRCLE
5
230
100
AcDbEntity
8
0
100
AcDbCircle
10
-4.9999999669530704
20
57.000001490116119
30
0
40
2.0999999999999996
210
0
220
0
230
1
0
CIRCLE
5
231
100
AcDbEntity
8
0
100
AcDbCircle
10
-4.9999999669530686
20
81.000001490116134
30
0
40
2.0999999999999996
210
0
220
0
230
1
0
CIRCLE
5
232
100
AcDbEntity
8
0
100
AcDbCircle
10
-31.899999966953065
20
81.000001490116119
30
0
40
2.0999999999999996
210
0
220
0
230
1
0
CIRCLE
5
233
100
AcDbEntity
8
0
100
AcDbCircle
10
-31.899999966953068
20
57.000001490116148
30
0
40
2.0999999999999996
210
0
220
0
230
1
0
LINE
5
234
100
AcDbEntity
8
0
100
AcDbLine
10
0
20
85
30
0
11
0
21
80
31
0
0
CIRCLE
5
235
100
AcDbEntity
8
0
100
AcDbCircle
10
-31.899999966953068
20
-57.000001490116148
30
0
40
2.0999999999999996
210
0
220
0
230
1
0
CIRCLE
5
236
100
AcDbEntity
8
0
100
AcDbCircle
10
-31.899999966953061
20
-81.000001490116119
30
0
40
2.0999999999999996
210
0
220
0
230
1
0
CIRCLE
5
237
100
AcDbEntity
8
0
100
AcDbCircle
10
-4.9999999669530597
20
-81.000001490116119
30
0
40
2.0999999999999996
210
0
220
0
230
1
0
CIRCLE
5
238
100
AcDbEntity
8
0
100
AcDbCircle
10
-4.9999999669530704
20
-57.000001490116119
30
0
40
2.0999999999999996
210
0
220
0
230
1
0
CIRCLE
5
239
100
AcDbEntity
8
0
100
AcDbCircle
10
-29.000000000000004
20
0
30
0
40
4.2000000000000002
210
0
220
0
230
1
0
LINE
5
240
100
AcDbEntity
8
0
100
AcDbLine
10
-29.000000000000004
20
0
30
0
11
-29.000000000000004
21
16
31
0
0
CIRCLE
5
241
100
AcDbEntity
8
0
100
AcDbCircle
10
-29.000000000000004
20
16
30
0
40
2.5999999999999988
210
0
220
0
230
1
0
CIRCLE
5
242
100
AcDbEntity
8
0
100
AcDbCircle
10
-29.000000000000004
20
-16
30
0
40
2.5999999999999988
210
0
220
0
230
1
0
ENDSEC
0
SECTION
2
OBJECTS
0
DICTIONARY
5
C
100
AcDbDictionary
3
ACAD_GROUP
350
D
3
ACAD_MLINESTYLE
350
17
0
DICTIONARY
5
D
100
AcDbDictionary
0
DICTIONARY
5
1A
330
C
100
AcDbDictionary
0
DICTIONARY
5
17
100
AcDbDictionary
0
ENDSEC
0
EOF
