0
SECTION
2
HEADER
9
$INSUNITS
70
4
9
$ACADVER
1
AC1014
9
$HANDSEED
5
FFFF
0
ENDSEC
0
SECTION
2
TABLES
0
TABLE
2
VPORT
5
8
100
AcDbSymbolTable
0
ENDTAB
0
TABLE
2
LTYPE
5
5
100
AcDbSymbolTable
0
LTYPE
5
14
100
AcDbSymbolTableRecord
100
AcDbLinetypeTableRecord
2
BYBLOCK
70
0
0
LTYPE
5
15
100
AcDbSymbolTableRecord
100
AcDbLinetypeTableRecord
2
BYLAYER
70
0
0
ENDTAB
0
TABLE
2
LAYER
5
2
100
AcDbSymbolTable
70
2
0
LAYER
5
50
100
AcDbSymbolTableRecord
100
AcDbLayerTableRecord
2
0
70
0
6
CONTINUOUS
0
ENDTAB
0
TABLE
2
STYLE
5
3
100
AcDbSymbolTable
70
1
0
STYLE
5
11
100
AcDbSymbolTableRecord
100
AcDbTextStyleTableRecord
2
STANDARD
70
0
0
ENDTAB
0
TABLE
2
VIEW
5
6
100
AcDbSymbolTable
70
0
0
ENDTAB
0
TABLE
2
UCS
5
7
100
AcDbSymbolTable
70
0
0
ENDTAB
0
TABLE
2
APPID
5
9
100
AcDbSymbolTable
70
2
0
APPID
5
12
100
AcDbSymbolTableRecord
100
AcDbRegAppTableRecord
2
ACAD
70
0
0
ENDTAB
0
TABLE
2
DIMSTYLE
5
A
100
AcDbSymbolTable
70
1
0
ENDTAB
0
TABLE
2
BLOCK_RECORD
5
1
100
AcDbSymbolTable
70
1
0
BLOCK_RECORD
5
1F
100
AcDbSymbolTableRecord
100
AcDbBlockTableRecord
2
*MODEL_SPACE
0
BLOCK_RECORD
5
1B
100
AcDbSymbolTableRecord
100
AcDbBlockTableRecord
2
*PAPER_SPACE
0
ENDTAB
0
ENDSEC
0
SECTION
2
BLOCKS
0
BLOCK
5
20
100
AcDbEntity
100
AcDbBlockBegin
2
*MODEL_SPACE
0
ENDBLK
5
21
100
AcDbEntity
100
AcDbBlockEnd
0
BLOCK
5
1C
100
AcDbEntity
100
AcDbBlockBegin
2
*PAPER_SPACE
0
ENDBLK
5
1D
100
AcDbEntity
100
AcDbBlockEnd
0
ENDSEC
0
SECTION
2
ENTITIES
0
LINE
5
100
100
AcDbEntity
8
0
100
AcDbLine
10
205
20
99.999999999999986
30
0
11
205.00000000000003
21
94.999999999999986
31
0
0
LINE
5
101
100
AcDbEntity
8
0
100
AcDbLine
10
205.00000000000003
20
94.999999999999986
30
0
11
200.00000000000003
21
94.999999999999943
31
0
0
LINE
5
102
100
AcDbEntity
8
0
100
AcDbLine
10
200.00000000000003
20
94.999999999999943
30
0
11
200.00000000000071
21
-5.3290705182007514e-14
31
0
0
LINE
5
103
100
AcDbEntity
8
0
100
AcDbLine
10
205
20
99.999999999999986
30
0
11
210
21
100.00000000000001
31
0
0
LINE
5
104
100
AcDbEntity
8
0
100
AcDbLine
10
210
20
100.00000000000001
30
0
11
210.00000000000003
21
95.000000000000014
31
0
0
LINE
5
105
100
AcDbEntity
8
0
100
AcDbLine
10
215.00000000000003
20
94.999999999999986
30
0
11
210.00000000000003
21
94.999999999999943
31
0
0
LINE
5
106
100
AcDbEntity
8
0
100
AcDbLine
10
215
20
99.999999999999986
30
0
11
220
21
100.00000000000001
31
0
0
LINE
5
107
100
AcDbEntity
8
0
100
AcDbLine
10
215
20
99.999999999999986
30
0
11
215.00000000000003
21
94.999999999999986
31
0
0
LINE
5
108
100
AcDbEntity
8
0
100
AcDbLine
10
220
20
100.00000000000001
30
0
11
220.00000000000003
21
95.000000000000014
31
0
0
LINE
5
109
100
AcDbEntity
8
0
100
AcDbLine
10
225.00000000000003
20
94.999999999999986
30
0
11
220.00000000000003
21
94.999999999999943
31
0
0
LINE
5
110
100
AcDbEntity
8
0
100
AcDbLine
10
225
20
99.999999999999986
30
0
11
230
21
100.00000000000001
31
0
0
LINE
5
111
100
AcDbEntity
8
0
100
AcDbLine
10
225
20
99.999999999999986
30
0
11
225.00000000000003
21
94.999999999999986
31
0
0
LINE
5
112
100
AcDbEntity
8
0
100
AcDbLine
10
230
20
100.00000000000001
30
0
11
230.00000000000003
21
95.000000000000014
31
0
0
LINE
5
113
100
AcDbEntity
8
0
100
AcDbLine
10
235.00000000000003
20
94.999999999999986
30
0
11
230.00000000000003
21
94.999999999999943
31
0
0
LINE
5
114
100
AcDbEntity
8
0
100
AcDbLine
10
235
20
99.999999999999986
30
0
11
240
21
100.00000000000001
31
0
0
LINE
5
115
100
AcDbEntity
8
0
100
AcDbLine
10
235
20
99.999999999999986
30
0
11
235.00000000000003
21
94.999999999999986
31
0
0
LINE
5
116
100
AcDbEntity
8
0
100
AcDbLine
10
240
20
100.00000000000001
30
0
11
240.00000000000003
21
95.000000000000014
31
0
0
LINE
5
117
100
AcDbEntity
8
0
100
AcDbLine
10
245.00000000000003
20
94.999999999999986
30
0
11
240.00000000000003
21
94.999999999999943
31
0
0
LINE
5
118
100
AcDbEntity
8
0
100
AcDbLine
10
245
20
99.999999999999986
30
0
11
250
21
100.00000000000001
31
0
0
LINE
5
119
100
AcDbEntity
8
0
100
AcDbLine
10
245
20
99.999999999999986
30
0
11
245.00000000000003
21
94.999999999999986
31
0
0
LINE
5
120
100
AcDbEntity
8
0
100
AcDbLine
10
250
20
100.00000000000001
30
0
11
250.00000000000003
21
95.000000000000014
31
0
0
LINE
5
121
100
AcDbEntity
8
0
100
AcDbLine
10
250.00000000000003
20
95.000000000000014
30
0
11
255.00000000000003
21
95.000000000000057
31
0
0
LINE
5
122
100
AcDbEntity
8
0
100
AcDbLine
10
200.00000000000071
20
-5.3290705182007514e-14
30
0
11
255.00000000000071
21
3.3051278282202562e-13
31
0
0
LINE
5
123
100
AcDbEntity
8
0
100
AcDbLine
10
255.00000000000003
20
95.000000000000057
30
0
11
255.00000000000071
21
3.3051278282202562e-13
31
0
0
LINE
5
124
100
AcDbEntity
8
0
100
AcDbLine
10
240.00000000000139
20
-99.999999999999559
30
0
11
240.00000000000136
21
-94.999999999999559
31
0
0
LINE
5
125
100
AcDbEntity
8
0
100
AcDbLine
10
250.00000000000136
20
-94.999999999999417
30
0
11
255.00000000000136
21
-94.999999999999375
31
0
0
LINE
5
126
100
AcDbEntity
8
0
100
AcDbLine
10
250.00000000000139
20
-99.999999999999417
30
0
11
250.00000000000136
21
-94.999999999999417
31
0
0
LINE
5
127
100
AcDbEntity
8
0
100
AcDbLine
10
205.00000000000139
20
-100.00000000000001
30
0
11
205.00000000000136
21
-95.000000000000014
31
0
0
LINE
5
128
100
AcDbEntity
8
0
100
AcDbLine
10
210.00000000000139
20
-99.999999999999986
30
0
11
210.00000000000136
21
-94.999999999999986
31
0
0
LINE
5
129
100
AcDbEntity
8
0
100
AcDbLine
10
205.00000000000136
20
-95.000000000000014
30
0
11
200.00000000000136
21
-95.000000000000057
31
0
0
LINE
5
130
100
AcDbEntity
8
0
100
AcDbLine
10
220.00000000000139
20
-99.999999999999844
30
0
11
220.00000000000136
21
-94.999999999999844
31
0
0
LINE
5
131
100
AcDbEntity
8
0
100
AcDbLine
10
235.00000000000139
20
-99.999999999999588
30
0
11
235.00000000000136
21
-94.999999999999588
31
0
0
LINE
5
132
100
AcDbEntity
8
0
100
AcDbLine
10
245.00000000000139
20
-99.999999999999446
30
0
11
245.00000000000136
21
-94.999999999999446
31
0
0
LINE
5
133
100
AcDbEntity
8
0
100
AcDbLine
10
215.00000000000139
20
-99.999999999999872
30
0
11
215.00000000000136
21
-94.999999999999872
31
0
0
LINE
5
134
100
AcDbEntity
8
0
100
AcDbLine
10
225.00000000000139
20
-99.99999999999973
30
0
11
225.00000000000136
21
-94.99999999999973
31
0
0
LINE
5
135
100
AcDbEntity
8
0
100
AcDbLine
10
235.00000000000139
20
-99.999999999999588
30
0
11
240.00000000000139
21
-99.999999999999559
31
0
0
LINE
5
136
100
AcDbEntity
8
0
100
AcDbLine
10
255.00000000000136
20
-94.999999999999375
30
0
11
255.00000000000071
21
3.3051278282202562e-13
31
0
0
LINE
5
137
100
AcDbEntity
8
0
100
AcDbLine
10
230.00000000000139
20
-99.999999999999702
30
0
11
230.00000000000136
21
-94.999999999999702
31
0
0
LINE
5
138
100
AcDbEntity
8
0
100
AcDbLine
10
215.00000000000136
20
-94.999999999999872
30
0
11
210.00000000000136
21
-94.999999999999915
31
0
0
LINE
5
139
100
AcDbEntity
8
0
100
AcDbLine
10
225.00000000000136
20
-94.99999999999973
30
0
11
220.00000000000136
21
-94.999999999999773
31
0
0
LINE
5
140
100
AcDbEntity
8
0
100
AcDbLine
10
205.00000000000139
20
-100.00000000000001
30
0
11
210.00000000000139
21
-99.999999999999986
31
0
0
LINE
5
141
100
AcDbEntity
8
0
100
AcDbLine
10
200.00000000000136
20
-95.000000000000057
30
0
11
200.00000000000071
21
-5.3290705182007514e-14
31
0
0
LINE
5
142
100
AcDbEntity
8
0
100
AcDbLine
10
245.00000000000136
20
-94.999999999999446
30
0
11
240.00000000000136
21
-94.999999999999488
31
0
0
LINE
5
143
100
AcDbEntity
8
0
100
AcDbLine
10
245.00000000000139
20
-99.999999999999446
30
0
11
250.00000000000139
21
-99.999999999999417
31
0
0
LINE
5
144
100
AcDbEntity
8
0
100
AcDbLine
10
225.00000000000139
20
-99.99999999999973
30
0
11
230.00000000000139
21
-99.999999999999702
31
0
0
LINE
5
145
100
AcDbEntity
8
0
100
AcDbLine
10
235.00000000000136
20
-94.999999999999588
30
0
11
230.00000000000136
21
-94.999999999999631
31
0
0
LINE
5
146
100
AcDbEntity
8
0
100
AcDbLine
10
215.00000000000139
20
-99.999999999999872
30
0
11
220.00000000000139
21
-99.999999999999844
31
0
0
CIRCLE
5
147
100
AcDbEntity
8
0
100
AcDbCircle
10
220.60000000000113
20
-68.999999999999744
30
0
40
4.1000000000000041
210
0
220
0
230
1
0
LINE
5
148
100
AcDbEntity
8
0
100
AcDbLine
10
220.60000000000113
20
-68.999999999999744
30
0
11
200.00000000000119
21
-68.999999999999972
31
0
0
LINE
5
149
100
AcDbEntity
8
0
100
AcDbLine
10
255.00000000000136
20
-94.999999999999375
30
0
11
200.00000000000136
21
-95.000000000000057
31
0
0
LINE
5
150
100
AcDbEntity
8
0
100
AcDbLine
10
220.60000000000113
20
-68.999999999999744
30
0
11
220.60000000000142
21
-94.99999999999973
31
0
0
CIRCLE
5
151
100
AcDbEntity
8
0
100
AcDbCircle
10
220.6000000000013
20
-84.99999999999973
30
0
40
2.6000000000000001
210
0
220
0
230
1
0
CIRCLE
5
152
100
AcDbEntity
8
0
100
AcDbCircle
10
220.6000000000009
20
-52.999999999999744
30
0
40
2.6000000000000001
210
0
220
0
230
1
0
CIRCLE
5
153
100
AcDbEntity
8
0
100
AcDbCircle
10
220.60000000000014
20
84.999999999999915
30
0
40
2.6000000000000001
210
0
220
0
230
1
0
CIRCLE
5
154
100
AcDbEntity
8
0
100
AcDbCircle
10
220.60000000000014
20
68.999999999999915
30
0
40
4.1000000000000041
210
0
220
0
230
1
0
CIRCLE
5
155
100
AcDbEntity
8
0
100
AcDbCircle
10
220.60000000000019
20
52.999999999999915
30
0
40
2.6000000000000001
210
0
220
0
230
1
0
CIRCLE
5
156
100
AcDbEntity
8
0
100
AcDbCircle
10
229.00000000000068
20
1.4907840667466439e-13
30
0
40
4.1999999999999913
210
0
220
0
230
1
0
LINE
5
157
100
AcDbEntity
8
0
100
AcDbLine
10
229.00000000000068
20
1.4907840667466439e-13
30
0
11
229.0000000000008
21
-15.999999999999851
31
0
0
CIRCLE
5
158
100
AcDbEntity
8
0
100
AcDbCircle
10
229.0000000000008
20
-15.999999999999851
30
0
40
2.6000000000000001
210
0
220
0
230
1
0
CIRCLE
5
159
100
AcDbEntity
8
0
100
AcDbCircle
10
229.0000000000006
20
16.000000000000149
30
0
40
2.6000000000000001
210
0
220
0
230
1
0
ENDSEC
0
SECTION
2
OBJECTS
0
DICTIONARY
5
C
100
AcDbDictionary
3
ACAD_GROUP
350
D
3
ACAD_MLINESTYLE
350
17
0
DICTIONARY
5
D
100
AcDbDictionary
0
DICTIONARY
5
1A
330
C
100
AcDbDictionary
0
DICTIONARY
5
17
100
AcDbDictionary
0
ENDSEC
0
EOF
