0
SECTION
2
HEADER
9
$INSUNITS
70
4
9
$ACADVER
1
AC1014
9
$HANDSEED
5
FFFF
0
ENDSEC
0
SECTION
2
TABLES
0
TABLE
2
VPORT
5
8
100
AcDbSymbolTable
0
ENDTAB
0
TABLE
2
LTYPE
5
5
100
AcDbSymbolTable
0
LTYPE
5
14
100
AcDbSymbolTableRecord
100
AcDbLinetypeTableRecord
2
BYBLOCK
70
0
0
LTYPE
5
15
100
AcDbSymbolTableRecord
100
AcDbLinetypeTableRecord
2
BYLAYER
70
0
0
ENDTAB
0
TABLE
2
LAYER
5
2
100
AcDbSymbolTable
70
2
0
LAYER
5
50
100
AcDbSymbolTableRecord
100
AcDbLayerTableRecord
2
0
70
0
6
CONTINUOUS
0
ENDTAB
0
TABLE
2
STYLE
5
3
100
AcDbSymbolTable
70
1
0
STYLE
5
11
100
AcDbSymbolTableRecord
100
AcDbTextStyleTableRecord
2
STANDARD
70
0
0
ENDTAB
0
TABLE
2
VIEW
5
6
100
AcDbSymbolTable
70
0
0
ENDTAB
0
TABLE
2
UCS
5
7
100
AcDbSymbolTable
70
0
0
ENDTAB
0
TABLE
2
APPID
5
9
100
AcDbSymbolTable
70
2
0
APPID
5
12
100
AcDbSymbolTableRecord
100
AcDbRegAppTableRecord
2
ACAD
70
0
0
ENDTAB
0
TABLE
2
DIMSTYLE
5
A
100
AcDbSymbolTable
70
1
0
ENDTAB
0
TABLE
2
BLOCK_RECORD
5
1
100
AcDbSymbolTable
70
1
0
BLOCK_RECORD
5
1F
100
AcDbSymbolTableRecord
100
AcDbBlockTableRecord
2
*MODEL_SPACE
0
BLOCK_RECORD
5
1B
100
AcDbSymbolTableRecord
100
AcDbBlockTableRecord
2
*PAPER_SPACE
0
ENDTAB
0
ENDSEC
0
SECTION
2
BLOCKS
0
BLOCK
5
20
100
AcDbEntity
100
AcDbBlockBegin
2
*MODEL_SPACE
0
ENDBLK
5
21
100
AcDbEntity
100
AcDbBlockEnd
0
BLOCK
5
1C
100
AcDbEntity
100
AcDbBlockBegin
2
*PAPER_SPACE
0
ENDBLK
5
1D
100
AcDbEntity
100
AcDbBlockEnd
0
ENDSEC
0
SECTION
2
ENTITIES
0
LINE
5
100
100
AcDbEntity
8
0
100
AcDbLine
10
5.000000074505806
20
100.00000149011612
30
0
11
10.000000149011612
21
100.00000149011612
31
0
0
LINE
5
101
100
AcDbEntity
8
0
100
AcDbLine
10
10.000000149011612
20
100.00000149011612
30
0
11
10.000000149011612
21
95.000001415610313
31
0
0
LINE
5
102
100
AcDbEntity
8
0
100
AcDbLine
10
10.000000149011612
20
95.000001415610313
30
0
11
15.000000223517418
21
95.000001415610313
31
0
0
LINE
5
103
100
AcDbEntity
8
0
100
AcDbLine
10
15.000000223517418
20
95.000001415610313
30
0
11
15.000000223517418
21
100.00000149011612
31
0
0
LINE
5
104
100
AcDbEntity
8
0
100
AcDbLine
10
5.000000074505806
20
100.00000149011612
30
0
11
5.000000074505806
21
105.00000156462193
31
0
0
LINE
5
105
100
AcDbEntity
8
0
100
AcDbLine
10
5.000000074505806
20
105.00000156462193
30
0
11
0
21
105.00000156462193
31
0
0
LINE
5
106
100
AcDbEntity
8
0
100
AcDbLine
10
0
20
105.00000156462193
30
0
11
0
21
110.00000163912773
31
0
0
LINE
5
107
100
AcDbEntity
8
0
100
AcDbLine
10
0
20
110.00000163912773
30
0
11
5.000000074505806
21
110.00000163912773
31
0
0
LINE
5
108
100
AcDbEntity
8
0
100
AcDbLine
10
10
20
95
30
0
11
15
21
95
31
0
0
LINE
5
109
100
AcDbEntity
8
0
100
AcDbLine
10
20.000000149011612
20
95.000001415610313
30
0
11
25.000000223517418
21
95.000001415610313
31
0
0
LINE
5
110
100
AcDbEntity
8
0
100
AcDbLine
10
25.000000223517418
20
95.000001415610313
30
0
11
25.000000223517418
21
100.00000149011612
31
0
0
LINE
5
111
100
AcDbEntity
8
0
100
AcDbLine
10
20.000000149011612
20
100.00000149011612
30
0
11
20.000000149011612
21
95.000001415610313
31
0
0
LINE
5
112
100
AcDbEntity
8
0
100
AcDbLine
10
15.000000074505806
20
100.00000149011612
30
0
11
20.000000149011612
21
100.00000149011612
31
0
0
LINE
5
113
100
AcDbEntity
8
0
100
AcDbLine
10
30.000000149011612
20
95.000001415610313
30
0
11
35.000000223517418
21
95.000001415610313
31
0
0
LINE
5
114
100
AcDbEntity
8
0
100
AcDbLine
10
35.000000223517418
20
95.000001415610313
30
0
11
35.000000223517418
21
100.00000149011612
31
0
0
LINE
5
115
100
AcDbEntity
8
0
100
AcDbLine
10
30.000000149011612
20
100.00000149011612
30
0
11
30.000000149011612
21
95.000001415610313
31
0
0
LINE
5
116
100
AcDbEntity
8
0
100
AcDbLine
10
25.000000074505806
20
100.00000149011612
30
0
11
30.000000149011612
21
100.00000149011612
31
0
0
LINE
5
117
100
AcDbEntity
8
0
100
AcDbLine
10
40.000000149011612
20
95.000001415610313
30
0
11
45.000000223517418
21
95.000001415610313
31
0
0
LINE
5
118
100
AcDbEntity
8
0
100
AcDbLine
10
45.000000223517418
20
95.000001415610313
30
0
11
45.000000223517418
21
100.00000149011612
31
0
0
LINE
5
119
100
AcDbEntity
8
0
100
AcDbLine
10
40.000000149011612
20
100.00000149011612
30
0
11
40.000000149011612
21
95.000001415610313
31
0
0
LINE
5
120
100
AcDbEntity
8
0
100
AcDbLine
10
35.000000074505806
20
100.00000149011612
30
0
11
40.000000149011612
21
100.00000149011612
31
0
0
LINE
5
121
100
AcDbEntity
8
0
100
AcDbLine
10
50.000000149011612
20
95.000001415610313
30
0
11
55.000000223517418
21
95.000001415610313
31
0
0
LINE
5
122
100
AcDbEntity
8
0
100
AcDbLine
10
55.000000223517418
20
95.000001415610313
30
0
11
55.000000223517418
21
100.00000149011612
31
0
0
LINE
5
123
100
AcDbEntity
8
0
100
AcDbLine
10
50.000000149011612
20
100.00000149011612
30
0
11
50.000000149011612
21
95.000001415610313
31
0
0
LINE
5
124
100
AcDbEntity
8
0
100
AcDbLine
10
45.000000074505806
20
100.00000149011612
30
0
11
50.000000149011612
21
100.00000149011612
31
0
0
LINE
5
125
100
AcDbEntity
8
0
100
AcDbLine
10
60.000000149011612
20
95.000001415610313
30
0
11
65.000000223517418
21
95.000001415610313
31
0
0
LINE
5
126
100
AcDbEntity
8
0
100
AcDbLine
10
65.000000223517418
20
95.000001415610313
30
0
11
65.000000223517418
21
100.00000149011612
31
0
0
LINE
5
127
100
AcDbEntity
8
0
100
AcDbLine
10
60.000000149011612
20
100.00000149011612
30
0
11
60.000000149011612
21
95.000001415610313
31
0
0
LINE
5
128
100
AcDbEntity
8
0
100
AcDbLine
10
55.000000074505806
20
100.00000149011612
30
0
11
60.000000149011612
21
100.00000149011612
31
0
0
LINE
5
129
100
AcDbEntity
8
0
100
AcDbLine
10
70.000000149011612
20
95.000001415610313
30
0
11
75.000000223517418
21
95.000001415610313
31
0
0
LINE
5
130
100
AcDbEntity
8
0
100
AcDbLine
10
75.000000223517418
20
95.000001415610313
30
0
11
75.000000223517418
21
100.00000149011612
31
0
0
LINE
5
131
100
AcDbEntity
8
0
100
AcDbLine
10
70.000000149011612
20
100.00000149011612
30
0
11
70.000000149011612
21
95.000001415610313
31
0
0
LINE
5
132
100
AcDbEntity
8
0
100
AcDbLine
10
65.000000074505806
20
100.00000149011612
30
0
11
70.000000149011612
21
100.00000149011612
31
0
0
LINE
5
133
100
AcDbEntity
8
0
100
AcDbLine
10
80.000000149011612
20
95.000001415610313
30
0
11
85.000000223517418
21
95.000001415610313
31
0
0
LINE
5
134
100
AcDbEntity
8
0
100
AcDbLine
10
85.000000223517418
20
95.000001415610313
30
0
11
85.000000223517418
21
100.00000149011612
31
0
0
LINE
5
135
100
AcDbEntity
8
0
100
AcDbLine
10
80.000000149011612
20
100.00000149011612
30
0
11
80.000000149011612
21
95.000001415610313
31
0
0
LINE
5
136
100
AcDbEntity
8
0
100
AcDbLine
10
75.000000074505806
20
100.00000149011612
30
0
11
80.000000149011612
21
100.00000149011612
31
0
0
LINE
5
137
100
AcDbEntity
8
0
100
AcDbLine
10
90.000000149011612
20
95.000001415610313
30
0
11
95.000000223517418
21
95.000001415610313
31
0
0
LINE
5
138
100
AcDbEntity
8
0
100
AcDbLine
10
95.000000223517418
20
95.000001415610313
30
0
11
95.000000223517418
21
100.00000149011612
31
0
0
LINE
5
139
100
AcDbEntity
8
0
100
AcDbLine
10
90.000000149011612
20
100.00000149011612
30
0
11
90.000000149011612
21
95.000001415610313
31
0
0
LINE
5
140
100
AcDbEntity
8
0
100
AcDbLine
10
85.000000074505806
20
100.00000149011612
30
0
11
90.000000149011612
21
100.00000149011612
31
0
0
LINE
5
141
100
AcDbEntity
8
0
100
AcDbLine
10
100.00000014901161
20
95.000001415610313
30
0
11
105.00000022351742
21
95.000001415610313
31
0
0
LINE
5
142
100
AcDbEntity
8
0
100
AcDbLine
10
105.00000022351742
20
95.000001415610313
30
0
11
105.00000022351742
21
100.00000149011612
31
0
0
LINE
5
143
100
AcDbEntity
8
0
100
AcDbLine
10
100.00000014901161
20
100.00000149011612
30
0
11
100.00000014901161
21
95.000001415610313
31
0
0
LINE
5
144
100
AcDbEntity
8
0
100
AcDbLine
10
95.000000074505806
20
100.00000149011612
30
0
11
100.00000014901161
21
100.00000149011612
31
0
0
LINE
5
145
100
AcDbEntity
8
0
100
AcDbLine
10
110.00000014901161
20
95.000001415610313
30
0
11
115.00000022351742
21
95.000001415610313
31
0
0
LINE
5
146
100
AcDbEntity
8
0
100
AcDbLine
10
115.00000022351742
20
95.000001415610313
30
0
11
115.00000022351742
21
100.00000149011612
31
0
0
LINE
5
147
100
AcDbEntity
8
0
100
AcDbLine
10
110.00000014901161
20
100.00000149011612
30
0
11
110.00000014901161
21
95.000001415610313
31
0
0
LINE
5
148
100
AcDbEntity
8
0
100
AcDbLine
10
105.00000007450581
20
100.00000149011612
30
0
11
110.00000014901161
21
100.00000149011612
31
0
0
LINE
5
149
100
AcDbEntity
8
0
100
AcDbLine
10
120.00000014901161
20
95.000001415610313
30
0
11
125.00000022351742
21
95.000001415610313
31
0
0
LINE
5
150
100
AcDbEntity
8
0
100
AcDbLine
10
125.00000022351742
20
95.000001415610313
30
0
11
125.00000022351742
21
100.00000149011612
31
0
0
LINE
5
151
100
AcDbEntity
8
0
100
AcDbLine
10
120.00000014901161
20
100.00000149011612
30
0
11
120.00000014901161
21
95.000001415610313
31
0
0
LINE
5
152
100
AcDbEntity
8
0
100
AcDbLine
10
115.00000007450581
20
100.00000149011612
30
0
11
120.00000014901161
21
100.00000149011612
31
0
0
LINE
5
153
100
AcDbEntity
8
0
100
AcDbLine
10
130.00000014901161
20
95.000001415610313
30
0
11
135.00000022351742
21
95.000001415610313
31
0
0
LINE
5
154
100
AcDbEntity
8
0
100
AcDbLine
10
135.00000022351742
20
95.000001415610313
30
0
11
135.00000022351742
21
100.00000149011612
31
0
0
LINE
5
155
100
AcDbEntity
8
0
100
AcDbLine
10
130.00000014901161
20
100.00000149011612
30
0
11
130.00000014901161
21
95.000001415610313
31
0
0
LINE
5
156
100
AcDbEntity
8
0
100
AcDbLine
10
125.00000007450581
20
100.00000149011612
30
0
11
130.00000014901161
21
100.00000149011612
31
0
0
LINE
5
157
100
AcDbEntity
8
0
100
AcDbLine
10
140.00000014901161
20
95.000001415610313
30
0
11
145.00000022351742
21
95.000001415610313
31
0
0
LINE
5
158
100
AcDbEntity
8
0
100
AcDbLine
10
145.00000022351742
20
95.000001415610313
30
0
11
145.00000022351742
21
100.00000149011612
31
0
0
LINE
5
159
100
AcDbEntity
8
0
100
AcDbLine
10
140.00000014901161
20
100.00000149011612
30
0
11
140.00000014901161
21
95.000001415610313
31
0
0
LINE
5
160
100
AcDbEntity
8
0
100
AcDbLine
10
135.00000007450581
20
100.00000149011612
30
0
11
140.00000014901161
21
100.00000149011612
31
0
0
LINE
5
161
100
AcDbEntity
8
0
100
AcDbLine
10
5.000000074505806
20
110.00000149011612
30
0
11
5.000000074505806
21
115.00000156462193
31
0
0
LINE
5
162
100
AcDbEntity
8
0
100
AcDbLine
10
5.000000074505806
20
115.00000156462193
30
0
11
0
21
115.00000156462193
31
0
0
LINE
5
163
100
AcDbEntity
8
0
100
AcDbLine
10
0
20
115.00000156462193
30
0
11
0
21
120.00000163912773
31
0
0
LINE
5
164
100
AcDbEntity
8
0
100
AcDbLine
10
0
20
120.00000163912773
30
0
11
5.000000074505806
21
120.00000163912773
31
0
0
LINE
5
165
100
AcDbEntity
8
0
100
AcDbLine
10
5.000000074505806
20
120.00000149011612
30
0
11
5.000000074505806
21
125.00000156462193
31
0
0
LINE
5
166
100
AcDbEntity
8
0
100
AcDbLine
10
5.000000074505806
20
125.00000156462193
30
0
11
0
21
125.00000156462193
31
0
0
LINE
5
167
100
AcDbEntity
8
0
100
AcDbLine
10
0
20
125.00000156462193
30
0
11
0
21
130.00000163912773
31
0
0
LINE
5
168
100
AcDbEntity
8
0
100
AcDbLine
10
0
20
130.00000163912773
30
0
11
5.000000074505806
21
130.00000163912773
31
0
0
LINE
5
169
100
AcDbEntity
8
0
100
AcDbLine
10
5.000000074505806
20
130.00000149011612
30
0
11
5.000000074505806
21
135.00000156462193
31
0
0
LINE
5
170
100
AcDbEntity
8
0
100
AcDbLine
10
5.000000074505806
20
135.00000156462193
30
0
11
0
21
135.00000156462193
31
0
0
LINE
5
171
100
AcDbEntity
8
0
100
AcDbLine
10
0
20
135.00000156462193
30
0
11
0
21
140.00000163912773
31
0
0
LINE
5
172
100
AcDbEntity
8
0
100
AcDbLine
10
0
20
140.00000163912773
30
0
11
5.000000074505806
21
140.00000163912773
31
0
0
LINE
5
173
100
AcDbEntity
8
0
100
AcDbLine
10
5.000000074505806
20
140.00000149011612
30
0
11
5.000000074505806
21
145.00000156462193
31
0
0
LINE
5
174
100
AcDbEntity
8
0
100
AcDbLine
10
5.000000074505806
20
145.00000156462193
30
0
11
0
21
145.00000156462193
31
0
0
LINE
5
175
100
AcDbEntity
8
0
100
AcDbLine
10
0
20
145.00000156462193
30
0
11
0
21
150.00000163912773
31
0
0
LINE
5
176
100
AcDbEntity
8
0
100
AcDbLine
10
0
20
150.00000163912773
30
0
11
5.000000074505806
21
150.00000163912773
31
0
0
LINE
5
177
100
AcDbEntity
8
0
100
AcDbLine
10
5.000000074505806
20
150.00000163912773
30
0
11
5.000000074505806
21
155.00000230967999
31
0
0
LINE
5
178
100
AcDbEntity
8
0
100
AcDbLine
10
5.000000074505806
20
155.00000230967999
30
0
11
150.00000007450581
21
155.00000230967999
31
0
0
LINE
5
179
100
AcDbEntity
8
0
100
AcDbLine
10
145.00000022351742
20
100.00000149011612
30
0
11
150
21
100.00000149011612
31
0
0
LINE
5
180
100
AcDbEntity
8
0
100
AcDbLine
10
194.99999992549419
20
100.00000136819753
30
0
11
189.99999985098839
21
100.00000138174403
31
0
0
LINE
5
181
100
AcDbEntity
8
0
100
AcDbLine
10
189.99999985098839
20
100.00000138174403
30
0
11
189.99999983744189
21
95.000001307238222
31
0
0
LINE
5
182
100
AcDbEntity
8
0
100
AcDbLine
10
159.99999983744186
20
95.000001388517305
30
0
11
154.99999976293606
21
95.000001402063802
31
0
0
LINE
5
183
100
AcDbEntity
8
0
100
AcDbLine
10
189.99999983744189
20
95.000001307238222
30
0
11
184.99999976293608
21
95.000001320784747
31
0
0
LINE
5
184
100
AcDbEntity
8
0
100
AcDbLine
10
169.99999983744189
20
95.000001361424268
30
0
11
164.99999976293608
21
95.000001374970793
31
0
0
LINE
5
185
100
AcDbEntity
8
0
100
AcDbLine
10
199.99999983744189
20
95.000001280145213
30
0
11
194.99999976293608
21
95.000001293691724
31
0
0
LINE
5
186
100
AcDbEntity
8
0
100
AcDbLine
10
164.99999992549419
20
100.0000014494766
30
0
11
159.99999985098839
21
100.00000146302311
31
0
0
LINE
5
187
100
AcDbEntity
8
0
100
AcDbLine
10
174.99999992549419
20
100.00000142238356
30
0
11
169.99999985098839
21
100.00000143593007
31
0
0
LINE
5
188
100
AcDbEntity
8
0
100
AcDbLine
10
154.99999977648258
20
100.00000147656961
30
0
11
150
21
100.00000149011612
31
0
0
LINE
5
189
100
AcDbEntity
8
0
100
AcDbLine
10
179.99999983744189
20
95.000001334331259
30
0
11
174.99999976293608
21
95.000001347877756
31
0
0
LINE
5
190
100
AcDbEntity
8
0
100
AcDbLine
10
159.99999985098839
20
100.00000146302311
30
0
11
159.99999983744186
21
95.000001388517305
31
0
0
LINE
5
191
100
AcDbEntity
8
0
100
AcDbLine
10
164.99999976293608
20
95.000001374970793
30
0
11
164.99999977648258
21
100.0000014494766
31
0
0
LINE
5
192
100
AcDbEntity
8
0
100
AcDbLine
10
184.99999976293608
20
95.000001320784747
30
0
11
184.99999977648258
21
100.00000139529055
31
0
0
LINE
5
193
100
AcDbEntity
8
0
100
AcDbLine
10
174.99999976293608
20
95.000001347877756
30
0
11
174.99999977648258
21
100.00000142238356
31
0
0
LINE
5
194
100
AcDbEntity
8
0
100
AcDbLine
10
154.99999976293606
20
95.000001402063802
30
0
11
154.99999977648258
21
100.00000147656961
31
0
0
LINE
5
195
100
AcDbEntity
8
0
100
AcDbLine
10
169.99999985098839
20
100.00000143593007
30
0
11
169.99999983744189
21
95.000001361424268
31
0
0
LINE
5
196
100
AcDbEntity
8
0
100
AcDbLine
10
194.99999976293608
20
95.000001293691724
30
0
11
194.99999977648258
21
100.00000136819753
31
0
0
LINE
5
197
100
AcDbEntity
8
0
100
AcDbLine
10
184.99999992549419
20
100.00000139529055
30
0
11
179.99999985098839
21
100.00000140883706
31
0
0
LINE
5
198
100
AcDbEntity
8
0
100
AcDbLine
10
179.99999985098839
20
100.00000140883706
30
0
11
179.99999983744189
21
95.000001334331259
31
0
0
LINE
5
199
100
AcDbEntity
8
0
100
AcDbLine
10
199.99999985098839
20
100.00000135465102
30
0
11
199.99999983744189
21
95.000001280145213
31
0
0
LINE
5
200
100
AcDbEntity
8
0
100
AcDbLine
10
199.99999985098839
20
100.00000135465102
30
0
11
199.99999984957128
21
105.00000135465102
31
0
0
LINE
5
201
100
AcDbEntity
8
0
100
AcDbLine
10
199.99999984957128
20
105.00000135465102
30
0
11
194.99999984957128
21
105.00000135323391
31
0
0
LINE
5
202
100
AcDbEntity
8
0
100
AcDbLine
10
194.99999984957128
20
105.00000135323391
30
0
11
194.99999984815418
21
110.00000135323391
31
0
0
LINE
5
203
100
AcDbEntity
8
0
100
AcDbLine
10
194.99999984815418
20
110.00000135323391
30
0
11
199.99999984815418
21
110.00000135465102
31
0
0
LINE
5
204
100
AcDbEntity
8
0
100
AcDbLine
10
199.99999985098839
20
110.00000135465102
30
0
11
199.99999984957128
21
115.00000135465102
31
0
0
LINE
5
205
100
AcDbEntity
8
0
100
AcDbLine
10
199.99999984957128
20
115.00000135465102
30
0
11
194.99999984957128
21
115.00000135323391
31
0
0
LINE
5
206
100
AcDbEntity
8
0
100
AcDbLine
10
194.99999984957128
20
115.00000135323391
30
0
11
194.99999984815418
21
120.00000135323391
31
0
0
LINE
5
207
100
AcDbEntity
8
0
100
AcDbLine
10
194.99999984815418
20
120.00000135323391
30
0
11
199.99999984815418
21
120.00000135465102
31
0
0
LINE
5
208
100
AcDbEntity
8
0
100
AcDbLine
10
199.99999985098839
20
120.00000135465102
30
0
11
199.99999984957128
21
125.00000135465102
31
0
0
LINE
5
209
100
AcDbEntity
8
0
100
AcDbLine
10
199.99999984957128
20
125.00000135465102
30
0
11
194.99999984957128
21
125.00000135323391
31
0
0
LINE
5
210
100
AcDbEntity
8
0
100
AcDbLine
10
194.99999984957128
20
125.00000135323391
30
0
11
194.99999984815418
21
130.00000135323393
31
0
0
LINE
5
211
100
AcDbEntity
8
0
100
AcDbLine
10
194.99999984815418
20
130.00000135323393
30
0
11
199.99999984815418
21
130.00000135465103
31
0
0
LINE
5
212
100
AcDbEntity
8
0
100
AcDbLine
10
199.99999985098839
20
130.00000135465103
30
0
11
199.99999984957128
21
135.00000135465103
31
0
0
LINE
5
213
100
AcDbEntity
8
0
100
AcDbLine
10
199.99999984957128
20
135.00000135465103
30
0
11
194.99999984957128
21
135.00000135323393
31
0
0
LINE
5
214
100
AcDbEntity
8
0
100
AcDbLine
10
194.99999984957128
20
135.00000135323393
30
0
11
194.99999984815418
21
140.00000135323393
31
0
0
LINE
5
215
100
AcDbEntity
8
0
100
AcDbLine
10
194.99999984815418
20
140.00000135323393
30
0
11
199.99999984815418
21
140.00000135465103
31
0
0
LINE
5
216
100
AcDbEntity
8
0
100
AcDbLine
10
199.99999985098839
20
140.00000135465103
30
0
11
199.99999984957128
21
145.00000135465103
31
0
0
LINE
5
217
100
AcDbEntity
8
0
100
AcDbLine
10
199.99999984957128
20
145.00000135465103
30
0
11
194.99999984957128
21
145.00000135323393
31
0
0
LINE
5
218
100
AcDbEntity
8
0
100
AcDbLine
10
194.99999984957128
20
145.00000135323393
30
0
11
194.99999984815418
21
150.00000135323393
31
0
0
LINE
5
219
100
AcDbEntity
8
0
100
AcDbLine
10
194.99999984815418
20
150.00000135323393
30
0
11
199.99999984815418
21
150.00000135465103
31
0
0
LINE
5
220
100
AcDbEntity
8
0
100
AcDbLine
10
200.00000007450581
20
155.00000224194747
30
0
11
150.00000007450581
21
155.00000230967999
31
0
0
LINE
5
221
100
AcDbEntity
8
0
100
AcDbLine
10
199.99999984815418
20
150.00000135465103
30
0
11
200.00000007450581
21
155.00000224194747
31
0
0
ENDSEC
0
SECTION
2
OBJECTS
0
DICTIONARY
5
C
100
AcDbDictionary
3
ACAD_GROUP
350
D
3
ACAD_MLINESTYLE
350
17
0
DICTIONARY
5
D
100
AcDbDictionary
0
DICTIONARY
5
1A
330
C
100
AcDbDictionary
0
DICTIONARY
5
17
100
AcDbDictionary
0
ENDSEC
0
EOF
