0
SECTION
2
HEADER
9
$INSUNITS
70
4
9
$ACADVER
1
AC1014
9
$HANDSEED
5
FFFF
0
ENDSEC
0
SECTION
2
TABLES
0
TABLE
2
VPORT
5
8
100
AcDbSymbolTable
0
ENDTAB
0
TABLE
2
LTYPE
5
5
100
AcDbSymbolTable
0
LTYPE
5
14
100
AcDbSymbolTableRecord
100
AcDbLinetypeTableRecord
2
BYBLOCK
70
0
0
LTYPE
5
15
100
AcDbSymbolTableRecord
100
AcDbLinetypeTableRecord
2
BYLAYER
70
0
0
ENDTAB
0
TABLE
2
LAYER
5
2
100
AcDbSymbolTable
70
2
0
LAYER
5
50
100
AcDbSymbolTableRecord
100
AcDbLayerTableRecord
2
0
70
0
6
CONTINUOUS
0
ENDTAB
0
TABLE
2
STYLE
5
3
100
AcDbSymbolTable
70
1
0
STYLE
5
11
100
AcDbSymbolTableRecord
100
AcDbTextStyleTableRecord
2
STANDARD
70
0
0
ENDTAB
0
TABLE
2
VIEW
5
6
100
AcDbSymbolTable
70
0
0
ENDTAB
0
TABLE
2
UCS
5
7
100
AcDbSymbolTable
70
0
0
ENDTAB
0
TABLE
2
APPID
5
9
100
AcDbSymbolTable
70
2
0
APPID
5
12
100
AcDbSymbolTableRecord
100
AcDbRegAppTableRecord
2
ACAD
70
0
0
ENDTAB
0
TABLE
2
DIMSTYLE
5
A
100
AcDbSymbolTable
70
1
0
ENDTAB
0
TABLE
2
BLOCK_RECORD
5
1
100
AcDbSymbolTable
70
1
0
BLOCK_RECORD
5
1F
100
AcDbSymbolTableRecord
100
AcDbBlockTableRecord
2
*MODEL_SPACE
0
BLOCK_RECORD
5
1B
100
AcDbSymbolTableRecord
100
AcDbBlockTableRecord
2
*PAPER_SPACE
0
ENDTAB
0
ENDSEC
0
SECTION
2
BLOCKS
0
BLOCK
5
20
100
AcDbEntity
100
AcDbBlockBegin
2
*MODEL_SPACE
0
ENDBLK
5
21
100
AcDbEntity
100
AcDbBlockEnd
0
BLOCK
5
1C
100
AcDbEntity
100
AcDbBlockBegin
2
*PAPER_SPACE
0
ENDBLK
5
1D
100
AcDbEntity
100
AcDbBlockEnd
0
ENDSEC
0
SECTION
2
ENTITIES
0
LINE
5
100
100
AcDbEntity
8
0
100
AcDbLine
10
10.000000000000011
20
-100
30
0
11
10
21
-95
31
0
0
LINE
5
101
100
AcDbEntity
8
0
100
AcDbLine
10
10
20
-95
30
0
11
15
21
-95
31
0
0
LINE
5
102
100
AcDbEntity
8
0
100
AcDbLine
10
15
20
-95
30
0
11
15.000000000000046
21
-100
31
0
0
LINE
5
103
100
AcDbEntity
8
0
100
AcDbLine
10
10.000000000000011
20
-100
30
0
11
5.000000074505806
21
-100
31
0
0
LINE
5
104
100
AcDbEntity
8
0
100
AcDbLine
10
0
20
-100
30
0
11
5.000000074505806
21
-100
31
0
0
LINE
5
105
100
AcDbEntity
8
0
100
AcDbLine
10
20.000000000000007
20
-100
30
0
11
15.000000074505806
21
-100
31
0
0
LINE
5
106
100
AcDbEntity
8
0
100
AcDbLine
10
20.000000000000007
20
-100
30
0
11
20
21
-95
31
0
0
LINE
5
107
100
AcDbEntity
8
0
100
AcDbLine
10
20
20
-95
30
0
11
25
21
-95
31
0
0
LINE
5
108
100
AcDbEntity
8
0
100
AcDbLine
10
25
20
-95
30
0
11
25.000000000000043
21
-100
31
0
0
LINE
5
109
100
AcDbEntity
8
0
100
AcDbLine
10
30.000000000000007
20
-100
30
0
11
25.000000074505806
21
-100
31
0
0
LINE
5
110
100
AcDbEntity
8
0
100
AcDbLine
10
30.000000000000007
20
-100
30
0
11
30
21
-95
31
0
0
LINE
5
111
100
AcDbEntity
8
0
100
AcDbLine
10
30
20
-95
30
0
11
35
21
-95
31
0
0
LINE
5
112
100
AcDbEntity
8
0
100
AcDbLine
10
35
20
-95
30
0
11
35.000000000000043
21
-100
31
0
0
LINE
5
113
100
AcDbEntity
8
0
100
AcDbLine
10
40.000000000000007
20
-100
30
0
11
35.000000074505806
21
-100
31
0
0
LINE
5
114
100
AcDbEntity
8
0
100
AcDbLine
10
40.000000000000007
20
-100
30
0
11
40
21
-95
31
0
0
LINE
5
115
100
AcDbEntity
8
0
100
AcDbLine
10
40
20
-95
30
0
11
45
21
-95
31
0
0
LINE
5
116
100
AcDbEntity
8
0
100
AcDbLine
10
45
20
-95
30
0
11
45.000000000000043
21
-100
31
0
0
LINE
5
117
100
AcDbEntity
8
0
100
AcDbLine
10
50.000000000000007
20
-100
30
0
11
45.000000074505806
21
-100
31
0
0
LINE
5
118
100
AcDbEntity
8
0
100
AcDbLine
10
50.000000000000007
20
-100
30
0
11
50
21
-95
31
0
0
LINE
5
119
100
AcDbEntity
8
0
100
AcDbLine
10
50
20
-95
30
0
11
55
21
-95
31
0
0
LINE
5
120
100
AcDbEntity
8
0
100
AcDbLine
10
55
20
-95
30
0
11
55.000000000000043
21
-100
31
0
0
LINE
5
121
100
AcDbEntity
8
0
100
AcDbLine
10
60.000000000000007
20
-100
30
0
11
55.000000074505806
21
-100
31
0
0
LINE
5
122
100
AcDbEntity
8
0
100
AcDbLine
10
60.000000000000007
20
-100
30
0
11
60
21
-95
31
0
0
LINE
5
123
100
AcDbEntity
8
0
100
AcDbLine
10
60
20
-95
30
0
11
65
21
-95
31
0
0
LINE
5
124
100
AcDbEntity
8
0
100
AcDbLine
10
65
20
-95
30
0
11
65.000000000000043
21
-100
31
0
0
LINE
5
125
100
AcDbEntity
8
0
100
AcDbLine
10
70.000000000000014
20
-100
30
0
11
65.000000074505806
21
-100
31
0
0
LINE
5
126
100
AcDbEntity
8
0
100
AcDbLine
10
70.000000000000014
20
-100
30
0
11
70
21
-95
31
0
0
LINE
5
127
100
AcDbEntity
8
0
100
AcDbLine
10
70
20
-95
30
0
11
75
21
-95
31
0
0
LINE
5
128
100
AcDbEntity
8
0
100
AcDbLine
10
75
20
-95
30
0
11
75.000000000000043
21
-100
31
0
0
LINE
5
129
100
AcDbEntity
8
0
100
AcDbLine
10
80.000000000000014
20
-100
30
0
11
75.000000074505806
21
-100
31
0
0
LINE
5
130
100
AcDbEntity
8
0
100
AcDbLine
10
80.000000000000014
20
-100
30
0
11
80
21
-95
31
0
0
LINE
5
131
100
AcDbEntity
8
0
100
AcDbLine
10
80
20
-95
30
0
11
85
21
-95
31
0
0
LINE
5
132
100
AcDbEntity
8
0
100
AcDbLine
10
85
20
-95
30
0
11
85.000000000000057
21
-100
31
0
0
LINE
5
133
100
AcDbEntity
8
0
100
AcDbLine
10
90.000000000000014
20
-100
30
0
11
85.000000074505806
21
-100
31
0
0
LINE
5
134
100
AcDbEntity
8
0
100
AcDbLine
10
90.000000000000014
20
-100
30
0
11
90
21
-95
31
0
0
LINE
5
135
100
AcDbEntity
8
0
100
AcDbLine
10
90
20
-95
30
0
11
95
21
-95
31
0
0
LINE
5
136
100
AcDbEntity
8
0
100
AcDbLine
10
95
20
-95
30
0
11
95.000000000000057
21
-100
31
0
0
LINE
5
137
100
AcDbEntity
8
0
100
AcDbLine
10
100.00000000000001
20
-100
30
0
11
95.000000074505806
21
-100
31
0
0
LINE
5
138
100
AcDbEntity
8
0
100
AcDbLine
10
100.00000000000001
20
-100
30
0
11
100
21
-95
31
0
0
LINE
5
139
100
AcDbEntity
8
0
100
AcDbLine
10
100
20
-95
30
0
11
105
21
-95
31
0
0
LINE
5
140
100
AcDbEntity
8
0
100
AcDbLine
10
105
20
-95
30
0
11
105.00000000000006
21
-100
31
0
0
LINE
5
141
100
AcDbEntity
8
0
100
AcDbLine
10
110.00000000000001
20
-100
30
0
11
105.00000007450581
21
-100
31
0
0
LINE
5
142
100
AcDbEntity
8
0
100
AcDbLine
10
110.00000000000001
20
-100
30
0
11
110
21
-95
31
0
0
LINE
5
143
100
AcDbEntity
8
0
100
AcDbLine
10
110
20
-95
30
0
11
115
21
-95
31
0
0
LINE
5
144
100
AcDbEntity
8
0
100
AcDbLine
10
115
20
-95
30
0
11
115.00000000000006
21
-100
31
0
0
LINE
5
145
100
AcDbEntity
8
0
100
AcDbLine
10
120.00000000000001
20
-100
30
0
11
115.00000007450581
21
-100
31
0
0
LINE
5
146
100
AcDbEntity
8
0
100
AcDbLine
10
120.00000000000001
20
-100
30
0
11
120
21
-95
31
0
0
LINE
5
147
100
AcDbEntity
8
0
100
AcDbLine
10
120
20
-95
30
0
11
125
21
-95
31
0
0
LINE
5
148
100
AcDbEntity
8
0
100
AcDbLine
10
125
20
-95
30
0
11
125.00000000000006
21
-100
31
0
0
LINE
5
149
100
AcDbEntity
8
0
100
AcDbLine
10
130.00000000000003
20
-100
30
0
11
125.00000007450581
21
-100
31
0
0
LINE
5
150
100
AcDbEntity
8
0
100
AcDbLine
10
130.00000000000003
20
-100
30
0
11
130
21
-95
31
0
0
LINE
5
151
100
AcDbEntity
8
0
100
AcDbLine
10
130
20
-95
30
0
11
135
21
-95
31
0
0
LINE
5
152
100
AcDbEntity
8
0
100
AcDbLine
10
135
20
-95
30
0
11
135.00000000000006
21
-100
31
0
0
LINE
5
153
100
AcDbEntity
8
0
100
AcDbLine
10
140.00000000000003
20
-100
30
0
11
135.00000007450581
21
-100
31
0
0
LINE
5
154
100
AcDbEntity
8
0
100
AcDbLine
10
140.00000000000003
20
-100
30
0
11
140
21
-95
31
0
0
LINE
5
155
100
AcDbEntity
8
0
100
AcDbLine
10
140
20
-95
30
0
11
145
21
-95
31
0
0
LINE
5
156
100
AcDbEntity
8
0
100
AcDbLine
10
145
20
-95
30
0
11
145.00000000000006
21
-100
31
0
0
LINE
5
157
100
AcDbEntity
8
0
100
AcDbLine
10
145.00000000000006
20
-100
30
0
11
150.00000000000003
21
-100
31
0
0
LINE
5
158
100
AcDbEntity
8
0
100
AcDbLine
10
0
20
-100
30
0
11
0
21
-95
31
0
0
LINE
5
159
100
AcDbEntity
8
0
100
AcDbLine
10
0
20
-95
30
0
11
0
21
-90
31
0
0
LINE
5
160
100
AcDbEntity
8
0
100
AcDbLine
10
5
20
-90
30
0
11
5
21
-85
31
0
0
LINE
5
161
100
AcDbEntity
8
0
100
AcDbLine
10
5
20
-85
30
0
11
0
21
-85
31
0
0
LINE
5
162
100
AcDbEntity
8
0
100
AcDbLine
10
0
20
-90
30
0
11
5
21
-90
31
0
0
LINE
5
163
100
AcDbEntity
8
0
100
AcDbLine
10
0
20
-85
30
0
11
0
21
-80
31
0
0
LINE
5
164
100
AcDbEntity
8
0
100
AcDbLine
10
0
20
-80
30
0
11
5
21
-80
31
0
0
LINE
5
165
100
AcDbEntity
8
0
100
AcDbLine
10
5
20
-80
30
0
11
5
21
-75
31
0
0
LINE
5
166
100
AcDbEntity
8
0
100
AcDbLine
10
5
20
-75
30
0
11
0
21
-75
31
0
0
LINE
5
167
100
AcDbEntity
8
0
100
AcDbLine
10
0
20
-75
30
0
11
0
21
-70
31
0
0
LINE
5
168
100
AcDbEntity
8
0
100
AcDbLine
10
0
20
-70
30
0
11
5
21
-70
31
0
0
LINE
5
169
100
AcDbEntity
8
0
100
AcDbLine
10
5
20
-70
30
0
11
5
21
-65
31
0
0
LINE
5
170
100
AcDbEntity
8
0
100
AcDbLine
10
5
20
-65
30
0
11
0
21
-65
31
0
0
LINE
5
171
100
AcDbEntity
8
0
100
AcDbLine
10
0
20
-65
30
0
11
0
21
-60
31
0
0
LINE
5
172
100
AcDbEntity
8
0
100
AcDbLine
10
0
20
-60
30
0
11
5
21
-60
31
0
0
LINE
5
173
100
AcDbEntity
8
0
100
AcDbLine
10
5
20
-60
30
0
11
5
21
-55
31
0
0
LINE
5
174
100
AcDbEntity
8
0
100
AcDbLine
10
5
20
-55
30
0
11
0
21
-55
31
0
0
LINE
5
175
100
AcDbEntity
8
0
100
AcDbLine
10
0
20
-55
30
0
11
0
21
-50
31
0
0
LINE
5
176
100
AcDbEntity
8
0
100
AcDbLine
10
0
20
-50
30
0
11
5
21
-50
31
0
0
LINE
5
177
100
AcDbEntity
8
0
100
AcDbLine
10
5
20
-50
30
0
11
5
21
-45
31
0
0
LINE
5
178
100
AcDbEntity
8
0
100
AcDbLine
10
5
20
-45
30
0
11
0
21
-45
31
0
0
LINE
5
179
100
AcDbEntity
8
0
100
AcDbLine
10
0
20
-45
30
0
11
0
21
-40
31
0
0
LINE
5
180
100
AcDbEntity
8
0
100
AcDbLine
10
0
20
-40
30
0
11
5
21
-40
31
0
0
LINE
5
181
100
AcDbEntity
8
0
100
AcDbLine
10
5
20
-40
30
0
11
5
21
-35
31
0
0
LINE
5
182
100
AcDbEntity
8
0
100
AcDbLine
10
5
20
-35
30
0
11
0
21
-35
31
0
0
LINE
5
183
100
AcDbEntity
8
0
100
AcDbLine
10
0
20
-35
30
0
11
0
21
-30
31
0
0
LINE
5
184
100
AcDbEntity
8
0
100
AcDbLine
10
0
20
-30
30
0
11
5
21
-30
31
0
0
LINE
5
185
100
AcDbEntity
8
0
100
AcDbLine
10
5
20
-30
30
0
11
5
21
-25
31
0
0
LINE
5
186
100
AcDbEntity
8
0
100
AcDbLine
10
5
20
-25
30
0
11
0
21
-25
31
0
0
LINE
5
187
100
AcDbEntity
8
0
100
AcDbLine
10
0
20
-25
30
0
11
0
21
-20
31
0
0
LINE
5
188
100
AcDbEntity
8
0
100
AcDbLine
10
0
20
-20
30
0
11
5
21
-20
31
0
0
LINE
5
189
100
AcDbEntity
8
0
100
AcDbLine
10
5
20
-20
30
0
11
5
21
-15
31
0
0
LINE
5
190
100
AcDbEntity
8
0
100
AcDbLine
10
5
20
-15
30
0
11
0
21
-15
31
0
0
LINE
5
191
100
AcDbEntity
8
0
100
AcDbLine
10
0
20
-15
30
0
11
0
21
-10
31
0
0
LINE
5
192
100
AcDbEntity
8
0
100
AcDbLine
10
0
20
-10
30
0
11
5
21
-10
31
0
0
LINE
5
193
100
AcDbEntity
8
0
100
AcDbLine
10
5
20
-10
30
0
11
5
21
-5
31
0
0
LINE
5
194
100
AcDbEntity
8
0
100
AcDbLine
10
5
20
-5
30
0
11
0
21
-5
31
0
0
LINE
5
195
100
AcDbEntity
8
0
100
AcDbLine
10
0
20
-5
30
0
11
0
21
0
31
0
0
LINE
5
196
100
AcDbEntity
8
0
100
AcDbLine
10
154.99999999999997
20
-100
30
0
11
150.00000000000003
21
-100
31
0
0
LINE
5
197
100
AcDbEntity
8
0
100
AcDbLine
10
180
20
-99.999999999999986
30
0
11
184.99999992549422
21
-99.999999999999986
31
0
0
LINE
5
198
100
AcDbEntity
8
0
100
AcDbLine
10
160
20
-100
30
0
11
164.99999992549422
21
-100
31
0
0
LINE
5
199
100
AcDbEntity
8
0
100
AcDbLine
10
165.00000000000003
20
-95
30
0
11
165
21
-100
31
0
0
LINE
5
200
100
AcDbEntity
8
0
100
AcDbLine
10
170
20
-100
30
0
11
174.99999992549422
21
-100
31
0
0
LINE
5
201
100
AcDbEntity
8
0
100
AcDbLine
10
155.00000000000003
20
-95
30
0
11
154.99999999999997
21
-100
31
0
0
LINE
5
202
100
AcDbEntity
8
0
100
AcDbLine
10
190
20
-99.999999999999986
30
0
11
194.99999992549422
21
-99.999999999999986
31
0
0
LINE
5
203
100
AcDbEntity
8
0
100
AcDbLine
10
170
20
-100
30
0
11
170.00000000000003
21
-95
31
0
0
LINE
5
204
100
AcDbEntity
8
0
100
AcDbLine
10
185.00000000000003
20
-94.999999999999986
30
0
11
185
21
-99.999999999999986
31
0
0
LINE
5
205
100
AcDbEntity
8
0
100
AcDbLine
10
195.00000000000003
20
-94.999999999999986
30
0
11
195
21
-99.999999999999986
31
0
0
LINE
5
206
100
AcDbEntity
8
0
100
AcDbLine
10
170.00000000000003
20
-95
30
0
11
165.00000000000003
21
-95
31
0
0
LINE
5
207
100
AcDbEntity
8
0
100
AcDbLine
10
200.00000000000003
20
-94.999999999999986
30
0
11
195.00000000000003
21
-94.999999999999986
31
0
0
LINE
5
208
100
AcDbEntity
8
0
100
AcDbLine
10
160.00000000000003
20
-95
30
0
11
155.00000000000003
21
-95
31
0
0
LINE
5
209
100
AcDbEntity
8
0
100
AcDbLine
10
190.00000000000003
20
-94.999999999999986
30
0
11
185.00000000000003
21
-94.999999999999986
31
0
0
LINE
5
210
100
AcDbEntity
8
0
100
AcDbLine
10
160
20
-100
30
0
11
160.00000000000003
21
-95
31
0
0
LINE
5
211
100
AcDbEntity
8
0
100
AcDbLine
10
190
20
-99.999999999999986
30
0
11
190.00000000000003
21
-94.999999999999986
31
0
0
LINE
5
212
100
AcDbEntity
8
0
100
AcDbLine
10
180
20
-99.999999999999986
30
0
11
180.00000000000003
21
-94.999999999999986
31
0
0
LINE
5
213
100
AcDbEntity
8
0
100
AcDbLine
10
200
20
-99.999999999999986
30
0
11
200.00000000000003
21
-94.999999999999986
31
0
0
LINE
5
214
100
AcDbEntity
8
0
100
AcDbLine
10
180.00000000000003
20
-94.999999999999986
30
0
11
175.00000000000003
21
-94.999999999999986
31
0
0
LINE
5
215
100
AcDbEntity
8
0
100
AcDbLine
10
175.00000000000003
20
-94.999999999999986
30
0
11
175
21
-100
31
0
0
LINE
5
216
100
AcDbEntity
8
0
100
AcDbLine
10
50.000000000000007
20
100
30
0
11
50
21
95
31
0
0
LINE
5
217
100
AcDbEntity
8
0
100
AcDbLine
10
15
20
95
30
0
11
15.000000000000046
21
100
31
0
0
LINE
5
218
100
AcDbEntity
8
0
100
AcDbLine
10
80.000000000000014
20
100
30
0
11
80
21
95
31
0
0
LINE
5
219
100
AcDbEntity
8
0
100
AcDbLine
10
85
20
95
30
0
11
85.000000000000057
21
100
31
0
0
LINE
5
220
100
AcDbEntity
8
0
100
AcDbLine
10
0
20
100
30
0
11
0
21
95
31
0
0
LINE
5
221
100
AcDbEntity
8
0
100
AcDbLine
10
35
20
95
30
0
11
35.000000000000043
21
100
31
0
0
LINE
5
222
100
AcDbEntity
8
0
100
AcDbLine
10
180
20
99.999999999999986
30
0
11
180.00000000000003
21
94.999999999999986
31
0
0
LINE
5
223
100
AcDbEntity
8
0
100
AcDbLine
10
95
20
95
30
0
11
95.000000000000057
21
100
31
0
0
LINE
5
224
100
AcDbEntity
8
0
100
AcDbLine
10
190
20
99.999999999999986
30
0
11
190.00000000000003
21
94.999999999999986
31
0
0
LINE
5
225
100
AcDbEntity
8
0
100
AcDbLine
10
175.00000000000003
20
94.999999999999986
30
0
11
175
21
100
31
0
0
LINE
5
226
100
AcDbEntity
8
0
100
AcDbLine
10
25
20
95
30
0
11
25.000000000000043
21
100
31
0
0
LINE
5
227
100
AcDbEntity
8
0
100
AcDbLine
10
70.000000000000014
20
100
30
0
11
70
21
95
31
0
0
LINE
5
228
100
AcDbEntity
8
0
100
AcDbLine
10
75
20
95
30
0
11
75.000000000000043
21
100
31
0
0
LINE
5
229
100
AcDbEntity
8
0
100
AcDbLine
10
200
20
99.999999999999986
30
0
11
200.00000000000003
21
94.999999999999986
31
0
0
LINE
5
230
100
AcDbEntity
8
0
100
AcDbLine
10
100.00000000000001
20
100
30
0
11
100
21
95
31
0
0
LINE
5
231
100
AcDbEntity
8
0
100
AcDbLine
10
65
20
95
30
0
11
65.000000000000043
21
100
31
0
0
LINE
5
232
100
AcDbEntity
8
0
100
AcDbLine
10
45
20
95
30
0
11
45.000000000000043
21
100
31
0
0
LINE
5
233
100
AcDbEntity
8
0
100
AcDbLine
10
125
20
95
30
0
11
125.00000000000006
21
100
31
0
0
LINE
5
234
100
AcDbEntity
8
0
100
AcDbLine
10
130.00000000000003
20
100
30
0
11
130
21
95
31
0
0
LINE
5
235
100
AcDbEntity
8
0
100
AcDbLine
10
40.000000000000007
20
100
30
0
11
40
21
95
31
0
0
LINE
5
236
100
AcDbEntity
8
0
100
AcDbLine
10
145.00000000000006
20
100
30
0
11
150.00000000000003
21
100
31
0
0
LINE
5
237
100
AcDbEntity
8
0
100
AcDbLine
10
10.000000000000011
20
100
30
0
11
5.000000074505806
21
100
31
0
0
LINE
5
238
100
AcDbEntity
8
0
100
AcDbLine
10
0
20
55
30
0
11
0
21
50
31
0
0
LINE
5
239
100
AcDbEntity
8
0
100
AcDbLine
10
0
20
95
30
0
11
0
21
90
31
0
0
LINE
5
240
100
AcDbEntity
8
0
100
AcDbLine
10
5
20
80
30
0
11
5
21
75
31
0
0
LINE
5
241
100
AcDbEntity
8
0
100
AcDbLine
10
40
20
95
30
0
11
45
21
95
31
0
0
LINE
5
242
100
AcDbEntity
8
0
100
AcDbLine
10
5
20
70
30
0
11
5
21
65
31
0
0
LINE
5
243
100
AcDbEntity
8
0
100
AcDbLine
10
5
20
25
30
0
11
0
21
25
31
0
0
LINE
5
244
100
AcDbEntity
8
0
100
AcDbLine
10
60.000000000000007
20
100
30
0
11
55.000000074505806
21
100
31
0
0
LINE
5
245
100
AcDbEntity
8
0
100
AcDbLine
10
0
20
20
30
0
11
5
21
20
31
0
0
LINE
5
246
100
AcDbEntity
8
0
100
AcDbLine
10
0
20
60
30
0
11
5
21
60
31
0
0
LINE
5
247
100
AcDbEntity
8
0
100
AcDbLine
10
140
20
95
30
0
11
145
21
95
31
0
0
LINE
5
248
100
AcDbEntity
8
0
100
AcDbLine
10
0
20
40
30
0
11
5
21
40
31
0
0
LINE
5
249
100
AcDbEntity
8
0
100
AcDbLine
10
130.00000000000003
20
100
30
0
11
125.00000007450581
21
100
31
0
0
LINE
5
250
100
AcDbEntity
8
0
100
AcDbLine
10
0
20
65
30
0
11
0
21
60
31
0
0
LINE
5
251
100
AcDbEntity
8
0
100
AcDbLine
10
0
20
75
30
0
11
0
21
70
31
0
0
LINE
5
252
100
AcDbEntity
8
0
100
AcDbLine
10
0
20
10
30
0
11
5
21
10
31
0
0
LINE
5
253
100
AcDbEntity
8
0
100
AcDbLine
10
5
20
15
30
0
11
0
21
15
31
0
0
LINE
5
254
100
AcDbEntity
8
0
100
AcDbLine
10
20.000000000000007
20
100
30
0
11
15.000000074505806
21
100
31
0
0
LINE
5
255
100
AcDbEntity
8
0
100
AcDbLine
10
5
20
5
30
0
11
0
21
5
31
0
0
LINE
5
256
100
AcDbEntity
8
0
100
AcDbLine
10
30
20
95
30
0
11
35
21
95
31
0
0
LINE
5
257
100
AcDbEntity
8
0
100
AcDbLine
10
0
20
30
30
0
11
5
21
30
31
0
0
LINE
5
258
100
AcDbEntity
8
0
100
AcDbLine
10
5
20
10
30
0
11
5
21
5
31
0
0
LINE
5
259
100
AcDbEntity
8
0
100
AcDbLine
10
5
20
85
30
0
11
0
21
85
31
0
0
LINE
5
260
100
AcDbEntity
8
0
100
AcDbLine
10
5
20
75
30
0
11
0
21
75
31
0
0
LINE
5
261
100
AcDbEntity
8
0
100
AcDbLine
10
70.000000000000014
20
100
30
0
11
65.000000074505806
21
100
31
0
0
LINE
5
262
100
AcDbEntity
8
0
100
AcDbLine
10
10
20
95
30
0
11
15
21
95
31
0
0
LINE
5
263
100
AcDbEntity
8
0
100
AcDbLine
10
0
20
70
30
0
11
5
21
70
31
0
0
LINE
5
264
100
AcDbEntity
8
0
100
AcDbLine
10
5
20
20
30
0
11
5
21
15
31
0
0
LINE
5
265
100
AcDbEntity
8
0
100
AcDbLine
10
0
20
5
30
0
11
0
21
0
31
0
0
LINE
5
266
100
AcDbEntity
8
0
100
AcDbLine
10
0
20
45
30
0
11
0
21
40
31
0
0
LINE
5
267
100
AcDbEntity
8
0
100
AcDbLine
10
5
20
60
30
0
11
5
21
55
31
0
0
LINE
5
268
100
AcDbEntity
8
0
100
AcDbLine
10
0
20
90
30
0
11
5
21
90
31
0
0
LINE
5
269
100
AcDbEntity
8
0
100
AcDbLine
10
5
20
55
30
0
11
0
21
55
31
0
0
LINE
5
270
100
AcDbEntity
8
0
100
AcDbLine
10
5
20
40
30
0
11
5
21
35
31
0
0
LINE
5
271
100
AcDbEntity
8
0
100
AcDbLine
10
0
20
100
30
0
11
5.000000074505806
21
100
31
0
0
LINE
5
272
100
AcDbEntity
8
0
100
AcDbLine
10
160.00000000000003
20
95
30
0
11
155.00000000000003
21
95
31
0
0
LINE
5
273
100
AcDbEntity
8
0
100
AcDbLine
10
200.00000000000003
20
94.999999999999986
30
0
11
195.00000000000003
21
94.999999999999986
31
0
0
LINE
5
274
100
AcDbEntity
8
0
100
AcDbLine
10
40.000000000000007
20
100
30
0
11
35.000000074505806
21
100
31
0
0
LINE
5
275
100
AcDbEntity
8
0
100
AcDbLine
10
60
20
95
30
0
11
65
21
95
31
0
0
LINE
5
276
100
AcDbEntity
8
0
100
AcDbLine
10
90
20
95
30
0
11
95
21
95
31
0
0
LINE
5
277
100
AcDbEntity
8
0
100
AcDbLine
10
50.000000000000007
20
100
30
0
11
45.000000074505806
21
100
31
0
0
LINE
5
278
100
AcDbEntity
8
0
100
AcDbLine
10
5
20
50
30
0
11
5
21
45
31
0
0
LINE
5
279
100
AcDbEntity
8
0
100
AcDbLine
10
70
20
95
30
0
11
75
21
95
31
0
0
LINE
5
280
100
AcDbEntity
8
0
100
AcDbLine
10
130
20
95
30
0
11
135
21
95
31
0
0
LINE
5
281
100
AcDbEntity
8
0
100
AcDbLine
10
20
20
95
30
0
11
25
21
95
31
0
0
LINE
5
282
100
AcDbEntity
8
0
100
AcDbLine
10
110.00000000000001
20
100
30
0
11
110
21
95
31
0
0
LINE
5
283
100
AcDbEntity
8
0
100
AcDbLine
10
60.000000000000007
20
100
30
0
11
60
21
95
31
0
0
LINE
5
284
100
AcDbEntity
8
0
100
AcDbLine
10
20.000000000000007
20
100
30
0
11
20
21
95
31
0
0
LINE
5
285
100
AcDbEntity
8
0
100
AcDbLine
10
105
20
95
30
0
11
105.00000000000006
21
100
31
0
0
LINE
5
286
100
AcDbEntity
8
0
100
AcDbLine
10
135
20
95
30
0
11
135.00000000000006
21
100
31
0
0
LINE
5
287
100
AcDbEntity
8
0
100
AcDbLine
10
155.00000000000003
20
95
30
0
11
154.99999999999997
21
100
31
0
0
LINE
5
288
100
AcDbEntity
8
0
100
AcDbLine
10
170
20
100
30
0
11
170.00000000000003
21
95
31
0
0
LINE
5
289
100
AcDbEntity
8
0
100
AcDbLine
10
115
20
95
30
0
11
115.00000000000006
21
100
31
0
0
LINE
5
290
100
AcDbEntity
8
0
100
AcDbLine
10
195.00000000000003
20
94.999999999999986
30
0
11
195
21
99.999999999999986
31
0
0
LINE
5
291
100
AcDbEntity
8
0
100
AcDbLine
10
165.00000000000003
20
95
30
0
11
165
21
100
31
0
0
LINE
5
292
100
AcDbEntity
8
0
100
AcDbLine
10
90.000000000000014
20
100
30
0
11
90
21
95
31
0
0
LINE
5
293
100
AcDbEntity
8
0
100
AcDbLine
10
160
20
100
30
0
11
160.00000000000003
21
95
31
0
0
LINE
5
294
100
AcDbEntity
8
0
100
AcDbLine
10
10.000000000000011
20
100
30
0
11
10
21
95
31
0
0
LINE
5
295
100
AcDbEntity
8
0
100
AcDbLine
10
120.00000000000001
20
100
30
0
11
120
21
95
31
0
0
LINE
5
296
100
AcDbEntity
8
0
100
AcDbLine
10
145
20
95
30
0
11
145.00000000000006
21
100
31
0
0
LINE
5
297
100
AcDbEntity
8
0
100
AcDbLine
10
185.00000000000003
20
94.999999999999986
30
0
11
185
21
99.999999999999986
31
0
0
LINE
5
298
100
AcDbEntity
8
0
100
AcDbLine
10
140.00000000000003
20
100
30
0
11
140
21
95
31
0
0
LINE
5
299
100
AcDbEntity
8
0
100
AcDbLine
10
55
20
95
30
0
11
55.000000000000043
21
100
31
0
0
LINE
5
300
100
AcDbEntity
8
0
100
AcDbLine
10
5
20
45
30
0
11
0
21
45
31
0
0
LINE
5
301
100
AcDbEntity
8
0
100
AcDbLine
10
5
20
65
30
0
11
0
21
65
31
0
0
LINE
5
302
100
AcDbEntity
8
0
100
AcDbLine
10
140.00000000000003
20
100
30
0
11
135.00000007450581
21
100
31
0
0
LINE
5
303
100
AcDbEntity
8
0
100
AcDbLine
10
190
20
99.999999999999986
30
0
11
194.99999992549422
21
99.999999999999986
31
0
0
LINE
5
304
100
AcDbEntity
8
0
100
AcDbLine
10
5
20
30
30
0
11
5
21
25
31
0
0
LINE
5
305
100
AcDbEntity
8
0
100
AcDbLine
10
0
20
35
30
0
11
0
21
30
31
0
0
LINE
5
306
100
AcDbEntity
8
0
100
AcDbLine
10
120
20
95
30
0
11
125
21
95
31
0
0
LINE
5
307
100
AcDbEntity
8
0
100
AcDbLine
10
190.00000000000003
20
94.999999999999986
30
0
11
185.00000000000003
21
94.999999999999986
31
0
0
LINE
5
308
100
AcDbEntity
8
0
100
AcDbLine
10
50
20
95
30
0
11
55
21
95
31
0
0
LINE
5
309
100
AcDbEntity
8
0
100
AcDbLine
10
100.00000000000001
20
100
30
0
11
95.000000074505806
21
100
31
0
0
LINE
5
310
100
AcDbEntity
8
0
100
AcDbLine
10
120.00000000000001
20
100
30
0
11
115.00000007450581
21
100
31
0
0
LINE
5
311
100
AcDbEntity
8
0
100
AcDbLine
10
80.000000000000014
20
100
30
0
11
75.000000074505806
21
100
31
0
0
LINE
5
312
100
AcDbEntity
8
0
100
AcDbLine
10
0
20
25
30
0
11
0
21
20
31
0
0
LINE
5
313
100
AcDbEntity
8
0
100
AcDbLine
10
90.000000000000014
20
100
30
0
11
85.000000074505806
21
100
31
0
0
LINE
5
314
100
AcDbEntity
8
0
100
AcDbLine
10
170.00000000000003
20
95
30
0
11
165.00000000000003
21
95
31
0
0
LINE
5
315
100
AcDbEntity
8
0
100
AcDbLine
10
30.000000000000007
20
100
30
0
11
25.000000074505806
21
100
31
0
0
LINE
5
316
100
AcDbEntity
8
0
100
AcDbLine
10
80
20
95
30
0
11
85
21
95
31
0
0
LINE
5
317
100
AcDbEntity
8
0
100
AcDbLine
10
180
20
99.999999999999986
30
0
11
184.99999992549422
21
99.999999999999986
31
0
0
LINE
5
318
100
AcDbEntity
8
0
100
AcDbLine
10
170
20
100
30
0
11
174.99999992549422
21
100
31
0
0
LINE
5
319
100
AcDbEntity
8
0
100
AcDbLine
10
0
20
80
30
0
11
5
21
80
31
0
0
LINE
5
320
100
AcDbEntity
8
0
100
AcDbLine
10
160
20
100
30
0
11
164.99999992549422
21
100
31
0
0
LINE
5
321
100
AcDbEntity
8
0
100
AcDbLine
10
110.00000000000001
20
100
30
0
11
105.00000007450581
21
100
31
0
0
LINE
5
322
100
AcDbEntity
8
0
100
AcDbLine
10
180.00000000000003
20
94.999999999999986
30
0
11
175.00000000000003
21
94.999999999999986
31
0
0
LINE
5
323
100
AcDbEntity
8
0
100
AcDbLine
10
100
20
95
30
0
11
105
21
95
31
0
0
LINE
5
324
100
AcDbEntity
8
0
100
AcDbLine
10
154.99999999999997
20
100
30
0
11
150.00000000000003
21
100
31
0
0
LINE
5
325
100
AcDbEntity
8
0
100
AcDbLine
10
110
20
95
30
0
11
115
21
95
31
0
0
LINE
5
326
100
AcDbEntity
8
0
100
AcDbLine
10
5
20
35
30
0
11
0
21
35
31
0
0
LINE
5
327
100
AcDbEntity
8
0
100
AcDbLine
10
0
20
85
30
0
11
0
21
80
31
0
0
LINE
5
328
100
AcDbEntity
8
0
100
AcDbLine
10
5
20
90
30
0
11
5
21
85
31
0
0
LINE
5
329
100
AcDbEntity
8
0
100
AcDbLine
10
0
20
15
30
0
11
0
21
10
31
0
0
LINE
5
330
100
AcDbEntity
8
0
100
AcDbLine
10
0
20
50
30
0
11
5
21
50
31
0
0
LINE
5
331
100
AcDbEntity
8
0
100
AcDbLine
10
30.000000000000007
20
100
30
0
11
30
21
95
31
0
0
LINE
5
332
100
AcDbEntity
8
0
100
AcDbLine
10
200
20
99.999999999999986
30
0
11
300.00000000000006
21
99.999999999999943
31
0
0
LINE
5
333
100
AcDbEntity
8
0
100
AcDbLine
10
300.00000000000006
20
-99.999999999999943
30
0
11
300.00000000000006
21
99.999999999999943
31
0
0
LINE
5
334
100
AcDbEntity
8
0
100
AcDbLine
10
300.00000000000006
20
-99.999999999999943
30
0
11
200
21
-99.999999999999986
31
0
0
ENDSEC
0
SECTION
2
OBJECTS
0
DICTIONARY
5
C
100
AcDbDictionary
3
ACAD_GROUP
350
D
3
ACAD_MLINESTYLE
350
17
0
DICTIONARY
5
D
100
AcDbDictionary
0
DICTIONARY
5
1A
330
C
100
AcDbDictionary
0
DICTIONARY
5
17
100
AcDbDictionary
0
ENDSEC
0
EOF
