999
"DXF R12 Output" (www.mydxf.blogspot.com)
 0 
SECTION
 2 
HEADER
 9 
$ACADVER
 1 
AC1009
 9 
$EXTMIN
 10 
 0 
 20 
 0 
 9 
$EXTMAX
 10 
 8.5 
 20 
 11 
 0 
ENDSEC
 0 
SECTION
 2 
ENTITIES
0
LINE
8
Layer 1
10
0.793749
20
252.058749
11
-0.793749
21
250.471251
0
LINE
8
Layer 1
10
0.000000
20
252.587915
11
0.000000
21
249.942085
0
LINE
8
Layer 1
10
2.116664
20
250.206668
11
1.058332
21
249.148336
0
LINE
8
Layer 1
10
1.587498
20
250.735834
11
0.529166
21
249.677502
0
LINE
8
Layer 1
10
1.058332
20
251.265000
11
0.000000
21
250.206668
0
LINE
8
0
10
133.223841
20
231.684744
11
133.002783
21
232.509743
0
LINE
8
0
10
133.002783
20
232.509743
11
132.398841
21
233.113685
0
LINE
8
0
10
132.398841
20
233.113685
11
131.573842
21
233.334743
0
LINE
8
0
10
131.573842
20
233.334743
11
130.748842
21
233.113685
0
LINE
8
0
10
130.748842
20
233.113685
11
130.144900
21
232.509743
0
LINE
8
0
10
130.144900
20
232.509743
11
129.923842
21
231.684744
0
LINE
8
0
10
129.923842
20
231.684744
11
130.144900
21
230.859744
0
LINE
8
0
10
130.144900
20
230.859744
11
130.748842
21
230.255803
0
LINE
8
0
10
130.748842
20
230.255803
11
131.573842
21
230.034745
0
LINE
8
0
10
131.573842
20
230.034745
11
132.398841
21
230.255803
0
LINE
8
0
10
132.398841
20
230.255803
11
133.002783
21
230.859744
0
LINE
8
0
10
133.002783
20
230.859744
11
133.223841
21
231.684744
0
LINE
8
0
10
133.223841
20
231.684744
11
133.223841
21
231.684744
0
LINE
8
0
10
133.223841
20
225.184760
11
133.002783
21
226.009759
0
LINE
8
0
10
133.002783
20
226.009759
11
132.398841
21
226.613701
0
LINE
8
0
10
132.398841
20
226.613701
11
131.573842
21
226.834759
0
LINE
8
0
10
131.573842
20
226.834759
11
130.748842
21
226.613701
0
LINE
8
0
10
130.748842
20
226.613701
11
130.144900
21
226.009759
0
LINE
8
0
10
130.144900
20
226.009759
11
129.923842
21
225.184760
0
LINE
8
0
10
129.923842
20
225.184760
11
130.144900
21
224.359760
0
LINE
8
0
10
130.144900
20
224.359760
11
130.748842
21
223.755819
0
LINE
8
0
10
130.748842
20
223.755819
11
131.573842
21
223.534761
0
LINE
8
0
10
131.573842
20
223.534761
11
132.398841
21
223.755819
0
LINE
8
0
10
132.398841
20
223.755819
11
133.002783
21
224.359760
0
LINE
8
0
10
133.002783
20
224.359760
11
133.223841
21
225.184760
0
LINE
8
0
10
133.223841
20
225.184760
11
133.223841
21
225.184760
0
LINE
8
0
10
114.132148
20
232.632401
11
114.132148
21
17.632678
0
LINE
8
0
10
114.132148
20
17.632678
11
86.132184
21
17.632678
0
LINE
8
0
10
86.132184
20
17.632678
11
86.132184
21
232.632401
0
LINE
8
0
10
86.132184
20
232.632401
11
114.132148
21
232.632401
0
LINE
8
0
10
168.132652
20
250.132370
11
168.132123
21
250.132370
0
LINE
8
0
10
168.132123
20
250.132370
11
0.132292
21
250.132370
0
LINE
8
0
10
0.132292
20
250.132370
11
0.132292
21
0.132682
0
LINE
8
0
10
0.132292
20
0.132682
11
200.132040
21
0.132682
0
LINE
8
0
10
200.132040
20
0.132682
11
200.132040
21
250.132370
0
LINE
8
0
10
200.132040
20
250.132370
11
168.132652
21
250.132370
0
LINE
8
0
10
0.132292
20
236.232396
11
0.132292
21
231.032388
0
LINE
8
0
10
0.132292
20
231.032388
11
0.132292
21
200.132427
0
LINE
8
0
10
0.132292
20
200.132427
11
0.132292
21
195.132444
0
LINE
8
0
10
0.132292
20
195.132444
11
0.132292
21
5.132693
0
LINE
8
0
10
0.132292
20
5.132693
11
0.132292
21
0.132682
0
LINE
8
0
10
0.132292
20
0.132682
11
93.132174
21
0.132682
0
LINE
8
0
10
93.132174
20
0.132682
11
107.132158
21
0.132682
0
LINE
8
0
10
107.132158
20
0.132682
11
200.132040
21
0.132682
0
LINE
8
0
10
200.132040
20
0.132682
11
200.132040
21
5.132693
0
LINE
8
0
10
200.132040
20
5.132693
11
200.132040
21
195.132444
0
LINE
8
0
10
200.132040
20
195.132444
11
200.132040
21
200.132427
0
LINE
8
0
10
200.132040
20
200.132427
11
200.132040
21
250.132370
0
LINE
8
0
10
200.132040
20
250.132370
11
85.132184
21
250.132370
0
LINE
8
0
10
85.132184
20
250.132370
11
0.132292
21
250.132370
0
LINE
8
0
10
0.132292
20
250.132370
11
0.132292
21
236.232396
0
LINE
8
0
10
114.132148
20
232.632401
11
86.132184
21
232.632401
0
LINE
8
0
10
86.132184
20
232.632401
11
86.132184
21
17.632678
0
LINE
8
0
10
86.132184
20
17.632678
11
114.132148
21
17.632678
0
LINE
8
0
10
114.132148
20
17.632678
11
114.132148
21
232.632401
0
LINE
8
0
10
133.223841
20
231.684744
11
133.002783
21
232.509743
0
LINE
8
0
10
133.002783
20
232.509743
11
132.398841
21
233.113685
0
LINE
8
0
10
132.398841
20
233.113685
11
131.573842
21
233.334743
0
LINE
8
0
10
131.573842
20
233.334743
11
130.748842
21
233.113685
0
LINE
8
0
10
130.748842
20
233.113685
11
130.144900
21
232.509743
0
LINE
8
0
10
130.144900
20
232.509743
11
129.923842
21
231.684744
0
LINE
8
0
10
129.923842
20
231.684744
11
130.144900
21
230.859744
0
LINE
8
0
10
130.144900
20
230.859744
11
130.748842
21
230.255803
0
LINE
8
0
10
130.748842
20
230.255803
11
131.573842
21
230.034745
0
LINE
8
0
10
131.573842
20
230.034745
11
132.398841
21
230.255803
0
LINE
8
0
10
132.398841
20
230.255803
11
133.002783
21
230.859744
0
LINE
8
0
10
133.002783
20
230.859744
11
133.223841
21
231.684744
0
LINE
8
0
10
133.223841
20
231.684744
11
133.223841
21
231.684744
0
LINE
8
0
10
133.223841
20
225.184760
11
133.002783
21
226.009759
0
LINE
8
0
10
133.002783
20
226.009759
11
132.398841
21
226.613701
0
LINE
8
0
10
132.398841
20
226.613701
11
131.573842
21
226.834759
0
LINE
8
0
10
131.573842
20
226.834759
11
130.748842
21
226.613701
0
LINE
8
0
10
130.748842
20
226.613701
11
130.144900
21
226.009759
0
LINE
8
0
10
130.144900
20
226.009759
11
129.923842
21
225.184760
0
LINE
8
0
10
129.923842
20
225.184760
11
130.144900
21
224.359760
0
LINE
8
0
10
130.144900
20
224.359760
11
130.748842
21
223.755819
0
LINE
8
0
10
130.748842
20
223.755819
11
131.573842
21
223.534761
0
LINE
8
0
10
131.573842
20
223.534761
11
132.398841
21
223.755819
0
LINE
8
0
10
132.398841
20
223.755819
11
133.002783
21
224.359760
0
LINE
8
0
10
133.002783
20
224.359760
11
133.223841
21
225.184760
0
LINE
8
0
10
133.223841
20
225.184760
11
133.223841
21
225.184760
0
LINE
8
0
10
12.132277
20
205.686845
11
8.282282
21
207.909633
0
LINE
8
0
10
8.282282
20
207.909633
11
8.282282
21
212.355209
0
LINE
8
0
10
8.282282
20
212.355209
11
12.132277
21
214.578024
0
LINE
8
0
10
12.132277
20
214.578024
11
15.982272
21
212.355209
0
LINE
8
0
10
15.982272
20
212.355209
11
15.982272
21
207.909633
0
LINE
8
0
10
15.982272
20
207.909633
11
12.132277
21
205.686845
0
LINE
8
0
10
80.882190
20
209.232416
11
80.790766
21
210.139322
0
LINE
8
0
10
80.790766
20
210.139322
11
80.528558
21
210.984017
0
LINE
8
0
10
80.528558
20
210.984017
11
80.113662
21
211.748405
0
LINE
8
0
10
80.113662
20
211.748405
11
79.564172
21
212.414392
0
LINE
8
0
10
79.564172
20
212.414392
11
78.898185
21
212.963882
0
LINE
8
0
10
78.898185
20
212.963882
11
78.133796
21
213.378778
0
LINE
8
0
10
78.133796
20
213.378778
11
77.289101
21
213.640986
0
LINE
8
0
10
77.289101
20
213.640986
11
76.382196
21
213.732410
0
LINE
8
0
10
76.382196
20
213.732410
11
75.475290
21
213.640986
0
LINE
8
0
10
75.475290
20
213.640986
11
74.630595
21
213.378778
0
LINE
8
0
10
74.630595
20
213.378778
11
73.866206
21
212.963882
0
LINE
8
0
10
73.866206
20
212.963882
11
73.200219
21
212.414392
0
LINE
8
0
10
73.200219
20
212.414392
11
72.650729
21
211.748405
0
LINE
8
0
10
72.650729
20
211.748405
11
72.235833
21
210.984017
0
LINE
8
0
10
72.235833
20
210.984017
11
71.973625
21
210.139322
0
LINE
8
0
10
71.973625
20
210.139322
11
71.882201
21
209.232416
0
LINE
8
0
10
71.882201
20
209.232416
11
72.037970
21
208.058288
0
LINE
8
0
10
72.037970
20
208.058288
11
72.485086
21
206.982418
0
LINE
8
0
10
72.485086
20
206.982418
11
73.193258
21
206.057270
0
LINE
8
0
10
73.193258
20
206.057270
11
74.132198
21
205.335306
0
LINE
8
0
10
74.132198
20
205.335306
11
75.226908
21
204.883142
0
LINE
8
0
10
75.226908
20
204.883142
11
76.382196
21
204.732421
0
LINE
8
0
10
76.382196
20
204.732421
11
77.537483
21
204.883142
0
LINE
8
0
10
77.537483
20
204.883142
11
78.632193
21
205.335306
0
LINE
8
0
10
78.632193
20
205.335306
11
79.571133
21
206.057270
0
LINE
8
0
10
79.571133
20
206.057270
11
80.279305
21
206.982418
0
LINE
8
0
10
80.279305
20
206.982418
11
80.726421
21
208.058288
0
LINE
8
0
10
80.726421
20
208.058288
11
80.882190
21
209.232416
0
LINE
8
0
10
80.882190
20
209.232416
11
80.882190
21
209.232416
0
LINE
8
0
10
75.282198
20
216.909609
11
75.282198
21
221.355212
0
LINE
8
0
10
75.282198
20
221.355212
11
79.132193
21
223.578000
0
LINE
8
0
10
79.132193
20
223.578000
11
82.982188
21
221.355212
0
LINE
8
0
10
82.982188
20
221.355212
11
82.982188
21
216.909609
0
LINE
8
0
10
82.982188
20
216.909609
11
79.132193
21
214.686821
0
LINE
8
0
10
79.132193
20
214.686821
11
75.282198
21
216.909609
0
LINE
8
0
10
104.082161
20
237.632385
11
103.945430
21
238.663008
0
LINE
8
0
10
103.945430
20
238.663008
11
103.552962
21
239.607382
0
LINE
8
0
10
103.552962
20
239.607382
11
102.931344
21
240.419457
0
LINE
8
0
10
102.931344
20
240.419457
11
102.107163
21
241.053181
0
LINE
8
0
10
102.107163
20
241.053181
11
101.146252
21
241.450080
0
LINE
8
0
10
101.146252
20
241.450080
11
100.132166
21
241.582380
0
LINE
8
0
10
100.132166
20
241.582380
11
99.118080
21
241.450080
0
LINE
8
0
10
99.118080
20
241.450080
11
98.157168
21
241.053181
0
LINE
8
0
10
98.157168
20
241.053181
11
97.332987
21
240.419457
0
LINE
8
0
10
97.332987
20
240.419457
11
96.711369
21
239.607382
0
LINE
8
0
10
96.711369
20
239.607382
11
96.318901
21
238.663008
0
LINE
8
0
10
96.318901
20
238.663008
11
96.182170
21
237.632385
0
LINE
8
0
10
96.182170
20
237.632385
11
96.318901
21
236.601761
0
LINE
8
0
10
96.318901
20
236.601761
11
96.711369
21
235.657387
0
LINE
8
0
10
96.711369
20
235.657387
11
97.332987
21
234.845312
0
LINE
8
0
10
97.332987
20
234.845312
11
98.157168
21
234.211588
0
LINE
8
0
10
98.157168
20
234.211588
11
99.118080
21
233.814689
0
LINE
8
0
10
99.118080
20
233.814689
11
100.132166
21
233.682389
0
LINE
8
0
10
100.132166
20
233.682389
11
101.146252
21
233.814689
0
LINE
8
0
10
101.146252
20
233.814689
11
102.107163
21
234.211588
0
LINE
8
0
10
102.107163
20
234.211588
11
102.931344
21
234.845312
0
LINE
8
0
10
102.931344
20
234.845312
11
103.552962
21
235.657387
0
LINE
8
0
10
103.552962
20
235.657387
11
103.945430
21
236.601761
0
LINE
8
0
10
103.945430
20
236.601761
11
104.082161
21
237.632385
0
LINE
8
0
10
104.082161
20
237.632385
11
104.082161
21
237.632385
0
LINE
8
0
10
127.182133
20
241.682383
11
127.092133
21
242.360768
0
LINE
8
0
10
127.092133
20
242.360768
11
126.833799
21
242.982382
0
LINE
8
0
10
126.833799
20
242.982382
11
126.424633
21
243.516912
0
LINE
8
0
10
126.424633
20
243.516912
11
125.882134
21
243.934047
0
LINE
8
0
10
125.882134
20
243.934047
11
125.249635
21
244.195297
0
LINE
8
0
10
125.249635
20
244.195297
11
124.582135
21
244.282381
0
LINE
8
0
10
124.582135
20
244.282381
11
123.914635
21
244.195297
0
LINE
8
0
10
123.914635
20
244.195297
11
123.282136
21
243.934047
0
LINE
8
0
10
123.282136
20
243.934047
11
122.739638
21
243.516912
0
LINE
8
0
10
122.739638
20
243.516912
11
122.330471
21
242.982382
0
LINE
8
0
10
122.330471
20
242.982382
11
122.072138
21
242.360768
0
LINE
8
0
10
122.072138
20
242.360768
11
121.982138
21
241.682383
0
LINE
8
0
10
121.982138
20
241.682383
11
122.072138
21
241.003998
0
LINE
8
0
10
122.072138
20
241.003998
11
122.330471
21
240.382384
0
LINE
8
0
10
122.330471
20
240.382384
11
122.739638
21
239.847854
0
LINE
8
0
10
122.739638
20
239.847854
11
123.282136
21
239.430719
0
LINE
8
0
10
123.282136
20
239.430719
11
123.914635
21
239.169469
0
LINE
8
0
10
123.914635
20
239.169469
11
124.582135
21
239.082385
0
LINE
8
0
10
124.582135
20
239.082385
11
125.249635
21
239.169469
0
LINE
8
0
10
125.249635
20
239.169469
11
125.882134
21
239.430719
0
LINE
8
0
10
125.882134
20
239.430719
11
126.424633
21
239.847854
0
LINE
8
0
10
126.424633
20
239.847854
11
126.833799
21
240.382384
0
LINE
8
0
10
126.833799
20
240.382384
11
127.092133
21
241.003998
0
LINE
8
0
10
127.092133
20
241.003998
11
127.182133
21
241.682383
0
LINE
8
0
10
127.182133
20
241.682383
11
127.182133
21
241.682383
0
LINE
8
0
10
137.182119
20
214.032428
11
136.977321
21
215.043931
0
LINE
8
0
10
136.977321
20
215.043931
11
136.420011
21
215.869831
0
LINE
8
0
10
136.420011
20
215.869831
11
135.593756
21
216.426613
0
LINE
8
0
10
135.593756
20
216.426613
11
134.582123
21
216.630766
0
LINE
8
0
10
134.582123
20
216.630766
11
133.570489
21
216.426613
0
LINE
8
0
10
133.570489
20
216.426613
11
132.744234
21
215.869831
0
LINE
8
0
10
132.744234
20
215.869831
11
132.186924
21
215.043931
0
LINE
8
0
10
132.186924
20
215.043931
11
131.982126
21
214.032428
0
LINE
8
0
10
131.982126
20
214.032428
11
132.186924
21
213.020924
0
LINE
8
0
10
132.186924
20
213.020924
11
132.744234
21
212.195025
0
LINE
8
0
10
132.744234
20
212.195025
11
133.570489
21
211.638242
0
LINE
8
0
10
133.570489
20
211.638242
11
134.582123
21
211.434090
0
LINE
8
0
10
134.582123
20
211.434090
11
135.593756
21
211.638242
0
LINE
8
0
10
135.593756
20
211.638242
11
136.420011
21
212.195025
0
LINE
8
0
10
136.420011
20
212.195025
11
136.977321
21
213.020924
0
LINE
8
0
10
136.977321
20
213.020924
11
137.182119
21
214.032428
0
LINE
8
0
10
137.182119
20
214.032428
11
137.182119
21
214.032428
0
LINE
8
0
10
168.132178
20
250.132291
11
168.131385
21
250.132291
0
LINE
8
0
10
161.641907
20
244.989512
11
158.948155
21
243.766279
0
LINE
8
0
10
158.948155
20
243.766279
11
156.518926
21
242.171507
0
LINE
8
0
10
156.518926
20
242.171507
11
154.383391
21
240.246835
0
LINE
8
0
10
154.383391
20
240.246835
11
152.570721
21
238.033903
0
LINE
8
0
10
152.570721
20
238.033903
11
151.110087
21
235.574353
0
LINE
8
0
10
151.110087
20
235.574353
11
150.030660
21
232.909825
0
LINE
8
0
10
150.030660
20
232.909825
11
149.361612
21
230.081959
0
LINE
8
0
10
149.361612
20
230.081959
11
149.132114
21
227.132395
0
LINE
8
0
10
149.132114
20
227.132395
11
149.361612
21
224.182831
0
LINE
8
0
10
149.361612
20
224.182831
11
150.030660
21
221.354965
0
LINE
8
0
10
150.030660
20
221.354965
11
151.110087
21
218.690436
0
LINE
8
0
10
151.110087
20
218.690436
11
152.570721
21
216.230886
0
LINE
8
0
10
152.570721
20
216.230886
11
154.383391
21
214.017955
0
LINE
8
0
10
154.383391
20
214.017955
11
156.518926
21
212.093283
0
LINE
8
0
10
156.518926
20
212.093283
11
158.948155
21
210.498511
0
LINE
8
0
10
158.948155
20
210.498511
11
161.641907
21
209.275278
0
LINE
8
0
10
161.641907
20
209.275278
11
161.839656
21
207.998287
0
LINE
8
0
10
161.839656
20
207.998287
11
162.270653
21
206.819361
0
LINE
8
0
10
162.270653
20
206.819361
11
162.909108
21
205.762245
0
LINE
8
0
10
162.909108
20
205.762245
11
163.729236
21
204.850684
0
LINE
8
0
10
163.729236
20
204.850684
11
164.705248
21
204.108421
0
LINE
8
0
10
164.705248
20
204.108421
11
165.811357
21
203.559202
0
LINE
8
0
10
165.811357
20
203.559202
11
167.021775
21
203.226769
0
LINE
8
0
10
167.021775
20
203.226769
11
168.310715
21
203.134868
0
LINE
8
0
10
168.310715
20
203.134868
11
169.592659
21
203.297449
0
LINE
8
0
10
169.592659
20
203.297449
11
170.782983
21
203.695885
0
LINE
8
0
10
170.782983
20
203.695885
11
171.857245
21
204.305049
0
LINE
8
0
10
171.857245
20
204.305049
11
172.791000
21
205.099816
0
LINE
8
0
10
172.791000
20
205.099816
11
173.559805
21
206.055061
0
LINE
8
0
10
173.559805
20
206.055061
11
174.139214
21
207.145659
0
LINE
8
0
10
174.139214
20
207.145659
11
174.504785
21
208.346485
0
LINE
8
0
10
174.504785
20
208.346485
11
174.632072
21
209.632412
0
LINE
8
0
10
174.632072
20
209.632412
11
174.632072
21
211.424142
0
LINE
8
0
10
174.632072
20
211.424142
11
176.659309
21
212.425739
0
LINE
8
0
10
176.659309
20
212.425739
11
178.527871
21
213.681495
0
LINE
8
0
10
178.527871
20
213.681495
11
180.214120
21
215.173141
0
LINE
8
0
10
180.214120
20
215.173141
11
181.694420
21
216.882410
0
LINE
8
0
10
181.694420
20
216.882410
11
188.132055
21
216.882410
0
LINE
8
0
10
188.132055
20
216.882410
11
188.132055
21
237.382380
0
LINE
8
0
10
188.132055
20
237.382380
11
181.694420
21
237.382380
0
LINE
8
0
10
181.694420
20
237.382380
11
180.214122
21
239.091656
0
LINE
8
0
10
180.214122
20
239.091656
11
178.527873
21
240.583309
0
LINE
8
0
10
178.527873
20
240.583309
11
176.659311
21
241.839071
0
LINE
8
0
10
176.659311
20
241.839071
11
174.632072
21
242.840674
0
LINE
8
0
10
174.632072
20
242.840674
11
174.632072
21
244.632378
0
LINE
8
0
10
174.632072
20
244.632378
11
174.506021
21
245.906387
0
LINE
8
0
10
174.506021
20
245.906387
11
174.137285
21
247.119821
0
LINE
8
0
10
174.137285
20
247.119821
11
173.539989
21
248.238581
0
LINE
8
0
10
173.539989
20
248.238581
11
172.728257
21
249.228570
0
LINE
8
0
10
172.728257
20
249.228570
11
171.738263
21
250.040298
0
LINE
8
0
10
171.738263
20
250.040298
11
170.619500
21
250.637588
0
LINE
8
0
10
170.619500
20
250.637588
11
169.406064
21
251.006317
0
LINE
8
0
10
169.406064
20
251.006317
11
168.132054
21
251.132362
0
LINE
8
0
10
168.132054
20
251.132362
11
168.131525
21
251.132362
0
LINE
8
0
10
168.131525
20
251.132362
11
166.869688
21
251.009636
0
LINE
8
0
10
166.869688
20
251.009636
11
165.688380
21
250.656936
0
LINE
8
0
10
165.688380
20
250.656936
11
164.611713
21
250.097087
0
LINE
8
0
10
164.611713
20
250.097087
11
163.663803
21
249.352915
0
LINE
8
0
10
163.663803
20
249.352915
11
162.868763
21
248.447246
0
LINE
8
0
10
162.868763
20
248.447246
11
162.250707
21
247.402905
0
LINE
8
0
10
162.250707
20
247.402905
11
161.833748
21
246.242718
0
LINE
8
0
10
161.833748
20
246.242718
11
161.642002
21
244.989512
0
LINE
8
0
10
161.642002
20
244.989512
11
161.641907
21
244.989512
0
LINE
8
0
10
128.532131
20
13.582680
11
128.451881
21
14.378742
0
LINE
8
0
10
128.451881
20
14.378742
11
128.221720
21
15.120196
0
LINE
8
0
10
128.221720
20
15.120196
11
127.375204
21
16.375748
0
LINE
8
0
10
127.375204
20
16.375748
11
126.119652
21
17.222265
0
LINE
8
0
10
126.119652
20
17.222265
11
125.378197
21
17.452425
0
LINE
8
0
10
125.378197
20
17.452425
11
124.582135
21
17.532675
0
LINE
8
0
10
124.582135
20
17.532675
11
123.786073
21
17.452425
0
LINE
8
0
10
123.786073
20
17.452425
11
123.044619
21
17.222265
0
LINE
8
0
10
123.044619
20
17.222265
11
121.789067
21
16.375748
0
LINE
8
0
10
121.789067
20
16.375748
11
120.942550
21
15.120196
0
LINE
8
0
10
120.942550
20
15.120196
11
120.712390
21
14.378742
0
LINE
8
0
10
120.712390
20
14.378742
11
120.632140
21
13.582680
0
LINE
8
0
10
120.632140
20
13.582680
11
120.712390
21
12.786618
0
LINE
8
0
10
120.712390
20
12.786618
11
120.942550
21
12.045164
0
LINE
8
0
10
120.942550
20
12.045164
11
121.789067
21
10.789612
0
LINE
8
0
10
121.789067
20
10.789612
11
123.044619
21
9.943095
0
LINE
8
0
10
123.044619
20
9.943095
11
123.786073
21
9.712935
0
LINE
8
0
10
123.786073
20
9.712935
11
124.582135
21
9.632685
0
LINE
8
0
10
124.582135
20
9.632685
11
125.378197
21
9.712935
0
LINE
8
0
10
125.378197
20
9.712935
11
126.119652
21
9.943095
0
LINE
8
0
10
126.119652
20
9.943095
11
127.375204
21
10.789612
0
LINE
8
0
10
127.375204
20
10.789612
11
128.221720
21
12.045164
0
LINE
8
0
10
128.221720
20
12.045164
11
128.451881
21
12.786618
0
LINE
8
0
10
128.451881
20
12.786618
11
128.532131
21
13.582680
0
LINE
8
0
10
128.532131
20
13.582680
11
128.532131
21
13.582680
0
LINE
8
0
10
104.082161
20
12.632668
11
103.945430
21
13.663292
0
LINE
8
0
10
103.945430
20
13.663292
11
103.552962
21
14.607666
0
LINE
8
0
10
103.552962
20
14.607666
11
102.931344
21
15.419740
0
LINE
8
0
10
102.931344
20
15.419740
11
102.107163
21
16.053464
0
LINE
8
0
10
102.107163
20
16.053464
11
101.146252
21
16.450364
0
LINE
8
0
10
101.146252
20
16.450364
11
100.132166
21
16.582664
0
LINE
8
0
10
100.132166
20
16.582664
11
99.118080
21
16.450364
0
LINE
8
0
10
99.118080
20
16.450364
11
98.157168
21
16.053464
0
LINE
8
0
10
98.157168
20
16.053464
11
97.332987
21
15.419740
0
LINE
8
0
10
97.332987
20
15.419740
11
96.711369
21
14.607666
0
LINE
8
0
10
96.711369
20
14.607666
11
96.318901
21
13.663292
0
LINE
8
0
10
96.318901
20
13.663292
11
96.182170
21
12.632668
0
LINE
8
0
10
96.182170
20
12.632668
11
96.318901
21
11.602045
0
LINE
8
0
10
96.318901
20
11.602045
11
96.711369
21
10.657671
0
LINE
8
0
10
96.711369
20
10.657671
11
97.332987
21
9.845596
0
LINE
8
0
10
97.332987
20
9.845596
11
98.157168
21
9.211872
0
LINE
8
0
10
98.157168
20
9.211872
11
99.118080
21
8.814973
0
LINE
8
0
10
99.118080
20
8.814973
11
100.132166
21
8.682673
0
LINE
8
0
10
100.132166
20
8.682673
11
101.146252
21
8.814973
0
LINE
8
0
10
101.146252
20
8.814973
11
102.107163
21
9.211872
0
LINE
8
0
10
102.107163
20
9.211872
11
102.931344
21
9.845596
0
LINE
8
0
10
102.931344
20
9.845596
11
103.552962
21
10.657671
0
LINE
8
0
10
103.552962
20
10.657671
11
103.945430
21
11.602045
0
LINE
8
0
10
103.945430
20
11.602045
11
104.082161
21
12.632668
0
LINE
8
0
10
104.082161
20
12.632668
11
104.082161
21
12.632668
0
LINE
8
0
10
133.223841
20
225.184760
11
133.002783
21
226.009759
0
LINE
8
0
10
133.002783
20
226.009759
11
132.398841
21
226.613701
0
LINE
8
0
10
132.398841
20
226.613701
11
131.573842
21
226.834759
0
LINE
8
0
10
131.573842
20
226.834759
11
130.748842
21
226.613701
0
LINE
8
0
10
130.748842
20
226.613701
11
130.144900
21
226.009759
0
LINE
8
0
10
130.144900
20
226.009759
11
129.923842
21
225.184760
0
LINE
8
0
10
129.923842
20
225.184760
11
130.144900
21
224.359760
0
LINE
8
0
10
130.144900
20
224.359760
11
130.748842
21
223.755819
0
LINE
8
0
10
130.748842
20
223.755819
11
131.573842
21
223.534761
0
LINE
8
0
10
131.573842
20
223.534761
11
132.398841
21
223.755819
0
LINE
8
0
10
132.398841
20
223.755819
11
133.002783
21
224.359760
0
LINE
8
0
10
133.002783
20
224.359760
11
133.223841
21
225.184760
0
LINE
8
0
10
133.223841
20
225.184760
11
133.223841
21
225.184760
0
LINE
8
0
10
133.223841
20
231.684744
11
133.002783
21
232.509743
0
LINE
8
0
10
133.002783
20
232.509743
11
132.398841
21
233.113685
0
LINE
8
0
10
132.398841
20
233.113685
11
131.573842
21
233.334743
0
LINE
8
0
10
131.573842
20
233.334743
11
130.748842
21
233.113685
0
LINE
8
0
10
130.748842
20
233.113685
11
130.144900
21
232.509743
0
LINE
8
0
10
130.144900
20
232.509743
11
129.923842
21
231.684744
0
LINE
8
0
10
129.923842
20
231.684744
11
130.144900
21
230.859744
0
LINE
8
0
10
130.144900
20
230.859744
11
130.748842
21
230.255803
0
LINE
8
0
10
130.748842
20
230.255803
11
131.573842
21
230.034745
0
LINE
8
0
10
131.573842
20
230.034745
11
132.398841
21
230.255803
0
LINE
8
0
10
132.398841
20
230.255803
11
133.002783
21
230.859744
0
LINE
8
0
10
133.002783
20
230.859744
11
133.223841
21
231.684744
0
LINE
8
0
10
133.223841
20
231.684744
11
133.223841
21
231.684744
0
LINE
8
0
10
0.132292
20
0.133106
11
200.132169
21
0.133106
0
LINE
8
0
10
200.132169
20
0.133106
11
200.132169
21
250.132291
0
LINE
8
0
10
200.132169
20
250.132291
11
0.132292
21
250.132291
0
LINE
8
0
10
0.132292
20
250.132291
11
0.132292
21
0.133106
0
LINE
8
0
10
4.782286
20
10.132676
11
4.652621
21
10.774930
0
LINE
8
0
10
4.652621
20
10.774930
11
4.299013
21
11.299401
0
LINE
8
0
10
4.299013
20
11.299401
11
3.774542
21
11.653009
0
LINE
8
0
10
3.774542
20
11.653009
11
3.132288
21
11.782674
0
LINE
8
0
10
3.132288
20
11.782674
11
2.490035
21
11.653009
0
LINE
8
0
10
2.490035
20
11.653009
11
1.965563
21
11.299401
0
LINE
8
0
10
1.965563
20
11.299401
11
1.611955
21
10.774930
0
LINE
8
0
10
1.611955
20
10.774930
11
1.482290
21
10.132676
0
LINE
8
0
10
1.482290
20
10.132676
11
1.611955
21
9.490423
0
LINE
8
0
10
1.611955
20
9.490423
11
1.965563
21
8.965952
0
LINE
8
0
10
1.965563
20
8.965952
11
2.490035
21
8.612343
0
LINE
8
0
10
2.490035
20
8.612343
11
3.132288
21
8.482678
0
LINE
8
0
10
3.132288
20
8.482678
11
3.774542
21
8.612343
0
LINE
8
0
10
3.774542
20
8.612343
11
4.299013
21
8.965952
0
LINE
8
0
10
4.299013
20
8.965952
11
4.652621
21
9.490423
0
LINE
8
0
10
4.652621
20
9.490423
11
4.782286
21
10.132676
0
LINE
8
0
10
4.782286
20
10.132676
11
4.782286
21
10.132676
0
LINE
8
0
10
0.132292
20
0.133106
11
0.132292
21
5.133724
0
LINE
8
0
10
4.782286
20
10.132676
11
4.652621
21
10.774930
0
LINE
8
0
10
4.652621
20
10.774930
11
4.299013
21
11.299401
0
LINE
8
0
10
4.299013
20
11.299401
11
3.774542
21
11.653009
0
LINE
8
0
10
3.774542
20
11.653009
11
3.132288
21
11.782674
0
LINE
8
0
10
3.132288
20
11.782674
11
2.490035
21
11.653009
0
LINE
8
0
10
2.490035
20
11.653009
11
1.965563
21
11.299401
0
LINE
8
0
10
1.965563
20
11.299401
11
1.611955
21
10.774930
0
LINE
8
0
10
1.611955
20
10.774930
11
1.482290
21
10.132676
0
LINE
8
0
10
1.482290
20
10.132676
11
1.611955
21
9.490423
0
LINE
8
0
10
1.611955
20
9.490423
11
1.965563
21
8.965952
0
LINE
8
0
10
1.965563
20
8.965952
11
2.490035
21
8.612343
0
LINE
8
0
10
2.490035
20
8.612343
11
3.132288
21
8.482678
0
LINE
8
0
10
3.132288
20
8.482678
11
3.774542
21
8.612343
0
LINE
8
0
10
3.774542
20
8.612343
11
4.299013
21
8.965952
0
LINE
8
0
10
4.299013
20
8.965952
11
4.652621
21
9.490423
0
LINE
8
0
10
4.652621
20
9.490423
11
4.782286
21
10.132676
0
LINE
8
0
10
4.782286
20
10.132676
11
4.782286
21
10.132676
0
LINE
8
0
10
198.782042
20
10.132676
11
198.652187
21
10.774718
0
LINE
8
0
10
198.652187
20
10.774718
11
198.298535
21
11.298974
0
LINE
8
0
10
198.298535
20
11.298974
11
197.774138
21
11.652415
0
LINE
8
0
10
197.774138
20
11.652415
11
197.132044
21
11.782014
0
LINE
8
0
10
197.132044
20
11.782014
11
196.489951
21
11.652415
0
LINE
8
0
10
196.489951
20
11.652415
11
195.965553
21
11.298974
0
LINE
8
0
10
195.965553
20
11.298974
11
195.611901
21
10.774718
0
LINE
8
0
10
195.611901
20
10.774718
11
195.482046
21
10.132676
0
LINE
8
0
10
195.482046
20
10.132676
11
195.611901
21
9.490635
0
LINE
8
0
10
195.611901
20
9.490635
11
195.965553
21
8.966379
0
LINE
8
0
10
195.965553
20
8.966379
11
196.489951
21
8.612937
0
LINE
8
0
10
196.489951
20
8.612937
11
197.132044
21
8.483339
0
LINE
8
0
10
197.132044
20
8.483339
11
197.774138
21
8.612937
0
LINE
8
0
10
197.774138
20
8.612937
11
198.298535
21
8.966379
0
LINE
8
0
10
198.298535
20
8.966379
11
198.652187
21
9.490635
0
LINE
8
0
10
198.652187
20
9.490635
11
198.782042
21
10.132676
0
LINE
8
0
10
198.782042
20
10.132676
11
198.782042
21
10.132676
0
LINE
8
0
10
44.782237
20
190.132460
11
44.561179
21
190.957460
0
LINE
8
0
10
44.561179
20
190.957460
11
43.957237
21
191.561401
0
LINE
8
0
10
43.957237
20
191.561401
11
43.132238
21
191.782459
0
LINE
8
0
10
43.132238
20
191.782459
11
42.307238
21
191.561401
0
LINE
8
0
10
42.307238
20
191.561401
11
41.703297
21
190.957460
0
LINE
8
0
10
41.703297
20
190.957460
11
41.482239
21
190.132460
0
LINE
8
0
10
41.482239
20
190.132460
11
41.703297
21
189.307460
0
LINE
8
0
10
41.703297
20
189.307460
11
42.307238
21
188.703519
0
LINE
8
0
10
42.307238
20
188.703519
11
43.132238
21
188.482461
0
LINE
8
0
10
43.132238
20
188.482461
11
43.957237
21
188.703519
0
LINE
8
0
10
43.957237
20
188.703519
11
44.561179
21
189.307460
0
LINE
8
0
10
44.561179
20
189.307460
11
44.782237
21
190.132460
0
LINE
8
0
10
44.782237
20
190.132460
11
44.782237
21
190.132460
0
LINE
8
0
10
158.782093
20
190.132460
11
158.652238
21
190.774502
0
LINE
8
0
10
158.652238
20
190.774502
11
158.298586
21
191.298758
0
LINE
8
0
10
158.298586
20
191.298758
11
157.774189
21
191.652199
0
LINE
8
0
10
157.774189
20
191.652199
11
157.132095
21
191.781797
0
LINE
8
0
10
157.132095
20
191.781797
11
156.490002
21
191.652199
0
LINE
8
0
10
156.490002
20
191.652199
11
155.965604
21
191.298758
0
LINE
8
0
10
155.965604
20
191.298758
11
155.611952
21
190.774502
0
LINE
8
0
10
155.611952
20
190.774502
11
155.482097
21
190.132460
0
LINE
8
0
10
155.482097
20
190.132460
11
155.611952
21
189.490418
0
LINE
8
0
10
155.611952
20
189.490418
11
155.965604
21
188.966162
0
LINE
8
0
10
155.965604
20
188.966162
11
156.490002
21
188.612721
0
LINE
8
0
10
156.490002
20
188.612721
11
157.132095
21
188.483123
0
LINE
8
0
10
157.132095
20
188.483123
11
157.774189
21
188.612721
0
LINE
8
0
10
157.774189
20
188.612721
11
158.298586
21
188.966162
0
LINE
8
0
10
158.298586
20
188.966162
11
158.652238
21
189.490418
0
LINE
8
0
10
158.652238
20
189.490418
11
158.782093
21
190.132460
0
LINE
8
0
10
158.782093
20
190.132460
11
158.782093
21
190.132460
0
LINE
8
0
10
195.782046
20
206.132429
11
195.652191
21
206.774471
0
LINE
8
0
10
195.652191
20
206.774471
11
195.298540
21
207.298727
0
LINE
8
0
10
195.298540
20
207.298727
11
194.774142
21
207.652168
0
LINE
8
0
10
194.774142
20
207.652168
11
194.132049
21
207.781766
0
LINE
8
0
10
194.132049
20
207.781766
11
193.489955
21
207.652168
0
LINE
8
0
10
193.489955
20
207.652168
11
192.965557
21
207.298727
0
LINE
8
0
10
192.965557
20
207.298727
11
192.611906
21
206.774471
0
LINE
8
0
10
192.611906
20
206.774471
11
192.482051
21
206.132429
0
LINE
8
0
10
192.482051
20
206.132429
11
192.611906
21
205.490387
0
LINE
8
0
10
192.611906
20
205.490387
11
192.965557
21
204.966131
0
LINE
8
0
10
192.965557
20
204.966131
11
193.489955
21
204.612690
0
LINE
8
0
10
193.489955
20
204.612690
11
194.132049
21
204.483092
0
LINE
8
0
10
194.132049
20
204.483092
11
194.774142
21
204.612690
0
LINE
8
0
10
194.774142
20
204.612690
11
195.298540
21
204.966131
0
LINE
8
0
10
195.298540
20
204.966131
11
195.652191
21
205.490387
0
LINE
8
0
10
195.652191
20
205.490387
11
195.782046
21
206.132429
0
LINE
8
0
10
195.782046
20
206.132429
11
195.782046
21
206.132429
0
LINE
8
0
10
195.782046
20
244.132369
11
195.652191
21
244.774410
0
LINE
8
0
10
195.652191
20
244.774410
11
195.298540
21
245.298666
0
LINE
8
0
10
195.298540
20
245.298666
11
194.774142
21
245.652108
0
LINE
8
0
10
194.774142
20
245.652108
11
194.132049
21
245.781706
0
LINE
8
0
10
194.132049
20
245.781706
11
193.489955
21
245.652108
0
LINE
8
0
10
193.489955
20
245.652108
11
192.965557
21
245.298666
0
LINE
8
0
10
192.965557
20
245.298666
11
192.611906
21
244.774410
0
LINE
8
0
10
192.611906
20
244.774410
11
192.482051
21
244.132369
0
LINE
8
0
10
192.482051
20
244.132369
11
192.611906
21
243.490327
0
LINE
8
0
10
192.611906
20
243.490327
11
192.965557
21
242.966071
0
LINE
8
0
10
192.965557
20
242.966071
11
193.489955
21
242.612629
0
LINE
8
0
10
193.489955
20
242.612629
11
194.132049
21
242.483031
0
LINE
8
0
10
194.132049
20
242.483031
11
194.774142
21
242.612629
0
LINE
8
0
10
194.774142
20
242.612629
11
195.298540
21
242.966071
0
LINE
8
0
10
195.298540
20
242.966071
11
195.652191
21
243.490327
0
LINE
8
0
10
195.652191
20
243.490327
11
195.782046
21
244.132369
0
LINE
8
0
10
195.782046
20
244.132369
11
195.782046
21
244.132369
 0 
ENDSEC
 0 
EOF