999
"DXF R12 Output" (www.mydxf.blogspot.com)
 0 
SECTION
 2 
HEADER
 9 
$ACADVER
 1 
AC1009
 9 
$EXTMIN
 10 
 0 
 20 
 0 
 9 
$EXTMAX
 10 
 8.5 
 20 
 11 
 0 
ENDSEC
 0 
SECTION
 2 
ENTITIES
0
LINE
8
Layer 1
10
0.793749
20
31.058349
11
-0.793749
21
29.470851
0
LINE
8
Layer 1
10
0.000000
20
31.587515
11
0.000000
21
28.941685
0
LINE
8
Layer 1
10
2.116664
20
29.206268
11
1.058332
21
28.147936
0
LINE
8
Layer 1
10
1.587498
20
29.735434
11
0.529166
21
28.677102
0
LINE
8
Layer 1
10
1.058332
20
30.264600
11
0.000000
21
29.206268
0
LINE
8
0
10
0.132292
20
30.132370
11
30.132255
21
30.132370
0
LINE
8
0
10
30.132255
20
30.132370
11
30.132255
21
0.132415
0
LINE
8
0
10
30.132255
20
0.132415
11
0.132292
21
0.132415
0
LINE
8
0
10
0.132292
20
0.132415
11
0.132292
21
30.132370
0
LINE
8
0
10
14.132274
20
7.632391
11
14.000218
21
8.942366
0
LINE
8
0
10
14.000218
20
8.942366
11
13.621473
21
10.162481
0
LINE
8
0
10
13.621473
20
10.162481
11
13.022178
21
11.266598
0
LINE
8
0
10
13.022178
20
11.266598
11
12.228471
21
12.228579
0
LINE
8
0
10
12.228471
20
12.228579
11
11.266490
21
13.022286
0
LINE
8
0
10
11.266490
20
13.022286
11
10.162373
21
13.621581
0
LINE
8
0
10
10.162373
20
13.621581
11
8.942258
21
14.000326
0
LINE
8
0
10
8.942258
20
14.000326
11
7.632283
21
14.132382
0
LINE
8
0
10
7.632283
20
14.132382
11
6.322308
21
14.000326
0
LINE
8
0
10
6.322308
20
14.000326
11
5.102192
21
13.621581
0
LINE
8
0
10
5.102192
20
13.621581
11
3.998075
21
13.022286
0
LINE
8
0
10
3.998075
20
13.022286
11
3.036094
21
12.228579
0
LINE
8
0
10
3.036094
20
12.228579
11
2.242387
21
11.266598
0
LINE
8
0
10
2.242387
20
11.266598
11
1.643092
21
10.162481
0
LINE
8
0
10
1.643092
20
10.162481
11
1.264348
21
8.942366
0
LINE
8
0
10
1.264348
20
8.942366
11
1.132291
21
7.632391
0
LINE
8
0
10
1.132291
20
7.632391
11
1.264348
21
6.322416
0
LINE
8
0
10
1.264348
20
6.322416
11
1.643092
21
5.102300
0
LINE
8
0
10
1.643092
20
5.102300
11
2.242387
21
3.998183
0
LINE
8
0
10
2.242387
20
3.998183
11
3.036094
21
3.036202
0
LINE
8
0
10
3.036094
20
3.036202
11
3.998075
21
2.242495
0
LINE
8
0
10
3.998075
20
2.242495
11
5.102193
21
1.643200
0
LINE
8
0
10
5.102193
20
1.643200
11
6.322308
21
1.264456
0
LINE
8
0
10
6.322308
20
1.264456
11
7.632283
21
1.132399
0
LINE
8
0
10
7.632283
20
1.132399
11
8.942258
21
1.264456
0
LINE
8
0
10
8.942258
20
1.264456
11
10.162373
21
1.643201
0
LINE
8
0
10
10.162373
20
1.643201
11
11.266490
21
2.242495
0
LINE
8
0
10
11.266490
20
2.242495
11
12.228471
21
3.036202
0
LINE
8
0
10
12.228471
20
3.036202
11
13.022178
21
3.998184
0
LINE
8
0
10
13.022178
20
3.998184
11
13.621473
21
5.102301
0
LINE
8
0
10
13.621473
20
5.102301
11
14.000218
21
6.322416
0
LINE
8
0
10
14.000218
20
6.322416
11
14.132274
21
7.632391
0
LINE
8
0
10
14.132274
20
7.632391
11
14.132274
21
7.632391
0
LINE
8
0
10
14.082274
20
22.632395
11
13.951005
21
23.932090
0
LINE
8
0
10
13.951005
20
23.932090
11
13.575026
21
25.142603
0
LINE
8
0
10
13.575026
20
25.142603
11
12.980266
21
26.238009
0
LINE
8
0
10
12.980266
20
26.238009
11
12.192654
21
27.192383
0
LINE
8
0
10
12.192654
20
27.192383
11
11.238120
21
27.979802
0
LINE
8
0
10
11.238120
20
27.979802
11
10.142594
21
28.574340
0
LINE
8
0
10
10.142594
20
28.574340
11
8.932005
21
28.950075
0
LINE
8
0
10
8.932005
20
28.950075
11
7.632283
21
29.081080
0
LINE
8
0
10
7.632283
20
29.081080
11
6.332560
21
28.950075
0
LINE
8
0
10
6.332560
20
28.950075
11
5.121971
21
28.574340
0
LINE
8
0
10
5.121971
20
28.574340
11
4.026445
21
27.979802
0
LINE
8
0
10
4.026445
20
27.979802
11
3.071911
21
27.192383
0
LINE
8
0
10
3.071911
20
27.192383
11
2.284299
21
26.238009
0
LINE
8
0
10
2.284299
20
26.238009
11
1.689539
21
25.142603
0
LINE
8
0
10
1.689539
20
25.142603
11
1.313560
21
23.932090
0
LINE
8
0
10
1.313560
20
23.932090
11
1.182291
21
22.632395
0
LINE
8
0
10
1.182291
20
22.632395
11
1.313560
21
21.332699
0
LINE
8
0
10
1.313560
20
21.332699
11
1.689539
21
20.122186
0
LINE
8
0
10
1.689539
20
20.122186
11
2.284299
21
19.026780
0
LINE
8
0
10
2.284299
20
19.026780
11
3.071911
21
18.072406
0
LINE
8
0
10
3.071911
20
18.072406
11
4.026445
21
17.284988
0
LINE
8
0
10
4.026445
20
17.284988
11
5.121971
21
16.690449
0
LINE
8
0
10
5.121971
20
16.690449
11
6.332560
21
16.314715
0
LINE
8
0
10
6.332560
20
16.314715
11
7.632283
21
16.183709
0
LINE
8
0
10
7.632283
20
16.183709
11
8.932005
21
16.314715
0
LINE
8
0
10
8.932005
20
16.314715
11
10.142594
21
16.690449
0
LINE
8
0
10
10.142594
20
16.690449
11
11.238120
21
17.284988
0
LINE
8
0
10
11.238120
20
17.284988
11
12.192654
21
18.072406
0
LINE
8
0
10
12.192654
20
18.072406
11
12.980266
21
19.026780
0
LINE
8
0
10
12.980266
20
19.026780
11
13.575026
21
20.122186
0
LINE
8
0
10
13.575026
20
20.122186
11
13.951005
21
21.332699
0
LINE
8
0
10
13.951005
20
21.332699
11
14.082274
21
22.632395
0
LINE
8
0
10
14.082274
20
22.632395
11
14.082274
21
22.632395
0
LINE
8
0
10
29.107255
20
7.632391
11
28.975478
21
8.937124
0
LINE
8
0
10
28.975478
20
8.937124
11
28.598041
21
10.152330
0
LINE
8
0
10
28.598041
20
10.152330
11
28.000976
21
11.251981
0
LINE
8
0
10
28.000976
20
11.251981
11
27.210311
21
12.210055
0
LINE
8
0
10
27.210311
20
12.210055
11
26.252078
21
13.000526
0
LINE
8
0
10
26.252078
20
13.000526
11
25.152305
21
13.597369
0
LINE
8
0
10
25.152305
20
13.597369
11
23.937024
21
13.974560
0
LINE
8
0
10
23.937024
20
13.974560
11
22.632264
21
14.106074
0
LINE
8
0
10
22.632264
20
14.106074
11
21.327503
21
13.974560
0
LINE
8
0
10
21.327503
20
13.974560
11
20.112222
21
13.597369
0
LINE
8
0
10
20.112222
20
13.597369
11
19.012449
21
13.000526
0
LINE
8
0
10
19.012449
20
13.000526
11
18.054216
21
12.210055
0
LINE
8
0
10
18.054216
20
12.210055
11
17.263551
21
11.251981
0
LINE
8
0
10
17.263551
20
11.251981
11
16.666486
21
10.152330
0
LINE
8
0
10
16.666486
20
10.152330
11
16.289049
21
8.937124
0
LINE
8
0
10
16.289049
20
8.937124
11
16.157272
21
7.632391
0
LINE
8
0
10
16.157272
20
7.632391
11
16.289049
21
6.327657
0
LINE
8
0
10
16.289049
20
6.327657
11
16.666486
21
5.112452
0
LINE
8
0
10
16.666486
20
5.112452
11
17.263551
21
4.012800
0
LINE
8
0
10
17.263551
20
4.012800
11
18.054216
21
3.054726
0
LINE
8
0
10
18.054216
20
3.054726
11
19.012449
21
2.264255
0
LINE
8
0
10
19.012449
20
2.264255
11
20.112222
21
1.667412
0
LINE
8
0
10
20.112222
20
1.667412
11
21.327503
21
1.290221
0
LINE
8
0
10
21.327503
20
1.290221
11
22.632264
21
1.158708
0
LINE
8
0
10
22.632264
20
1.158708
11
23.937024
21
1.290221
0
LINE
8
0
10
23.937024
20
1.290221
11
25.152305
21
1.667412
0
LINE
8
0
10
25.152305
20
1.667412
11
26.252078
21
2.264255
0
LINE
8
0
10
26.252078
20
2.264255
11
27.210311
21
3.054726
0
LINE
8
0
10
27.210311
20
3.054726
11
28.000976
21
4.012800
0
LINE
8
0
10
28.000976
20
4.012800
11
28.598041
21
5.112452
0
LINE
8
0
10
28.598041
20
5.112452
11
28.975478
21
6.327657
0
LINE
8
0
10
28.975478
20
6.327657
11
29.107255
21
7.632391
0
LINE
8
0
10
29.107255
20
7.632391
11
29.107255
21
7.632391
0
LINE
8
0
10
29.032257
20
22.632395
11
28.810718
21
24.302266
0
LINE
8
0
10
28.810718
20
24.302266
11
28.174820
21
25.832391
0
LINE
8
0
10
28.174820
20
25.832391
11
27.167642
21
27.148157
0
LINE
8
0
10
27.167642
20
27.148157
11
25.832260
21
28.174951
0
LINE
8
0
10
25.832260
20
28.174951
11
24.275340
21
28.818028
0
LINE
8
0
10
24.275340
20
28.818028
11
22.632264
21
29.032387
0
LINE
8
0
10
22.632264
20
29.032387
11
20.989188
21
28.818028
0
LINE
8
0
10
20.989188
20
28.818028
11
19.432268
21
28.174951
0
LINE
8
0
10
19.432268
20
28.174951
11
18.096887
21
27.148157
0
LINE
8
0
10
18.096887
20
27.148157
11
17.089708
21
25.832391
0
LINE
8
0
10
17.089708
20
25.832391
11
16.453811
21
24.302266
0
LINE
8
0
10
16.453811
20
24.302266
11
16.232272
21
22.632395
0
LINE
8
0
10
16.232272
20
22.632395
11
16.453811
21
20.962524
0
LINE
8
0
10
16.453811
20
20.962524
11
17.089708
21
19.432398
0
LINE
8
0
10
17.089708
20
19.432398
11
18.096887
21
18.116632
0
LINE
8
0
10
18.096887
20
18.116632
11
19.432268
21
17.089839
0
LINE
8
0
10
19.432268
20
17.089839
11
20.989188
21
16.446761
0
LINE
8
0
10
20.989188
20
16.446761
11
22.632264
21
16.232402
0
LINE
8
0
10
22.632264
20
16.232402
11
24.275340
21
16.446761
0
LINE
8
0
10
24.275340
20
16.446761
11
25.832260
21
17.089839
0
LINE
8
0
10
25.832260
20
17.089839
11
27.167642
21
18.116632
0
LINE
8
0
10
27.167642
20
18.116632
11
28.174820
21
19.432398
0
LINE
8
0
10
28.174820
20
19.432398
11
28.810718
21
20.962524
0
LINE
8
0
10
28.810718
20
20.962524
11
29.032257
21
22.632395
0
LINE
8
0
10
29.032257
20
22.632395
11
29.032257
21
22.632395
0
LINE
8
0
10
15.988040
20
2.186770
11
15.880143
21
2.589449
0
LINE
8
0
10
15.880143
20
2.589449
11
15.585361
21
2.884230
0
LINE
8
0
10
15.585361
20
2.884230
11
15.182682
21
2.992128
0
LINE
8
0
10
15.182682
20
2.992128
11
14.780003
21
2.884230
0
LINE
8
0
10
14.780003
20
2.884230
11
14.485222
21
2.589449
0
LINE
8
0
10
14.485222
20
2.589449
11
14.377325
21
2.186770
0
LINE
8
0
10
14.377325
20
2.186770
11
14.485222
21
1.784091
0
LINE
8
0
10
14.485222
20
1.784091
11
14.780003
21
1.489309
0
LINE
8
0
10
14.780003
20
1.489309
11
15.182682
21
1.381412
0
LINE
8
0
10
15.182682
20
1.381412
11
15.585361
21
1.489309
0
LINE
8
0
10
15.585361
20
1.489309
11
15.880143
21
1.784091
0
LINE
8
0
10
15.880143
20
1.784091
11
15.988040
21
2.186770
0
LINE
8
0
10
15.988040
20
2.186770
11
15.988040
21
2.186770
 0 
ENDSEC
 0 
EOF