<?xml version="1.0" encoding="UTF-8" standalone="no"?>
<svg
   viewBox="0 0 643.50737 76.590868"
   width="643.50739"
   height="76.590866"
   version="1.1"
   id="svg13"
   sodipodi:docname="latticePlexisvg.svg"
   inkscape:version="1.3 (0e150ed6c4, 2023-07-21)"
   xmlns:inkscape="http://www.inkscape.org/namespaces/inkscape"
   xmlns:sodipodi="http://sodipodi.sourceforge.net/DTD/sodipodi-0.dtd"
   xmlns="http://www.w3.org/2000/svg"
   xmlns:svg="http://www.w3.org/2000/svg">
  <sodipodi:namedview
     id="namedview13"
     pagecolor="#ffffff"
     bordercolor="#000000"
     borderopacity="0.25"
     inkscape:showpageshadow="2"
     inkscape:pageopacity="0.0"
     inkscape:pagecheckerboard="0"
     inkscape:deskcolor="#d1d1d1"
     inkscape:zoom="0.69219278"
     inkscape:cx="435.5723"
     inkscape:cy="-137.96734"
     inkscape:window-width="1920"
     inkscape:window-height="991"
     inkscape:window-x="-9"
     inkscape:window-y="-9"
     inkscape:window-maximized="1"
     inkscape:current-layer="g13" />
  <desc
     id="desc1">latticePlexi.dxf - scale = 1.000000, origin = (0.000000, 0.000000), method = manual</desc>
  <defs
     id="defs4">
    <marker
       id="DistanceX"
       orient="auto"
       refX="0"
       refY="0"
       style="overflow:visible">
      <path
         d="M 3,-3 -3,3 M 0,-5 V 5"
         style="stroke:#000000;stroke-width:0.5"
         id="path1" />
    </marker>
    <pattern
       id="Hatch"
       patternUnits="userSpaceOnUse"
       width="8"
       height="8"
       x="0"
       y="0">
      <path
         d="M8 4 l-4,4"
         stroke="#000000"
         stroke-width="0.25"
         linecap="square"
         id="path2" />
      <path
         d="M6 2 l-4,4"
         stroke="#000000"
         stroke-width="0.25"
         linecap="square"
         id="path3" />
      <path
         d="M4 0 l-4,4"
         stroke="#000000"
         stroke-width="0.25"
         linecap="square"
         id="path4" />
    </pattern>
    <symbol
       id="*MODEL_SPACE" />
    <symbol
       id="*PAPER_SPACE" />
  </defs>
  <g
     inkscape:groupmode="layer"
     inkscape:label="0"
     id="g13"
     transform="translate(38.289112,-1046.4291)">
    <path
       style="fill:none;stroke:#ff0000;stroke-opacity:1;stroke-width:0.37795276;stroke-dasharray:none"
       d="M 0,1122.52 H 283.465"
       id="path5" />
    <path
       style="fill:none;stroke:#ff0000;stroke-opacity:1;stroke-width:0.37795276;stroke-dasharray:none"
       d="M 283.465,1046.93 H 0"
       id="path6" />
    <path
       d="m 24.472441,1084.7244 a 24.472441,24.472441 0 0 0 -48.944882,0 24.472441,24.472441 0 0 0 48.944882,0 z"
       style="fill:none;stroke:#ff0000;stroke-opacity:1;stroke-width:0.37795276;stroke-dasharray:none"
       id="path7" />
    <path
       d="m 307.93701,1084.7244 a 24.472441,24.472441 0 0 0 -48.94488,0 24.472441,24.472441 0 0 0 48.94488,0 z"
       style="fill:none;stroke:#ff0000;stroke-opacity:1;stroke-width:0.37795276;stroke-dasharray:none"
       id="path8" />
    <path
       d="m 0,1046.9291 a 37.7953,37.7953 0 0 0 0,75.5906"
       style="fill:none;stroke:#ff0000;stroke-opacity:1;stroke-width:0.37795276;stroke-dasharray:none"
       id="path9" />
    <path
       style="fill:none;stroke:#ff0000;stroke-opacity:1;stroke-width:0.37795276;stroke-dasharray:none"
       d="M 566.929,1122.52 H 283.465"
       id="path10" />
    <path
       style="fill:none;stroke:#ff0000;stroke-opacity:1;stroke-width:0.37795276;stroke-dasharray:none"
       d="M 283.465,1046.93 H 566.929"
       id="path11" />
    <path
       d="m 566.92913,1122.5197 a 37.7953,37.7953 0 0 0 0,-75.5906"
       style="fill:none;stroke:#ff0000;stroke-opacity:1;stroke-width:0.37795276;stroke-dasharray:none"
       id="path12" />
    <path
       d="m 591.40157,1084.7244 a 24.472441,24.472441 0 0 0 -48.94488,0 24.472441,24.472441 0 0 0 48.94488,0 z"
       style="fill:none;stroke:#ff0000;stroke-opacity:1;stroke-width:0.37795276;stroke-dasharray:none"
       id="path13" />
  </g>
</svg>
