<?xml version="1.0" encoding="UTF-8" standalone="no"?>
<svg
   viewBox="0 0 756.90599 949.66146"
   width="756.90601"
   height="949.66144"
   version="1.1"
   id="svg38"
   sodipodi:docname="PLATFORMsvg.svg"
   inkscape:version="1.3 (0e150ed6c4, 2023-07-21)"
   xmlns:inkscape="http://www.inkscape.org/namespaces/inkscape"
   xmlns:sodipodi="http://sodipodi.sourceforge.net/DTD/sodipodi-0.dtd"
   xmlns="http://www.w3.org/2000/svg"
   xmlns:svg="http://www.w3.org/2000/svg">
  <sodipodi:namedview
     id="namedview38"
     pagecolor="#ffffff"
     bordercolor="#000000"
     borderopacity="0.25"
     inkscape:showpageshadow="2"
     inkscape:pageopacity="0.0"
     inkscape:pagecheckerboard="0"
     inkscape:deskcolor="#d1d1d1"
     inkscape:zoom="0.48945421"
     inkscape:cx="253.34341"
     inkscape:cy="787.61198"
     inkscape:window-width="1920"
     inkscape:window-height="991"
     inkscape:window-x="-9"
     inkscape:window-y="-9"
     inkscape:window-maximized="1"
     inkscape:current-layer="g38" />
  <desc
     id="desc1">PLATFORMsvg.dxf - scale = 1.000000, origin = (0.000000, 0.000000), method = manual</desc>
  <defs
     id="defs4">
    <marker
       id="DistanceX"
       orient="auto"
       refX="0"
       refY="0"
       style="overflow:visible">
      <path
         d="M 3,-3 -3,3 M 0,-5 V 5"
         style="stroke:#000000;stroke-width:0.5"
         id="path1" />
    </marker>
    <pattern
       id="Hatch"
       patternUnits="userSpaceOnUse"
       width="8"
       height="8"
       x="0"
       y="0">
      <path
         d="M8 4 l-4,4"
         stroke="#000000"
         stroke-width="0.25"
         linecap="square"
         id="path2" />
      <path
         d="M6 2 l-4,4"
         stroke="#000000"
         stroke-width="0.25"
         linecap="square"
         id="path3" />
      <path
         d="M4 0 l-4,4"
         stroke="#000000"
         stroke-width="0.25"
         linecap="square"
         id="path4" />
    </pattern>
    <symbol
       id="*MODEL_SPACE" />
    <symbol
       id="*PAPER_SPACE" />
  </defs>
  <g
     inkscape:groupmode="layer"
     inkscape:label="0"
     id="g38"
     transform="translate(0.5,-1118.2402)">
    <path
       d="m 503.02381,1192.2431 a 6.236225,6.236225 0 0 0 -12.47245,0 6.236225,6.236225 0 0 0 12.47245,0 z"
       style="fill:none;stroke:#ff0000;stroke-width:0.37795276;stroke-dasharray:none;stroke-opacity:1"
       id="path5" />
    <path
       d="m 503.02381,1216.81 a 6.236225,6.236225 0 0 0 -12.47245,0 6.236225,6.236225 0 0 0 12.47245,0 z"
       style="fill:none;stroke:#ff0000;stroke-width:0.37795276;stroke-dasharray:none;stroke-opacity:1"
       id="path6" />
    <path
       d="m 430.86614,1188.6614 v 812.5984 H 325.03937 v -812.5984 z"
       style="fill:none;stroke:#ff0000;stroke-width:0.37795276;stroke-dasharray:none;stroke-opacity:1"
       id="path7" />
    <path
       d="m 634.96279,1122.5197 a 20.787404,20.787404 0 0 0 -0.002,0 H 0 v 944.8819 h 755.90551 v -944.8819 z"
       style="fill:none;stroke:#ff0000;stroke-width:0.37795276;stroke-dasharray:none;stroke-opacity:1"
       id="path10" />
    <path
       d="m 0,1175.0551 v 19.6536 116.7874 18.8976 718.1102 18.8977 h 351.49606 52.91339 351.49606 v -18.8977 -718.1102 -18.8976 -188.9764 H 321.25984 0 Z"
       style="fill:none;stroke:#ff0000;stroke-width:0.37795276;stroke-dasharray:none;stroke-opacity:1"
       id="path11" />
    <path
       d="M 430.86614,1188.6614 H 325.03937 v 812.5984 h 105.82677 z"
       style="fill:none;stroke:#ff0000;stroke-width:0.37795276;stroke-dasharray:none;stroke-opacity:1"
       id="path12" />
    <path
       d="m 503.02381,1192.2431 a 6.236225,6.236225 0 0 0 -12.47245,0 6.236225,6.236225 0 0 0 12.47245,0 z"
       style="fill:none;stroke:#ff0000;stroke-width:0.37795276;stroke-dasharray:none;stroke-opacity:1"
       id="path13" />
    <path
       d="m 503.02381,1216.81 a 6.236225,6.236225 0 0 0 -12.47245,0 6.236225,6.236225 0 0 0 12.47245,0 z"
       style="fill:none;stroke:#ff0000;stroke-width:0.37795276;stroke-dasharray:none;stroke-opacity:1"
       id="path14" />
    <path
       d="m 45.354331,1290.503 -14.551181,-8.4011 v -16.8022 l 14.551181,-8.4012 14.551181,8.4012 v 16.8022 z"
       style="fill:none;stroke:#ff0000;stroke-width:0.37795276;stroke-dasharray:none;stroke-opacity:1"
       id="path15" />
    <path
       d="m 305.19685,1277.1024 a 17.007875,17.007875 0 0 0 -34.01575,0 17.007875,17.007875 0 0 0 34.01575,0 z"
       style="fill:none;stroke:#ff0000;stroke-width:0.37795276;stroke-dasharray:none;stroke-opacity:1"
       id="path16" />
    <path
       d="m 284.0315,1248.0862 v -16.8023 l 14.55118,-8.4011 14.55118,8.4011 v 16.8023 l -14.55118,8.4011 z"
       style="fill:none;stroke:#ff0000;stroke-width:0.37795276;stroke-dasharray:none;stroke-opacity:1"
       id="path17" />
    <path
       d="m 392.88189,1169.7638 a 14.929135,14.929135 0 0 0 -29.85827,0 14.929135,14.929135 0 0 0 29.85827,0 z"
       style="fill:none;stroke:#ff0000;stroke-width:0.37795276;stroke-dasharray:none;stroke-opacity:1"
       id="path18" />
    <path
       d="m 480.18898,1154.4567 a 9.826775,9.826775 0 0 0 -19.65355,0 9.826775,9.826775 0 0 0 19.65355,0 z"
       style="fill:none;stroke:#ff0000;stroke-width:0.37795276;stroke-dasharray:none;stroke-opacity:1"
       id="path19" />
    <path
       d="m 517.98425,1258.9606 a 9.826772,9.826772 0 0 0 -19.65354,0 9.826772,9.826772 0 0 0 19.65354,0 z"
       style="fill:none;stroke:#ff0000;stroke-width:0.37795276;stroke-dasharray:none;stroke-opacity:1"
       id="path20" />
    <path
       style="fill:none;stroke:#ff0000;stroke-width:0.37795276;stroke-dasharray:none;stroke-opacity:1"
       d="m 634.961,1122.52 h -0.003"
       id="path21" />
    <path
       d="m 610.43081,1141.9573 a 71.811024,71.811024 0 0 0 0,134.9831 24.566929,24.566929 0 0 0 49.09675,-1.3498 v -6.7719 a 64.251969,64.251969 0 0 0 26.69237,-20.6297 h 24.33125 v -77.4803 h -24.33125 a 64.251969,64.251969 0 0 0 -26.69237,-20.6298 v -6.7718 a 24.566929,24.566929 0 0 0 -24.56703,-24.5669 h -0.002 a 24.566929,24.566929 0 0 0 -24.52736,23.2171 z"
       style="fill:none;stroke:#ff0000;stroke-width:0.37795276;stroke-dasharray:none;stroke-opacity:1"
       id="path22" />
    <path
       d="m 485.29134,2016.5669 a 14.929135,14.929135 0 0 0 -29.85827,0 14.929135,14.929135 0 0 0 29.85827,0 z"
       style="fill:none;stroke:#ff0000;stroke-width:0.37795276;stroke-dasharray:none;stroke-opacity:1"
       id="path23" />
    <path
       d="m 392.88189,2020.1575 a 14.929135,14.929135 0 0 0 -29.85827,0 14.929135,14.929135 0 0 0 29.85827,0 z"
       style="fill:none;stroke:#ff0000;stroke-width:0.37795276;stroke-dasharray:none;stroke-opacity:1"
       id="path24" />
    <path
       d="m 503.02381,1216.81 a 6.236225,6.236225 0 0 0 -12.47245,0 6.236225,6.236225 0 0 0 12.47245,0 z"
       style="fill:none;stroke:#ff0000;stroke-width:0.37795276;stroke-dasharray:none;stroke-opacity:1"
       id="path25" />
    <path
       d="m 503.02381,1192.2431 a 6.236225,6.236225 0 0 0 -12.47245,0 6.236225,6.236225 0 0 0 12.47245,0 z"
       style="fill:none;stroke:#ff0000;stroke-width:0.37795276;stroke-dasharray:none;stroke-opacity:1"
       id="path26" />
    <path
       style="fill:none;stroke:#ff0000;stroke-width:0.37795276;stroke-dasharray:none;stroke-opacity:1"
       d="M 0,2067.4 H 755.906"
       id="path27" />
    <path
       style="fill:none;stroke:#ff0000;stroke-width:0.37795276;stroke-dasharray:none;stroke-opacity:1"
       d="M 755.906,2067.4 V 1122.52"
       id="path28" />
    <path
       style="fill:none;stroke:#ff0000;stroke-width:0.37795276;stroke-dasharray:none;stroke-opacity:1"
       d="M 755.906,1122.52 H 0"
       id="path29" />
    <path
       style="fill:none;stroke:#ff0000;stroke-width:0.37795276;stroke-dasharray:none;stroke-opacity:1"
       d="M 0,1122.52 V 2067.4"
       id="path30" />
    <path
       d="m 17.574803,2029.6063 a 6.2362205,6.2362205 0 0 0 -12.472441,0 6.2362205,6.2362205 0 0 0 12.472441,0 z"
       style="fill:none;stroke:#ff0000;stroke-width:0.37795276;stroke-dasharray:none;stroke-opacity:1"
       id="path31" />
    <path
       style="fill:none;stroke:#ff0000;stroke-width:0.37795276;stroke-dasharray:none;stroke-opacity:1"
       d="m 0,2067.4 v -18.9"
       id="path32" />
    <path
       d="m 17.574803,2029.6063 a 6.2362205,6.2362205 0 0 0 -12.472441,0 6.2362205,6.2362205 0 0 0 12.472441,0 z"
       style="fill:none;stroke:#ff0000;stroke-width:0.37795276;stroke-dasharray:none;stroke-opacity:1"
       id="path33" />
    <path
       d="m 750.80315,2029.6063 a 6.2362205,6.2362205 0 0 0 -12.47244,0 6.2362205,6.2362205 0 0 0 12.47244,0 z"
       style="fill:none;stroke:#ff0000;stroke-width:0.37795276;stroke-dasharray:none;stroke-opacity:1"
       id="path34" />
    <path
       d="m 168.75591,1349.2913 a 6.236225,6.236225 0 0 0 -12.47245,0 6.236225,6.236225 0 0 0 12.47245,0 z"
       style="fill:none;stroke:#ff0000;stroke-width:0.37795276;stroke-dasharray:none;stroke-opacity:1"
       id="path35" />
    <path
       d="m 599.62205,1349.2913 a 6.2362205,6.2362205 0 0 0 -12.47244,0 6.2362205,6.2362205 0 0 0 12.47244,0 z"
       style="fill:none;stroke:#ff0000;stroke-width:0.37795276;stroke-dasharray:none;stroke-opacity:1"
       id="path36" />
    <path
       d="m 739.46457,1288.8189 a 6.2362205,6.2362205 0 0 0 -12.47244,0 6.2362205,6.2362205 0 0 0 12.47244,0 z"
       style="fill:none;stroke:#ff0000;stroke-width:0.37795276;stroke-dasharray:none;stroke-opacity:1"
       id="path37" />
    <path
       d="m 739.46457,1145.1969 a 6.2362205,6.2362205 0 0 0 -12.47244,0 6.2362205,6.2362205 0 0 0 12.47244,0 z"
       style="fill:none;stroke:#ff0000;stroke-width:0.37795276;stroke-dasharray:none;stroke-opacity:1"
       id="path38" />
  </g>
</svg>
