<?xml version="1.0" encoding="UTF-8" standalone="no"?>
<svg
   viewBox="0 0 114.38582 114.38583"
   width="114.38583"
   height="114.38583"
   version="1.1"
   id="svg10"
   sodipodi:docname="testroulementplexisvg.svg"
   inkscape:version="1.3 (0e150ed6c4, 2023-07-21)"
   xmlns:inkscape="http://www.inkscape.org/namespaces/inkscape"
   xmlns:sodipodi="http://sodipodi.sourceforge.net/DTD/sodipodi-0.dtd"
   xmlns="http://www.w3.org/2000/svg"
   xmlns:svg="http://www.w3.org/2000/svg">
  <sodipodi:namedview
     id="namedview10"
     pagecolor="#ffffff"
     bordercolor="#000000"
     borderopacity="0.25"
     inkscape:showpageshadow="2"
     inkscape:pageopacity="0.0"
     inkscape:pagecheckerboard="0"
     inkscape:deskcolor="#d1d1d1"
     inkscape:zoom="2.7687711"
     inkscape:cx="83.249929"
     inkscape:cy="68.803087"
     inkscape:window-width="1920"
     inkscape:window-height="991"
     inkscape:window-x="-9"
     inkscape:window-y="-9"
     inkscape:window-maximized="1"
     inkscape:current-layer="g10" />
  <desc
     id="desc1">testroulementplexi.dxf - scale = 1.000000, origin = (0.000000, 0.000000), method = manual</desc>
  <defs
     id="defs4">
    <marker
       id="DistanceX"
       orient="auto"
       refX="0"
       refY="0"
       style="overflow:visible">
      <path
         d="M 3,-3 -3,3 M 0,-5 V 5"
         style="stroke:#000000;stroke-width:0.5"
         id="path1" />
    </marker>
    <pattern
       id="Hatch"
       patternUnits="userSpaceOnUse"
       width="8"
       height="8"
       x="0"
       y="0">
      <path
         d="M8 4 l-4,4"
         stroke="#000000"
         stroke-width="0.25"
         linecap="square"
         id="path2" />
      <path
         d="M6 2 l-4,4"
         stroke="#000000"
         stroke-width="0.25"
         linecap="square"
         id="path3" />
      <path
         d="M4 0 l-4,4"
         stroke="#000000"
         stroke-width="0.25"
         linecap="square"
         id="path4" />
    </pattern>
    <symbol
       id="*MODEL_SPACE" />
    <symbol
       id="*PAPER_SPACE" />
  </defs>
  <g
     inkscape:groupmode="layer"
     inkscape:label="0"
     id="g10"
     transform="translate(0.5,-1122.0197)">
    <path
       d="m 0,1122.5197 h 113.38583 v 113.3858 H 0 Z"
       style="fill:none;stroke:#ff0000;stroke-opacity:1;stroke-width:0.37795276;stroke-dasharray:none"
       id="path5" />
    <path
       d="m 52.913386,1207.5591 a 24.566929,24.566929 0 0 0 -49.133858,0 24.566929,24.566929 0 0 0 49.133858,0 z"
       style="fill:none;stroke:#ff0000;stroke-opacity:1;stroke-width:0.37795276;stroke-dasharray:none"
       id="path6" />
    <path
       d="m 52.724409,1150.8661 a 24.377953,24.377953 0 0 0 -48.755905,0 24.377953,24.377953 0 0 0 48.755905,0 z"
       style="fill:none;stroke:#ff0000;stroke-opacity:1;stroke-width:0.37795276;stroke-dasharray:none"
       id="path7" />
    <path
       d="m 109.51181,1207.5591 a 24.472441,24.472441 0 0 0 -48.944881,0 24.472441,24.472441 0 0 0 48.944881,0 z"
       style="fill:none;stroke:#ff0000;stroke-opacity:1;stroke-width:0.37795276;stroke-dasharray:none"
       id="path8" />
    <path
       d="m 109.22835,1150.8661 a 24.188978,24.188978 0 0 0 -48.377956,0 24.188978,24.188978 0 0 0 48.377956,0 z"
       style="fill:none;stroke:#ff0000;stroke-opacity:1;stroke-width:0.37795276;stroke-dasharray:none"
       id="path9" />
    <path
       d="m 59.927313,1228.141 a 3.043876,3.043876 0 0 0 -6.087752,0 3.043876,3.043876 0 0 0 6.087752,0 z"
       style="fill:none;stroke:#ff0000;stroke-opacity:1;stroke-width:0.37795276;stroke-dasharray:none"
       id="path10" />
  </g>
</svg>
