<?xml version="1.0" encoding="UTF-8" standalone="no"?>
<svg
   viewBox="0 0 152.1811 152.18111"
   width="152.18111"
   height="152.18111"
   version="1.1"
   id="svg10"
   sodipodi:docname="SSSvg.svg"
   inkscape:version="1.3 (0e150ed6c4, 2023-07-21)"
   xmlns:inkscape="http://www.inkscape.org/namespaces/inkscape"
   xmlns:sodipodi="http://sodipodi.sourceforge.net/DTD/sodipodi-0.dtd"
   xmlns="http://www.w3.org/2000/svg"
   xmlns:svg="http://www.w3.org/2000/svg">
  <sodipodi:namedview
     id="namedview10"
     pagecolor="#ffffff"
     bordercolor="#000000"
     borderopacity="0.25"
     inkscape:showpageshadow="2"
     inkscape:pageopacity="0.0"
     inkscape:pagecheckerboard="0"
     inkscape:deskcolor="#d1d1d1"
     inkscape:zoom="0.69219278"
     inkscape:cx="444.96275"
     inkscape:cy="120.63113"
     inkscape:window-width="1920"
     inkscape:window-height="991"
     inkscape:window-x="-9"
     inkscape:window-y="-9"
     inkscape:window-maximized="1"
     inkscape:current-layer="g10" />
  <desc
     id="desc1">SSS.dxf - scale = 1.000000, origin = (0.000000, 0.000000), method = manual</desc>
  <defs
     id="defs4">
    <marker
       id="DistanceX"
       orient="auto"
       refX="0"
       refY="0"
       style="overflow:visible">
      <path
         d="M 3,-3 -3,3 M 0,-5 V 5"
         style="stroke:#000000;stroke-width:0.5"
         id="path1" />
    </marker>
    <pattern
       id="Hatch"
       patternUnits="userSpaceOnUse"
       width="8"
       height="8"
       x="0"
       y="0">
      <path
         d="M8 4 l-4,4"
         stroke="#000000"
         stroke-width="0.25"
         linecap="square"
         id="path2" />
      <path
         d="M6 2 l-4,4"
         stroke="#000000"
         stroke-width="0.25"
         linecap="square"
         id="path3" />
      <path
         d="M4 0 l-4,4"
         stroke="#000000"
         stroke-width="0.25"
         linecap="square"
         id="path4" />
    </pattern>
    <symbol
       id="*MODEL_SPACE" />
    <symbol
       id="*PAPER_SPACE" />
  </defs>
  <g
     inkscape:groupmode="layer"
     inkscape:label="0"
     id="g10"
     transform="translate(47.744094,-1018.0827)">
    <path
       d="m 24,1122.5197 a 24,24 0 0 0 -48,0 24,24 0 0 0 48,0 z"
       style="fill:none;stroke:#ff0000;stroke-width:0.37795276;stroke-dasharray:none;stroke-opacity:1"
       id="path5" />
    <path
       d="m 80.88189,1122.5197 a 24.188976,24.188976 0 0 0 -48.377953,0 24.188976,24.188976 0 0 0 48.377953,0 z"
       style="fill:none;stroke:#ff0000;stroke-width:0.37795276;stroke-dasharray:none;stroke-opacity:1"
       id="path6" />
    <path
       d="m 81.070866,1065.8268 a 24.377953,24.377953 0 0 0 -48.755905,0 24.377953,24.377953 0 0 0 48.755905,0 z"
       style="fill:none;stroke:#ff0000;stroke-width:0.37795276;stroke-dasharray:none;stroke-opacity:1"
       id="path7" />
    <path
       d="m 24.566929,1065.8268 a 24.566929,24.566929 0 0 0 -49.133858,0 24.566929,24.566929 0 0 0 49.133858,0 z"
       style="fill:none;stroke:#ff0000;stroke-width:0.37795276;stroke-dasharray:none;stroke-opacity:1"
       id="path8" />
    <path
       d="M -47.244094,1018.5827 H 103.93701 v 151.1811 H -47.244094 Z"
       style="fill:none;stroke:#ff0000;stroke-width:0.37795276;stroke-dasharray:none;stroke-opacity:1"
       id="path9" />
    <path
       d="m 22.551477,1035.4967 a 37.795276,37.795276 0 1 0 -44.906343,60.8054"
       style="fill:none;stroke:#ff0000;stroke-width:0.37795276;stroke-dasharray:none;stroke-opacity:1"
       id="path10" />
  </g>
</svg>
