0
SECTION
2
HEADER
9
$INSUNITS
70
4
9
$ACADVER
1
AC1014
9
$HANDSEED
5
FFFF
0
ENDSEC
0
SECTION
2
TABLES
0
TABLE
2
VPORT
5
8
100
AcDbSymbolTable
0
ENDTAB
0
TABLE
2
LTYPE
5
5
100
AcDbSymbolTable
0
LTYPE
5
14
100
AcDbSymbolTableRecord
100
AcDbLinetypeTableRecord
2
BYBLOCK
70
0
0
LTYPE
5
15
100
AcDbSymbolTableRecord
100
AcDbLinetypeTableRecord
2
BYLAYER
70
0
0
LTYPE
5
16
100
AcDbSymbolTableRecord
100
AcDbLinetypeTableRecord
2
DASHED
70
0
3
Dashed __ __ __ __ __ __ __ __ __ __ __ __ __ _
72
65
73
2
40
0.75
49
0.5
74
0
49
-0.25
74
0
0
ENDTAB
0
TABLE
2
LAYER
5
2
100
AcDbSymbolTable
70
2
0
LAYER
5
50
100
AcDbSymbolTableRecord
100
AcDbLayerTableRecord
2
0
70
0
62
7
6
CONTINUOUS
0
ENDTAB
0
TABLE
2
STYLE
5
3
100
AcDbSymbolTable
70
1
0
STYLE
5
11
100
AcDbSymbolTableRecord
100
AcDbTextStyleTableRecord
2
STANDARD
70
0
0
ENDTAB
0
TABLE
2
VIEW
5
6
100
AcDbSymbolTable
70
0
0
ENDTAB
0
TABLE
2
UCS
5
7
100
AcDbSymbolTable
70
0
0
ENDTAB
0
TABLE
2
APPID
5
9
100
AcDbSymbolTable
70
2
0
APPID
5
12
100
AcDbSymbolTableRecord
100
AcDbRegAppTableRecord
2
ACAD
70
0
0
ENDTAB
0
TABLE
2
DIMSTYLE
5
A
100
AcDbSymbolTable
70
1
0
ENDTAB
0
TABLE
2
BLOCK_RECORD
5
1
100
AcDbSymbolTable
70
1
0
BLOCK_RECORD
5
1F
100
AcDbSymbolTableRecord
100
AcDbBlockTableRecord
2
*MODEL_SPACE
0
BLOCK_RECORD
5
1B
100
AcDbSymbolTableRecord
100
AcDbBlockTableRecord
2
*PAPER_SPACE
0
ENDTAB
0
ENDSEC
0
SECTION
2
BLOCKS
0
BLOCK
5
20
100
AcDbEntity
100
AcDbBlockBegin
2
*MODEL_SPACE
0
ENDBLK
5
21
100
AcDbEntity
100
AcDbBlockEnd
0
BLOCK
5
1C
100
AcDbEntity
100
AcDbBlockBegin
2
*PAPER_SPACE
0
ENDBLK
5
1D
100
AcDbEntity
100
AcDbBlockEnd
0
ENDSEC
0
SECTION
2
ENTITIES
0
CIRCLE
5
100
100
AcDbEntity
8
0
100
AcDbCircle
10
-19.000000000000018
20
54.999999999999993
30
0
40
1.4999999999999991
210
0
220
-0
230
1
0
CIRCLE
5
101
100
AcDbEntity
8
0
100
AcDbCircle
10
-140.99999999999997
20
55.000000000000007
30
0
40
1.5000000000000036
210
0
220
-0
230
1
0
CIRCLE
5
102
100
AcDbEntity
8
0
100
AcDbCircle
10
-19.000000000000025
20
13.999999999999996
30
0
40
1.4999999999999991
210
0
220
-0
230
1
0
CIRCLE
5
103
100
AcDbEntity
8
0
100
AcDbCircle
10
-140.99999999999997
20
14.000000000000012
30
0
40
1.5000000000000036
210
0
220
-0
230
1
0
LWPOLYLINE
5
104
100
AcDbEntity
8
0
100
AcDbPolyline
90
12
70
1
43
0.0
10
-136.99999999999997
20
55.200000000000003
10
-23.000000000000025
20
55.200000000000003
10
-23.000000000000025
20
51.000000000000007
10
-18.800000000000001
20
51.000000000000007
10
-18.800000000000001
20
18.000000000000036
10
-23.000000000000025
20
18.000000000000036
10
-23.000000000000025
20
13.80000000000001
10
-136.99999999999997
20
13.80000000000001
10
-136.99999999999997
20
18.000000000000036
10
-141.19999999999999
20
18.000000000000036
10
-141.19999999999999
20
51.000000000000007
10
-136.99999999999997
20
51.000000000000007
0
LWPOLYLINE
5
105
100
AcDbEntity
8
0
100
AcDbPolyline
90
4
70
1
43
0.0
10
-197.50000000000003
20
20.97056274847705
10
-197.50000000000003
20
26.627416997969391
10
-191.12741699796942
20
33.000000000000021
10
-185.47056274847691
20
33.000000000000014
0
LWPOLYLINE
5
106
100
AcDbEntity
8
0
100
AcDbPolyline
90
6
70
1
43
0.0
10
-179.00000000000003
20
35.999999999999986
10
-181.22792206135779
20
35.999999999999986
10
-197.50000000000003
20
52.272077938642276
10
-197.50000000000003
20
54.5
10
-194.07106781186545
20
54.5
10
-179.00000000000003
20
39.42893218813461
0
LWPOLYLINE
5
107
100
AcDbEntity
8
0
100
AcDbPolyline
90
4
70
1
43
0.0
10
-179.00000000000003
20
25.328427124745588
10
-179.00000000000003
20
19.671572875253798
10
-184.17157287525379
20
14.500000000000002
10
-189.8284271247461
20
14.500000000000002
0
LWPOLYLINE
5
108
100
AcDbEntity
8
0
100
AcDbPolyline
90
4
70
1
43
0.0
10
-208.17157287525393
20
14.500000000000002
10
-213.82842712474627
20
14.500000000000002
10
-219.00000000000003
20
19.671572875253798
10
-219.00000000000003
20
25.328427124745588
0
LWPOLYLINE
5
109
100
AcDbEntity
8
0
100
AcDbPolyline
90
6
70
1
43
0.0
10
-203.92893218813458
20
54.5
10
-200.5
20
54.5
10
-200.5
20
52.272077938642276
10
-216.77207793864227
20
35.999999999999986
10
-219.00000000000003
20
35.999999999999986
10
-219.00000000000003
20
39.42893218813461
0
LWPOLYLINE
5
110
100
AcDbEntity
8
0
100
AcDbPolyline
90
4
70
1
43
0.0
10
-200.5
20
48.029437251522957
10
-200.5
20
42.372583002030609
10
-206.87258300203064
20
35.999999999999986
10
-212.52943725152312
20
35.999999999999986
0
LWPOLYLINE
5
111
100
AcDbEntity
8
0
100
AcDbPolyline
90
4
70
1
43
0.0
10
-197.50000000000003
20
48.029437251522957
10
-185.47056274847691
20
35.999999999999986
10
-191.12741699796942
20
35.999999999999986
10
-197.50000000000003
20
42.372583002030609
0
LWPOLYLINE
5
112
100
AcDbEntity
8
0
100
AcDbPolyline
90
6
70
1
43
0.0
10
-194.07106781186545
20
14.500000000000002
10
-197.50000000000003
20
14.500000000000002
10
-197.50000000000003
20
16.727922061357727
10
-181.22792206135779
20
33.000000000000014
10
-179.00000000000003
20
33.000000000000014
10
-179.00000000000003
20
29.571067811865394
0
LWPOLYLINE
5
113
100
AcDbEntity
8
0
100
AcDbPolyline
90
4
70
1
43
0.0
10
-189.8284271247461
20
54.5
10
-184.17157287525379
20
54.5
10
-179.00000000000003
20
49.328427124746206
10
-179.00000000000003
20
43.671572875254412
0
LWPOLYLINE
5
114
100
AcDbEntity
8
0
100
AcDbPolyline
90
4
70
1
43
0.0
10
-219.00000000000003
20
43.671572875254412
10
-219.00000000000003
20
49.328427124746206
10
-213.82842712474627
20
54.5
10
-208.17157287525393
20
54.5
0
LWPOLYLINE
5
115
100
AcDbEntity
8
0
100
AcDbPolyline
90
6
70
1
43
0.0
10
-219.00000000000003
20
33.000000000000014
10
-216.77207793864227
20
33.000000000000014
10
-200.5
20
16.727922061357727
10
-200.5
20
14.500000000000002
10
-203.92893218813458
20
14.500000000000002
10
-219.00000000000003
20
29.571067811865394
0
LWPOLYLINE
5
116
100
AcDbEntity
8
0
100
AcDbPolyline
90
4
70
1
43
0.0
10
-200.5
20
20.97056274847705
10
-212.52943725152312
20
33.000000000000014
10
-206.87258300203064
20
33.000000000000021
10
-200.5
20
26.627416997969391
0
LWPOLYLINE
5
117
100
AcDbEntity
8
0
100
AcDbPolyline
90
4
70
1
43
0.0
10
-204.12994231491132
20
34.5
10
-199.00000000000003
20
39.629942314911339
10
-193.87005768508871
20
34.5
10
-199.00000000000003
20
29.370057685088664
0
LWPOLYLINE
5
118
100
AcDbEntity
8
0
100
AcDbPolyline
90
4
70
1
43
0.0
10
0
20
69
10
-239.00000000000003
20
69
10
-239.00000000000003
20
0
10
0
20
0
0
CIRCLE
5
119
100
AcDbEntity
8
0
100
AcDbCircle
10
-234
20
34.499999999999957
30
0
40
1.4999999999999858
210
0
220
-0
230
1
0
CIRCLE
5
120
100
AcDbEntity
8
0
100
AcDbCircle
10
-4.9999999999999778
20
34.500000000000057
30
0
40
1.5000000000000002
210
0
220
-0
230
1
0
ENDSEC
0
SECTION
2
OBJECTS
0
DICTIONARY
5
C
100
AcDbDictionary
3
ACAD_GROUP
350
D
3
ACAD_MLINESTYLE
350
17
0
DICTIONARY
5
D
100
AcDbDictionary
0
DICTIONARY
5
1A
330
C
100
AcDbDictionary
0
DICTIONARY
5
17
100
AcDbDictionary
0
ENDSEC
0
EOF
