0
SECTION
2
HEADER
9
$INSUNITS
70
4
9
$ACADVER
1
AC1014
9
$HANDSEED
5
FFFF
0
ENDSEC
0
SECTION
2
TABLES
0
TABLE
2
VPORT
5
8
100
AcDbSymbolTable
0
ENDTAB
0
TABLE
2
LTYPE
5
5
100
AcDbSymbolTable
0
LTYPE
5
14
100
AcDbSymbolTableRecord
100
AcDbLinetypeTableRecord
2
BYBLOCK
70
0
0
LTYPE
5
15
100
AcDbSymbolTableRecord
100
AcDbLinetypeTableRecord
2
BYLAYER
70
0
0
LTYPE
5
16
100
AcDbSymbolTableRecord
100
AcDbLinetypeTableRecord
2
DASHED
70
0
3
Dashed __ __ __ __ __ __ __ __ __ __ __ __ __ _
72
65
73
2
40
0.75
49
0.5
74
0
49
-0.25
74
0
0
ENDTAB
0
TABLE
2
LAYER
5
2
100
AcDbSymbolTable
70
2
0
LAYER
5
50
100
AcDbSymbolTableRecord
100
AcDbLayerTableRecord
2
0
70
0
62
7
6
CONTINUOUS
0
ENDTAB
0
TABLE
2
STYLE
5
3
100
AcDbSymbolTable
70
1
0
STYLE
5
11
100
AcDbSymbolTableRecord
100
AcDbTextStyleTableRecord
2
STANDARD
70
0
0
ENDTAB
0
TABLE
2
VIEW
5
6
100
AcDbSymbolTable
70
0
0
ENDTAB
0
TABLE
2
UCS
5
7
100
AcDbSymbolTable
70
0
0
ENDTAB
0
TABLE
2
APPID
5
9
100
AcDbSymbolTable
70
2
0
APPID
5
12
100
AcDbSymbolTableRecord
100
AcDbRegAppTableRecord
2
ACAD
70
0
0
ENDTAB
0
TABLE
2
DIMSTYLE
5
A
100
AcDbSymbolTable
70
1
0
ENDTAB
0
TABLE
2
BLOCK_RECORD
5
1
100
AcDbSymbolTable
70
1
0
BLOCK_RECORD
5
1F
100
AcDbSymbolTableRecord
100
AcDbBlockTableRecord
2
*MODEL_SPACE
0
BLOCK_RECORD
5
1B
100
AcDbSymbolTableRecord
100
AcDbBlockTableRecord
2
*PAPER_SPACE
0
ENDTAB
0
ENDSEC
0
SECTION
2
BLOCKS
0
BLOCK
5
20
100
AcDbEntity
100
AcDbBlockBegin
2
*MODEL_SPACE
0
ENDBLK
5
21
100
AcDbEntity
100
AcDbBlockEnd
0
BLOCK
5
1C
100
AcDbEntity
100
AcDbBlockBegin
2
*PAPER_SPACE
0
ENDBLK
5
1D
100
AcDbEntity
100
AcDbBlockEnd
0
ENDSEC
0
SECTION
2
ENTITIES
0
SPLINE
5
100
100
AcDbEntity
8
0
100
AcDbSpline
70
0
71
3
72
9
73
5
74
0
42
0.000000001
43
0.0000000001
44
0.0000000001
40
0
40
0
40
0
40
0
40
0.045432677051548589
40
0.11325299343412214
40
0.11325299343412214
40
0.11325299343412214
40
0.11325299343412214
10
108.1756363229687
20
35.89761933148209
30
0
10
108.11669459150045
20
36.050393686611301
30
0
10
107.9697666981827
20
36.431224272903158
30
0
10
107.54379548788977
20
36.428173081712302
30
0
10
107.28870728778193
20
36.426345909240879
30
0
0
LINE
5
101
100
AcDbEntity
8
0
100
AcDbLine
10
107.28870728778193
20
36.426345909240872
30
0
11
106.93626025485347
21
36.426345909240879
31
0
0
LINE
5
102
100
AcDbEntity
8
0
100
AcDbLine
10
106.93626025485347
20
36.426345909240879
30
0
11
106.93626025485345
21
29.500000084045563
31
0
0
LINE
5
103
100
AcDbEntity
8
0
100
AcDbLine
10
106.93626025485345
20
29.500000084045563
30
0
11
103.8271949605877
21
29.500000084045567
31
0
0
LINE
5
104
100
AcDbEntity
8
0
100
AcDbLine
10
103.8271949605877
20
29.500000084045567
30
0
11
103.82719496058775
21
39.259206855896153
31
0
0
LINE
5
105
100
AcDbEntity
8
0
100
AcDbLine
10
103.82719496058775
20
39.259206855896153
30
0
11
107.58726456927607
21
39.259206855896153
31
0
0
SPLINE
5
106
100
AcDbEntity
8
0
100
AcDbSpline
70
0
71
3
72
9
73
5
74
0
42
0.000000001
43
0.0000000001
44
0.0000000001
40
0
40
0
40
0
40
0
40
0.15345959577076751
40
0.28438902788788512
40
0.28438902788788512
40
0.28438902788788512
40
0.28438902788788512
10
107.58726456927607
20
39.259206855896153
30
0
10
108.11018866147153
20
39.236294116285947
30
0
10
109.07926376877704
20
39.193832569901261
30
0
10
109.87943864911669
20
38.652262654972851
30
0
10
110.24782994555781
20
38.402930105331578
30
0
0
SPLINE
5
107
100
AcDbEntity
8
0
100
AcDbSpline
70
0
71
3
72
9
73
5
74
0
42
0.000000001
43
0.0000000001
44
0.0000000001
40
0
40
0
40
0
40
0
40
0.13498501880399755
40
0.27162928620268278
40
0.27162928620268278
40
0.27162928620268278
40
0.27162928620268278
10
110.24782994555781
20
38.402930105331578
30
0
10
110.55851010134917
20
38.059786285144781
30
0
10
111.18368932273732
20
37.369280688538225
30
0
10
111.26974077284224
20
36.441407453438813
30
0
10
111.3130293207104
20
35.974636877182164
30
0
0
SPLINE
5
108
100
AcDbEntity
8
0
100
AcDbSpline
70
0
71
3
72
9
73
5
74
0
42
0.000000001
43
0.0000000001
44
0.0000000001
40
0
40
0
40
0
40
0
40
0.14039311808423979
40
0.28513115127177063
40
0.28513115127177063
40
0.28513115127177063
40
0.28513115127177063
10
111.3130293207104
20
35.974636877182164
30
0
10
111.25750093176835
20
35.49364520953349
30
0
10
111.14472564987871
20
34.51677604514537
30
0
10
110.42210272269722
20
33.848061467355912
30
0
10
110.05528548526117
20
33.508609140518345
30
0
0
LINE
5
109
100
AcDbEntity
8
0
100
AcDbLine
10
110.05528548526117
20
33.508609140518345
30
0
11
111.68008425998039
21
29.500000084045563
31
0
0
LINE
5
110
100
AcDbEntity
8
0
100
AcDbLine
10
111.68008425998039
20
29.500000084045563
30
0
11
108.47939589785882
21
29.500000084045567
31
0
0
LINE
5
111
100
AcDbEntity
8
0
100
AcDbLine
10
108.47939589785882
20
29.500000084045567
30
0
11
107.06373790072749
21
32.663620317581334
31
0
0
LINE
5
112
100
AcDbEntity
8
0
100
AcDbLine
10
107.06373790072749
20
32.663620317581334
30
0
11
107.06373790072747
21
35.279037559631504
31
0
0
LINE
5
113
100
AcDbEntity
8
0
100
AcDbLine
10
107.06373790072747
20
35.279037559631504
30
0
11
107.4275837259228
21
35.279037559631504
31
0
0
SPLINE
5
114
100
AcDbEntity
8
0
100
AcDbSpline
70
0
71
3
72
9
73
5
74
0
42
0.000000001
43
0.0000000001
44
0.0000000001
40
0
40
0
40
0
40
0
40
0.058196260618648375
40
0.10821733970124243
40
0.10821733970124243
40
0.10821733970124243
40
0.10821733970124243
10
107.4275837259228
20
35.279037559631504
30
0
10
107.64538090616512
20
35.296068765649565
30
0
10
108.05037997637518
20
35.327738700926943
30
0
10
108.13604127603443
20
35.717473167815108
30
0
10
108.1756363229687
20
35.89761933148209
30
0
0
LWPOLYLINE
5
115
100
AcDbEntity
8
0
100
AcDbPolyline
90
9
70
1
43
0.0
10
140.38538077639888
20
37.312389219406285
10
141.61468604373286
20
39.259206855896153
10
144.64496234225581
20
39.259206855896153
10
141.96458915042231
20
34.870264137390294
10
141.96458915042231
20
29.500000084045563
10
138.85552504824943
20
29.500000084045567
10
138.85552504824946
20
34.864730442169346
10
136.15434745120359
20
39.259206855896153
10
139.24061396884272
20
39.259206855896153
0
LINE
5
116
100
AcDbEntity
8
0
100
AcDbLine
10
132.49574759768794
20
29.500000084045563
30
0
11
129.38668349551506
21
29.500000084045567
31
0
0
LINE
5
117
100
AcDbEntity
8
0
100
AcDbLine
10
129.38668349551506
20
29.500000084045567
30
0
11
129.38668349551509
21
39.259206855896153
31
0
0
LINE
5
118
100
AcDbEntity
8
0
100
AcDbLine
10
129.38668349551509
20
39.259206855896153
30
0
11
132.9737959222729
21
39.259206855896153
31
0
0
SPLINE
5
119
100
AcDbEntity
8
0
100
AcDbSpline
70
0
71
3
72
9
73
5
74
0
42
0.000000001
43
0.0000000001
44
0.0000000001
40
0
40
0
40
0
40
0
40
0.24917435960689999
40
0.45658934513021499
40
0.45658934513021499
40
0.45658934513021499
40
0.45658934513021499
10
132.9737959222729
20
39.259206855896153
30
0
10
133.90809510376789
20
39.197698871755186
30
0
10
135.62011335519426
20
39.08499108655807
30
0
10
136.00892574715988
20
37.451394377859188
30
0
10
136.18555167483638
20
36.709299886825718
30
0
0
SPLINE
5
120
100
AcDbEntity
8
0
100
AcDbSpline
70
0
71
3
72
9
73
5
74
0
42
0.000000001
43
0.0000000001
44
0.0000000001
40
0
40
0
40
0
40
0
40
0.1150400037557327
40
0.22969052650387051
40
0.22969052650387051
40
0.22969052650387051
40
0.22969052650387051
10
136.18555167483638
20
36.709299886825718
30
0
10
136.14212382345428
20
36.312268129640444
30
0
10
136.05541515061671
20
35.519548811408519
30
0
10
135.44224256311597
20
35.009902132426383
30
0
10
135.13617614077876
20
34.75551089108292
30
0
0
SPLINE
5
121
100
AcDbEntity
8
0
100
AcDbSpline
70
0
71
3
72
9
73
5
74
0
42
0.000000001
43
0.0000000001
44
0.0000000001
40
0
40
0
40
0
40
0
40
0.14529640189741672
40
0.29888497110922829
40
0.29888497110922829
40
0.29888497110922829
40
0.29888497110922829
10
135.13617614077876
20
34.75551089108292
30
0
10
135.58054689857724
20
34.497819656296798
30
0
10
136.49464896423035
20
33.967730567659018
30
0
10
136.60391061441914
20
32.912657963919386
30
0
10
136.66005709933589
20
32.370485866668858
30
0
0
SPLINE
5
122
100
AcDbEntity
8
0
100
AcDbSpline
70
0
71
3
72
9
73
5
74
0
42
0.000000001
43
0.0000000001
44
0.0000000001
40
0
40
0
40
0
40
0
40
0.12477261974906777
40
0.24374760024412262
40
0.24374760024412262
40
0.24374760024412262
40
0.24374760024412262
10
136.66005709933589
20
32.370485866668858
30
0
10
136.62437424254134
20
31.942923946029577
30
0
10
136.55466655562242
20
31.107667041740925
30
0
10
135.98701489944713
20
30.492904045771159
30
0
10
135.70993998812983
20
30.192833746078644
30
0
0
SPLINE
5
123
100
AcDbEntity
8
0
100
AcDbSpline
70
0
71
3
72
9
73
5
74
0
42
0.000000001
43
0.0000000001
44
0.0000000001
40
0
40
0
40
0
40
0
40
0.057887265786282463
40
0.11296353513898547
40
0.11296353513898547
40
0.11296353513898547
40
0.11296353513898547
10
135.70993998812983
20
30.192833746078644
30
0
10
135.556035217502
20
30.074212698183416
30
0
10
135.25569926746658
20
29.8427308216407
30
0
10
134.89880875958644
20
29.715064144018335
30
0
10
134.72480395602531
20
29.652819240692292
30
0
0
SPLINE
5
124
100
AcDbEntity
8
0
100
AcDbSpline
70
0
71
3
72
9
73
5
74
0
42
0.000000001
43
0.0000000001
44
0.0000000001
40
0
40
0
40
0
40
0
40
0.062215866825957714
40
0.14084762616708657
40
0.14084762616708657
40
0.14084762616708657
40
0.14084762616708657
10
134.72480395602531
20
29.652819240692292
30
0
10
134.52169704527827
20
29.608401643849721
30
0
10
134.06189269477591
20
29.507846698712918
30
0
10
133.59086685399114
20
29.502811250637532
30
0
10
133.32790473269768
20
29.500000084045567
30
0
0
LINE
5
125
100
AcDbEntity
8
0
100
AcDbLine
10
133.32790473269768
20
29.500000084045563
30
0
11
132.65155890750236
21
29.500000084045567
31
0
0
LINE
5
126
100
AcDbEntity
8
0
100
AcDbLine
10
132.65155890750236
20
29.500000084045567
30
0
11
132.65155890750236
21
32.219546640518345
31
0
0
LINE
5
127
100
AcDbEntity
8
0
100
AcDbLine
10
132.65155890750236
20
32.219546640518345
30
0
11
133.27235320376704
21
32.219546640518345
31
0
0
SPLINE
5
128
100
AcDbEntity
8
0
100
AcDbSpline
70
0
71
3
72
9
73
5
74
0
42
0.000000001
43
0.0000000001
44
0.0000000001
40
0
40
0
40
0
40
0
40
0.032110002515169996
40
0.051846699263704721
40
0.051846699263704721
40
0.051846699263704721
40
0.051846699263704721
10
133.27235320376704
20
32.219546640518345
30
0
10
133.38054865740841
20
32.218271993580075
30
0
10
133.55524740257334
20
32.216213873639283
30
0
10
133.71939541640526
20
32.273569344279622
30
0
10
133.78188231753657
20
32.295403087738194
30
0
0
SPLINE
5
129
100
AcDbEntity
8
0
100
AcDbSpline
70
0
71
3
72
9
73
5
74
0
42
0.000000001
43
0.0000000001
44
0.0000000001
40
0
40
0
40
0
40
0
40
0.013968785025093805
40
0.030512514983664148
40
0.030512514983664148
40
0.030512514983664148
40
0.030512514983664148
10
133.78188231753657
20
32.295403087738194
30
0
10
133.81775251117594
20
32.327841001531112
30
0
10
133.89610505357118
20
32.398696292729817
30
0
10
133.90193569511652
20
32.505039941376992
30
0
10
133.90509703921626
20
32.562698925140538
30
0
0
SPLINE
5
130
100
AcDbEntity
8
0
100
AcDbSpline
70
0
71
3
72
9
73
5
74
0
42
0.000000001
43
0.0000000001
44
0.0000000001
40
0
40
0
40
0
40
0
40
0.02762401610592374
40
0.071111810030173583
40
0.071111810030173583
40
0.071111810030173583
40
0.071111810030173583
10
133.90509703921626
20
32.562698925140538
30
0
10
133.86593720229695
20
32.653646085510324
30
0
10
133.76512901882572
20
32.887769073500209
30
0
10
133.49814673140844
20
32.881822738272341
30
0
10
133.33487609195063
20
32.87818630993668
30
0
0
LINE
5
131
100
AcDbEntity
8
0
100
AcDbLine
10
133.33487609195063
20
32.87818630993668
30
0
11
132.65155890750239
21
32.87818630993668
31
0
0
LINE
5
132
100
AcDbEntity
8
0
100
AcDbLine
10
132.65155890750239
20
32.87818630993668
30
0
11
132.65155890750239
21
35.693895424011387
31
0
0
SPLINE
5
133
100
AcDbEntity
8
0
100
AcDbSpline
70
0
71
3
72
9
73
5
74
0
42
0.000000001
43
0.0000000001
44
0.0000000001
40
0
40
0
40
0
40
0
40
0.059237850633494855
40
0.09441081057036553
40
0.09441081057036553
40
0.09441081057036553
40
0.09441081057036553
10
132.65155890750239
20
35.693895424011387
30
0
10
132.87311728727022
20
35.685063744990153
30
0
10
133.22622777319845
20
35.670988184074695
30
0
10
133.37512455278215
20
35.972195345609023
30
0
10
133.43059638308833
20
36.084410751465001
30
0
0
SPLINE
5
134
100
AcDbEntity
8
0
100
AcDbSpline
70
0
71
3
72
9
73
5
74
0
42
0.000000001
43
0.0000000001
44
0.0000000001
40
0
40
0
40
0
40
0
40
0.029697264110366568
40
0.072670422041053451
40
0.072670422041053451
40
0.072670422041053451
40
0.072670422041053451
10
133.43059638308833
20
36.084410751465001
30
0
10
133.39409467717724
20
36.185386397596901
30
0
10
133.30477350725661
20
36.432477940878549
30
0
10
133.03128192881724
20
36.433074292550472
30
0
10
132.86955455111811
20
36.433426941040196
30
0
0
LINE
5
135
100
AcDbEntity
8
0
100
AcDbLine
10
132.86955455111811
20
36.433426941040189
30
0
11
132.49574759768794
21
36.433426941040196
31
0
0
LINE
5
136
100
AcDbEntity
8
0
100
AcDbLine
10
132.49574759768794
20
36.433426941040196
30
0
11
132.49574759768794
21
29.500000084045563
31
0
0
LINE
5
137
100
AcDbEntity
8
0
100
AcDbLine
10
124.20962909030267
20
29.500000084045563
30
0
11
121.10056498812982
21
29.500000084045567
31
0
0
LINE
5
138
100
AcDbEntity
8
0
100
AcDbLine
10
121.10056498812982
20
29.500000084045567
30
0
11
121.10056498812983
21
39.259206855896153
31
0
0
LINE
5
139
100
AcDbEntity
8
0
100
AcDbLine
10
121.10056498812983
20
39.259206855896153
30
0
11
124.68767503070185
21
39.259206855896153
31
0
0
SPLINE
5
140
100
AcDbEntity
8
0
100
AcDbSpline
70
0
71
3
72
9
73
5
74
0
42
0.000000001
43
0.0000000001
44
0.0000000001
40
0
40
0
40
0
40
0
40
0.2491741291228193
40
0.45658929923788405
40
0.45658929923788405
40
0.45658929923788405
40
0.45658929923788405
10
124.68767503070185
20
39.259206855896153
30
0
10
125.62197273052078
20
39.197698368008965
30
0
10
127.33398967843439
20
39.084989566816567
30
0
10
127.72280550471996
20
37.451394408563019
30
0
10
127.89943316745112
20
36.709299886825718
30
0
0
SPLINE
5
141
100
AcDbEntity
8
0
100
AcDbSpline
70
0
71
3
72
9
73
5
74
0
42
0.000000001
43
0.0000000001
44
0.0000000001
40
0
40
0
40
0
40
0
40
0.11503989501497563
40
0.22969107242388967
40
0.22969107242388967
40
0.22969107242388967
40
0.22969107242388967
10
127.89943316745112
20
36.709299886825718
30
0
10
127.85600751738384
20
36.312267743539095
30
0
10
127.76930295169069
20
35.519545020988033
30
0
10
127.15612365598932
20
35.009901436003702
30
0
10
126.85005286502192
20
34.75551089108292
30
0
0
SPLINE
5
142
100
AcDbEntity
8
0
100
AcDbSpline
70
0
71
3
72
9
73
5
74
0
42
0.000000001
43
0.0000000001
44
0.0000000001
40
0
40
0
40
0
40
0
40
0.14529640189741672
40
0.29888508938708308
40
0.29888508938708308
40
0.29888508938708308
40
0.29888508938708308
10
126.85005286502192
20
34.75551089108292
30
0
10
127.29442325473671
20
34.497819552108218
30
0
10
128.20852492495328
20
33.967730039374722
30
0
10
128.31779021539199
20
32.912657918670966
30
0
10
128.37393859195063
20
32.370485866668858
30
0
0
SPLINE
5
143
100
AcDbEntity
8
0
100
AcDbSpline
70
0
71
3
72
9
73
5
74
0
42
0.000000001
43
0.0000000001
44
0.0000000001
40
0
40
0
40
0
40
0
40
0.12477271052438758
40
0.24374740542261875
40
0.24374740542261875
40
0.24374740542261875
40
0.24374740542261875
10
128.37393859195063
20
32.370485866668858
30
0
10
128.33825357807999
20
31.942924183271639
30
0
10
128.26854178367495
20
31.107669017713384
30
0
10
127.70089403912075
20
30.492904371024316
30
0
10
127.42382148074456
20
30.192833746078644
30
0
0
SPLINE
5
144
100
AcDbEntity
8
0
100
AcDbSpline
70
0
71
3
72
9
73
5
74
0
42
0.000000001
43
0.0000000001
44
0.0000000001
40
0
40
0
40
0
40
0
40
0.057887265786282463
40
0.11296353513898547
40
0.11296353513898547
40
0.11296353513898547
40
0.11296353513898547
10
127.42382148074456
20
30.192833746078644
30
0
10
127.26991671011675
20
30.074212698183416
30
0
10
126.96958076008133
20
29.8427308216407
30
0
10
126.61269025220119
20
29.715064144018335
30
0
10
126.43868544864006
20
29.652819240692292
30
0
0
SPLINE
5
145
100
AcDbEntity
8
0
100
AcDbSpline
70
0
71
3
72
9
73
5
74
0
42
0.000000001
43
0.0000000001
44
0.0000000001
40
0
40
0
40
0
40
0
40
0.062216335501998177
40
0.14084809484312705
40
0.14084809484312705
40
0.14084809484312705
40
0.14084809484312705
10
126.43868544864006
20
29.652819240692292
30
0
10
126.23557694508939
20
29.608401634486938
30
0
10
125.77577092243106
20
29.507847091037238
30
0
10
125.30474355532505
20
29.502811385190316
30
0
10
125.04178145694084
20
29.500000084045567
30
0
0
LINE
5
146
100
AcDbEntity
8
0
100
AcDbLine
10
125.04178145694084
20
29.500000084045567
30
0
11
124.36543801593132
21
29.500000084045567
31
0
0
LINE
5
147
100
AcDbEntity
8
0
100
AcDbLine
10
124.36543801593132
20
29.500000084045567
30
0
11
124.36543801593133
21
32.219546640518345
31
0
0
LINE
5
148
100
AcDbEntity
8
0
100
AcDbLine
10
124.36543801593133
20
32.219546640518345
30
0
11
124.98622992801019
21
32.219546640518345
31
0
0
SPLINE
5
149
100
AcDbEntity
8
0
100
AcDbSpline
70
0
71
3
72
9
73
5
74
0
42
0.000000001
43
0.0000000001
44
0.0000000001
40
0
40
0
40
0
40
0
40
0.032110002515169996
40
0.051846699263704721
40
0.051846699263704721
40
0.051846699263704721
40
0.051846699263704721
10
124.98622992801019
20
32.219546640518345
30
0
10
125.09442538165158
20
32.218271993580075
30
0
10
125.26912412681652
20
32.216213873639283
30
0
10
125.43327214064843
20
32.273569344279622
30
0
10
125.49575904177972
20
32.295403087738194
30
0
0
SPLINE
5
150
100
AcDbEntity
8
0
100
AcDbSpline
70
0
71
3
72
9
73
5
74
0
42
0.000000001
43
0.0000000001
44
0.0000000001
40
0
40
0
40
0
40
0
40
0.013969100483149186
40
0.03051283044171953
40
0.03051283044171953
40
0.03051283044171953
40
0.03051283044171953
10
125.49575904177972
20
32.295403087738194
30
0
10
125.5316312059302
20
32.3278407346831
30
0
10
125.60998709317008
20
32.398694575440601
30
0
10
125.61581740122817
20
32.505039724162259
30
0
10
125.61897853183099
20
32.562698925140538
30
0
0
SPLINE
5
151
100
AcDbEntity
8
0
100
AcDbSpline
70
0
71
3
72
9
73
5
74
0
42
0.000000001
43
0.0000000001
44
0.0000000001
40
0
40
0
40
0
40
0
40
0.027624262183350887
40
0.071112056107600727
40
0.071112056107600727
40
0.071112056107600727
40
0.071112056107600727
10
125.61897853183099
20
32.562698925140538
30
0
10
125.57981699894491
20
32.653646122398257
30
0
10
125.47900499877744
20
32.887767929934469
30
0
10
125.21202282262449
20
32.881822296509156
30
0
10
125.04875281619378
20
32.87818630993668
30
0
0
LINE
5
152
100
AcDbEntity
8
0
100
AcDbLine
10
125.04875281619378
20
32.87818630993668
30
0
11
124.36543801593133
21
32.87818630993668
31
0
0
LINE
5
153
100
AcDbEntity
8
0
100
AcDbLine
10
124.36543801593133
20
32.87818630993668
30
0
11
124.36543801593133
21
35.693895424011387
31
0
0
SPLINE
5
154
100
AcDbEntity
8
0
100
AcDbSpline
70
0
71
3
72
9
73
5
74
0
42
0.000000001
43
0.0000000001
44
0.0000000001
40
0
40
0
40
0
40
0
40
0.059237615475151349
40
0.094410575412022024
40
0.094410575412022024
40
0.094410575412022024
40
0.094410575412022024
10
124.36543801593135
20
35.693895424011387
30
0
10
124.58699544817972
20
35.685064010955358
30
0
10
124.94010494621736
20
35.670988853107879
30
0
10
125.08900129817081
20
35.972195323565238
30
0
10
125.14447310733149
20
36.084410751465001
30
0
0
SPLINE
5
155
100
AcDbEntity
8
0
100
AcDbSpline
70
0
71
3
72
9
73
5
74
0
42
0.000000001
43
0.0000000001
44
0.0000000001
40
0
40
0
40
0
40
0
40
0.029697038900787964
40
0.072670196831474854
40
0.072670196831474854
40
0.072670196831474854
40
0.072670196831474854
10
125.14447310733149
20
36.084410751465001
30
0
10
125.10797311947853
20
36.185386367207222
30
0
10
125.01865575317532
20
36.432478944203915
30
0
10
124.74516401631618
20
36.433074664700172
30
0
10
124.58343604373286
20
36.433426941040196
30
0
0
LINE
5
156
100
AcDbEntity
8
0
100
AcDbLine
10
124.58343604373289
20
36.433426941040196
30
0
11
124.20962909030268
21
36.433426941040196
31
0
0
LINE
5
157
100
AcDbEntity
8
0
100
AcDbLine
10
124.20962909030268
20
36.433426941040196
30
0
11
124.20962909030267
21
29.500000084045563
31
0
0
LINE
5
158
100
AcDbEntity
8
0
100
AcDbLine
10
115.42776206301997
20
35.581577623489537
30
0
11
115.42776206301997
21
34.542493427398838
31
0
0
LINE
5
159
100
AcDbEntity
8
0
100
AcDbLine
10
115.42776206301997
20
34.542493427398838
30
0
11
116.24220946597407
21
34.542493427398838
31
0
0
LINE
5
160
100
AcDbEntity
8
0
100
AcDbLine
10
116.24220946597407
20
34.542493427398838
30
0
11
116.24220946597407
21
31.759206855896149
31
0
0
LINE
5
161
100
AcDbEntity
8
0
100
AcDbLine
10
116.24220946597407
20
31.759206855896149
30
0
11
115.42776206301996
21
31.759206855896149
31
0
0
LINE
5
162
100
AcDbEntity
8
0
100
AcDbLine
10
115.42776206301996
20
31.759206855896149
30
0
11
115.42776206301996
21
29.500000084045563
31
0
0
LINE
5
163
100
AcDbEntity
8
0
100
AcDbLine
10
115.42776206301996
20
29.500000084045563
30
0
11
112.3186979608471
21
29.500000084045567
31
0
0
LINE
5
164
100
AcDbEntity
8
0
100
AcDbLine
10
112.3186979608471
20
29.500000084045567
30
0
11
112.31869796084712
21
35.671985948684849
31
0
0
SPLINE
5
165
100
AcDbEntity
8
0
100
AcDbSpline
70
0
71
3
72
9
73
5
74
0
42
0.000000001
43
0.0000000001
44
0.0000000001
40
0
40
0
40
0
40
0
40
0.16267315468895946
40
0.3048450883660111
40
0.3048450883660111
40
0.3048450883660111
40
0.3048450883660111
10
112.31869796084712
20
35.671985948684849
30
0
10
112.34782412820671
20
36.227712509161051
30
0
10
112.40240577740065
20
37.269129040116205
30
0
10
113.02449728685022
20
38.101191153796357
30
0
10
113.31462481784175
20
38.489243591430821
30
0
0
SPLINE
5
166
100
AcDbEntity
8
0
100
AcDbSpline
70
0
71
3
72
9
73
5
74
0
42
0.000000001
43
0.0000000001
44
0.0000000001
40
0
40
0
40
0
40
0
40
0.14138818269440098
40
0.30224410789213235
40
0.30224410789213235
40
0.30224410789213235
40
0.30224410789213235
10
113.31462481784175
20
38.489243591430821
30
0
10
113.69663653092745
20
38.783719267917618
30
0
10
114.51325915967637
20
39.41321698434318
30
0
10
115.54669369985817
20
39.469856325037355
30
0
10
116.09669307040522
20
39.500000084045567
30
0
0
SPLINE
5
167
100
AcDbEntity
8
0
100
AcDbSpline
70
0
71
3
72
9
73
5
74
0
42
0.000000001
43
0.0000000001
44
0.0000000001
40
0
40
0
40
0
40
0
40
0.15266381744358265
40
0.27946626101718353
40
0.27946626101718353
40
0.27946626101718353
40
0.27946626101718353
10
116.09669307040522
20
39.500000084045567
30
0
10
116.62067342714884
20
39.477952028565703
30
0
10
117.57987144536757
20
39.437590875996378
30
0
10
118.32846385948189
20
38.845524842248544
30
0
10
118.66812327670405
20
38.576886261108555
30
0
0
SPLINE
5
168
100
AcDbEntity
8
0
100
AcDbSpline
70
0
71
3
72
9
73
5
74
0
42
0.000000001
43
0.0000000001
44
0.0000000001
40
0
40
0
40
0
40
0
40
0.13227134604709029
40
0.29802027603274495
40
0.29802027603274495
40
0.29802027603274495
40
0.29802027603274495
10
118.66812327670405
20
38.576886261108555
30
0
10
118.91202686863672
20
38.200057637504692
30
0
10
119.46156550996324
20
37.351025902517414
30
0
10
119.49081493813549
20
36.334572322018929
30
0
10
119.50708249377558
20
35.769254768493809
30
0
0
LINE
5
169
100
AcDbEntity
8
0
100
AcDbLine
10
119.50708249377558
20
35.769254768493809
30
0
11
119.50708249377557
21
29.500000084045563
31
0
0
LINE
5
170
100
AcDbEntity
8
0
100
AcDbLine
10
119.50708249377557
20
29.500000084045563
30
0
11
116.39801600741693
21
29.500000084045567
31
0
0
LINE
5
171
100
AcDbEntity
8
0
100
AcDbLine
10
116.39801600741693
20
29.500000084045567
30
0
11
116.39801600741694
21
35.581577623489537
31
0
0
SPLINE
5
172
100
AcDbEntity
8
0
100
AcDbSpline
70
0
71
3
72
9
73
5
74
0
42
0.000000001
43
0.0000000001
44
0.0000000001
40
0
40
0
40
0
40
0
40
0.042698191522495418
40
0.069083214109681046
40
0.069083214109681046
40
0.069083214109681046
40
0.069083214109681046
10
116.39801600741694
20
35.581577623489537
30
0
10
116.3996309263281
20
35.725441637444
30
0
10
116.40224377209347
20
35.958205324249292
30
0
10
116.32583689092969
20
36.176930599168678
30
0
10
116.2966547326977
20
36.260468567016758
30
0
0
SPLINE
5
173
100
AcDbEntity
8
0
100
AcDbSpline
70
0
71
3
72
9
73
5
74
0
42
0.000000001
43
0.0000000001
44
0.0000000001
40
0
40
0
40
0
40
0
40
0.018773142511145875
40
0.041067404886943187
40
0.041067404886943187
40
0.041067404886943187
40
0.041067404886943187
10
116.2966547326977
20
36.260468567016758
30
0
10
116.25313313805731
20
36.308755864699435
30
0
10
116.15792697066355
20
36.414387300866991
30
0
10
116.01474268253911
20
36.422138186113401
30
0
10
115.93701222705195
20
36.426345909240879
30
0
0
SPLINE
5
174
100
AcDbEntity
8
0
100
AcDbSpline
70
0
71
3
72
9
73
5
74
0
42
0.000000001
43
0.0000000001
44
0.0000000001
40
0
40
0
40
0
40
0
40
0.043643797897870679
40
0.10826787054651418
40
0.10826787054651418
40
0.10826787054651418
40
0.10826787054651418
10
115.93701222705195
20
36.426345909240879
30
0
10
115.78981609383266
20
36.370506913428102
30
0
10
115.42466428157225
20
36.231986219508386
30
0
10
115.42660416491536
20
35.82468931269635
30
0
10
115.42776206301997
20
35.581577623489537
30
0
0
LINE
5
175
100
AcDbEntity
8
0
100
AcDbLine
10
99.76270297335931
20
32.658640945556797
30
0
11
98.947591574662411
21
32.658640945556797
31
0
0
LINE
5
176
100
AcDbEntity
8
0
100
AcDbLine
10
98.947591574662411
20
32.658640945556797
30
0
11
98.947591574662425
21
35.09490093052689
31
0
0
LINE
5
177
100
AcDbEntity
8
0
100
AcDbLine
10
98.947591574662425
20
35.09490093052689
30
0
11
101.84729078578303
21
35.09490093052689
31
0
0
SPLINE
5
178
100
AcDbEntity
8
0
100
AcDbSpline
70
0
71
3
72
9
73
5
74
0
42
0.000000001
43
0.0000000001
44
0.0000000001
40
0
40
0
40
0
40
0
40
0.13843722993265906
40
0.26294003371374752
40
0.26294003371374752
40
0.26294003371374752
40
0.26294003371374752
10
101.84729078578303
20
35.09490093052689
30
0
10
102.12294734488111
20
34.713593672371047
30
0
10
102.64651419881139
20
33.989359711870939
30
0
10
102.74606393627592
20
33.103307573821731
30
0
10
102.79320100116082
20
32.683759534958043
30
0
0
SPLINE
5
179
100
AcDbEntity
8
0
100
AcDbSpline
70
0
71
3
72
9
73
5
74
0
42
0.000000001
43
0.0000000001
44
0.0000000001
40
0
40
0
40
0
40
0
40
0.13576752397804051
40
0.27162538203393993
40
0.27162538203393993
40
0.27162538203393993
40
0.27162538203393993
10
102.79320100116082
20
32.683759534958043
30
0
10
102.74890003176084
20
32.220649887606015
30
0
10
102.66026861693373
20
31.294122458955684
30
0
10
102.04107501303326
20
30.599179989664798
30
0
10
101.73137524890252
20
30.25159319699112
30
0
0
SPLINE
5
180
100
AcDbEntity
8
0
100
AcDbSpline
70
0
71
3
72
9
73
5
74
0
42
0.000000001
43
0.0000000001
44
0.0000000001
40
0
40
0
40
0
40
0
40
0.1394589998405982
40
0.28401983888202254
40
0.28401983888202254
40
0.28401983888202254
40
0.28401983888202254
10
101.73137524890252
20
30.25159319699112
30
0
10
101.35281155407029
20
29.964237624608696
30
0
10
100.5818351399577
20
29.379014129078147
30
0
10
99.615864753884352
20
29.304310600514036
30
0
10
99.12420371341058
20
29.266287887695469
30
0
0
SPLINE
5
181
100
AcDbEntity
8
0
100
AcDbSpline
70
0
71
3
72
9
73
5
74
0
42
0.000000001
43
0.0000000001
44
0.0000000001
40
0
40
0
40
0
40
0
40
0.18811495768387348
40
0.37893502283786029
40
0.37893502283786029
40
0.37893502283786029
40
0.37893502283786029
10
99.12420371341058
20
29.266287887695469
30
0
10
98.482783285613039
20
29.330832688589478
30
0
10
97.190718755239089
20
29.460850449547863
30
0
10
96.228141000306465
20
30.333404036926002
30
0
10
95.743416340821469
20
30.772795284393464
30
0
0
SPLINE
5
182
100
AcDbEntity
8
0
100
AcDbSpline
70
0
71
3
72
9
73
5
74
0
42
0.000000001
43
0.0000000001
44
0.0000000001
40
0
40
0
40
0
40
0
40
0.19672191543264914
40
0.39957362790841999
40
0.39957362790841999
40
0.39957362790841999
40
0.39957362790841999
10
95.743416340821469
20
30.772795284393464
30
0
10
95.339467448203521
20
31.30768613021376
30
0
10
94.518982734245952
20
32.3941348633372
30
0
10
94.412443700433727
20
33.752516286980239
30
0
10
94.35835698413203
20
34.442126358154454
30
0
0
SPLINE
5
183
100
AcDbEntity
8
0
100
AcDbSpline
70
0
71
3
72
9
73
5
74
0
42
0.000000001
43
0.0000000001
44
0.0000000001
40
0
40
0
40
0
40
0
40
0.201811903463786
40
0.39586855343045541
40
0.39586855343045541
40
0.39586855343045541
40
0.39586855343045541
10
94.35835698413203
20
34.442126358154454
30
0
10
94.412471532731118
20
35.129621173725297
30
0
10
94.518621109172301
20
36.478191666643731
30
0
10
95.359119676748804
20
37.536208429611634
30
0
10
95.771136076920726
20
38.054853284958043
30
0
0
SPLINE
5
184
100
AcDbEntity
8
0
100
AcDbSpline
70
0
71
3
72
9
73
5
74
0
42
0.000000001
43
0.0000000001
44
0.0000000001
40
0
40
0
40
0
40
0
40
0.1922610048762029
40
0.38943719258718518
40
0.38943719258718518
40
0.38943719258718518
40
0.38943719258718518
10
95.771136076920726
20
38.054853284958043
30
0
10
96.275606522031708
20
38.476335637745507
30
0
10
97.297444278542585
20
39.330075605974017
30
0
10
98.625225130569902
20
39.44288399718117
30
0
10
99.297494681351878
20
39.500000084045567
30
0
0
SPLINE
5
185
100
AcDbEntity
8
0
100
AcDbSpline
70
0
71
3
72
9
73
5
74
0
42
0.000000001
43
0.0000000001
44
0.0000000001
40
0
40
0
40
0
40
0
40
0.07911680734077689
40
0.17416552966422125
40
0.17416552966422125
40
0.17416552966422125
40
0.17416552966422125
10
99.297494681351878
20
39.500000084045567
30
0
10
99.561525081249329
20
39.481700097846783
30
0
10
100.14275422826891
20
39.441415019412943
30
0
10
100.6982572248327
20
39.264045869240114
30
0
10
101.00141623782466
20
39.16724880993668
30
0
0
LINE
5
186
100
AcDbEntity
8
0
100
AcDbLine
10
101.00141623782466
20
39.16724880993668
30
0
11
101.00141623782464
21
36.113071048858799
31
0
0
SPLINE
5
187
100
AcDbEntity
8
0
100
AcDbSpline
70
0
71
3
72
9
73
5
74
0
42
0.000000001
43
0.0000000001
44
0.0000000001
40
0
40
0
40
0
40
0
40
0.080041150073353065
40
0.14036816325460805
40
0.14036816325460805
40
0.14036816325460805
40
0.14036816325460805
10
101.00141623782466
20
36.113071048858799
30
0
10
100.7490738120384
20
36.203844127309559
30
0
10
100.30654090507284
20
36.363032873141201
30
0
10
99.839028110767245
20
36.407314627915838
30
0
10
99.638101847642162
20
36.426345909240879
30
0
0
SPLINE
5
188
100
AcDbEntity
8
0
100
AcDbSpline
70
0
71
3
72
9
73
5
74
0
42
0.000000001
43
0.0000000001
44
0.0000000001
40
0
40
0
40
0
40
0
40
0.085630884663155188
40
0.16542800042759104
40
0.16542800042759104
40
0.16542800042759104
40
0.16542800042759104
10
99.638101847642162
20
36.426345909240879
30
0
10
99.346031131001098
20
36.405931591821883
30
0
10
98.781787577668126
20
36.366493721665535
30
0
10
98.337272518229
20
36.018577913949869
30
0
10
98.122852833741405
20
35.850754583480992
30
0
0
SPLINE
5
189
100
AcDbEntity
8
0
100
AcDbSpline
70
0
71
3
72
9
73
5
74
0
42
0.000000001
43
0.0000000001
44
0.0000000001
40
0
40
0
40
0
40
0
40
0.079599494380133543
40
0.16504645746436003
40
0.16504645746436003
40
0.16504645746436003
40
0.16504645746436003
10
98.122852833741405
20
35.850754583480992
30
0
10
97.952401077522623
20
35.63894251769981
30
0
10
97.598975986677942
20
35.199758432704968
30
0
10
97.558960122776583
20
34.63625757413579
30
0
10
97.538243325227
20
34.344524944427647
30
0
0
SPLINE
5
190
100
AcDbEntity
8
0
100
AcDbSpline
70
0
71
3
72
9
73
5
74
0
42
0.000000001
43
0.0000000001
44
0.0000000001
40
0
40
0
40
0
40
0
40
0.086326701257529795
40
0.16273220726950488
40
0.16273220726950488
40
0.16273220726950488
40
0.16273220726950488
10
97.538243325227
20
34.344524944427647
30
0
10
97.554695715279649
20
34.049670304657418
30
0
10
97.58570968557072
20
33.493847533087326
30
0
10
97.920283892807319
20
33.051323644985416
30
0
10
98.077372105591976
20
32.843551242950596
30
0
0
SPLINE
5
191
100
AcDbEntity
8
0
100
AcDbSpline
70
0
71
3
72
9
73
5
74
0
42
0.000000001
43
0.0000000001
44
0.0000000001
40
0
40
0
40
0
40
0
40
0.075754954605081942
40
0.1602248049667308
40
0.1602248049667308
40
0.1602248049667308
40
0.1602248049667308
10
98.077372105591976
20
32.843551242950596
30
0
10
98.281107694037004
20
32.684400012476296
30
0
10
98.71201673613939
20
32.347788697798677
30
0
10
99.259576576576279
20
32.314827899186284
30
0
10
99.548247845643246
20
32.297451103332676
30
0
0
SPLINE
5
192
100
AcDbEntity
8
0
100
AcDbSpline
70
0
71
3
72
9
73
5
74
0
42
0.000000001
43
0.0000000001
44
0.0000000001
40
0
40
0
40
0
40
0
40
0.037179983948576252
40
0.058070922527556301
40
0.058070922527556301
40
0.058070922527556301
40
0.058070922527556301
10
99.548247845643246
20
32.297451103332676
30
0
10
99.686697469248614
20
32.290135079510137
30
0
10
99.902940095320659
20
32.278708279186716
30
0
10
100.00244615142816
20
32.458428999496178
30
0
10
100.03824332522699
20
32.523083294037022
30
0
0
SPLINE
5
193
100
AcDbEntity
8
0
100
AcDbSpline
70
0
71
3
72
9
73
5
74
0
42
0.000000001
43
0.0000000001
44
0.0000000001
40
0
40
0
40
0
40
0
40
0.01228066158425766
40
0.033222230485111852
40
0.033222230485111852
40
0.033222230485111852
40
0.033222230485111852
10
100.03824332522699
20
32.523083294037022
30
0
10
100.01850393102076
20
32.562011707499053
30
0
10
99.965103981884766
20
32.667322705247997
30
0
10
99.840958094190739
20
32.661997609432206
30
0
10
99.76270297335931
20
32.658640945556797
30
0
0
LWPOLYLINE
5
194
100
AcDbEntity
8
0
100
AcDbPolyline
90
4
70
1
43
0.0
10
198.67409819219523
20
10
10
169.00000000000003
20
39.674098192195437
10
169.00000000000003
20
46.745166004060977
10
205.74516600406071
20
10
0
LWPOLYLINE
5
195
100
AcDbEntity
8
0
100
AcDbPolyline
90
4
70
1
43
0.0
10
209.00000000000003
20
52
10
209.00000000000003
20
44.928932188134503
10
194.92893218813452
20
59
10
202.00000000000003
20
59
0
LWPOLYLINE
5
196
100
AcDbEntity
8
0
100
AcDbPolyline
90
4
70
1
43
0.0
10
30
20
10.987806691180007
10
30
20
18.05887450304553
10
70
20
58.058874503045786
10
70
20
50.987806691180282
0
LWPOLYLINE
5
197
100
AcDbEntity
8
0
100
AcDbPolyline
90
4
70
1
43
0.0
10
30
20
29.372583002030368
10
59.62741699796959
20
59
10
66.698484809835008
20
59
10
30
20
22.301515190164842
0
LWPOLYLINE
5
198
100
AcDbEntity
8
0
100
AcDbPolyline
90
4
70
1
43
0.0
10
44.56854249492401
20
10
10
70
20
35.431457505076217
10
70
20
28.360389693210699
10
51.639610306789471
20
10
0
LWPOLYLINE
5
199
100
AcDbEntity
8
0
100
AcDbPolyline
90
4
70
1
43
0.0
10
209.00000000000003
20
40.686291501015219
10
209.00000000000003
20
33.615223689149673
10
183.61522368914984
20
59
10
190.68629150101515
20
59
0
LWPOLYLINE
5
200
100
AcDbEntity
8
0
100
AcDbPolyline
90
4
70
1
43
0.0
10
187.36038969321055
20
10
10
169.00000000000003
20
28.360389693210699
10
169.00000000000003
20
35.431457505076217
10
194.431457505076
20
10
0
LWPOLYLINE
5
201
100
AcDbEntity
8
0
100
AcDbPolyline
90
4
70
1
43
0.0
10
209.00000000000003
20
10.987806691180007
10
169.00000000000003
20
50.987806691180282
10
169.00000000000003
20
58.058874503045786
10
209.00000000000003
20
18.05887450304553
0
LWPOLYLINE
5
202
100
AcDbEntity
8
0
100
AcDbPolyline
90
4
70
1
43
0.0
10
33.254833995939293
20
10
10
70
20
46.745166004060977
10
70
20
39.674098192195437
10
40.325901807804769
20
10
0
LWPOLYLINE
5
203
100
AcDbEntity
8
0
100
AcDbPolyline
90
4
70
1
43
0.0
10
30
20
52
10
37
20
59
10
44.071067811865497
20
59
10
30
20
44.928932188134503
0
LWPOLYLINE
5
204
100
AcDbEntity
8
0
100
AcDbPolyline
90
4
70
1
43
0.0
10
30
20
40.686291501015219
10
48.313708498984852
20
59
10
55.384776310850171
20
59
10
30
20
33.615223689149673
0
LWPOLYLINE
5
205
100
AcDbEntity
8
0
100
AcDbPolyline
90
4
70
1
43
0.0
10
55.882250993908755
20
10
10
70
20
24.11774900609138
10
70
20
17.046681194225869
10
62.953318805774209
20
10
0
LWPOLYLINE
5
206
100
AcDbEntity
8
0
100
AcDbPolyline
90
4
70
1
43
0.0
10
209.00000000000003
20
29.372583002030368
10
209.00000000000003
20
22.301515190164842
10
172.30151519016502
20
59
10
179.37258300203041
20
59
0
LWPOLYLINE
5
207
100
AcDbEntity
8
0
100
AcDbPolyline
90
4
70
1
43
0.0
10
176.04668119422581
20
10
10
169.00000000000003
20
17.046681194225872
10
169.00000000000003
20
24.11774900609138
10
183.11774900609126
20
10
0
LWPOLYLINE
5
208
100
AcDbEntity
8
0
100
AcDbPolyline
90
4
70
1
43
0.0
10
239.00000000000003
20
69
10
0
20
69
10
0
20
0
10
239.00000000000003
20
4.9303806576313238e-31
0
ENDSEC
0
SECTION
2
OBJECTS
0
DICTIONARY
5
C
100
AcDbDictionary
3
ACAD_GROUP
350
D
3
ACAD_MLINESTYLE
350
17
0
DICTIONARY
5
D
100
AcDbDictionary
0
DICTIONARY
5
1A
330
C
100
AcDbDictionary
0
DICTIONARY
5
17
100
AcDbDictionary
0
ENDSEC
0
EOF
