0
SECTION
2
HEADER
9
$INSUNITS
70
4
9
$ACADVER
1
AC1014
9
$HANDSEED
5
FFFF
0
ENDSEC
0
SECTION
2
TABLES
0
TABLE
2
VPORT
5
8
100
AcDbSymbolTable
0
ENDTAB
0
TABLE
2
LTYPE
5
5
100
AcDbSymbolTable
0
LTYPE
5
14
100
AcDbSymbolTableRecord
100
AcDbLinetypeTableRecord
2
BYBLOCK
70
0
0
LTYPE
5
15
100
AcDbSymbolTableRecord
100
AcDbLinetypeTableRecord
2
BYLAYER
70
0
0
LTYPE
5
16
100
AcDbSymbolTableRecord
100
AcDbLinetypeTableRecord
2
DASHED
70
0
3
Dashed __ __ __ __ __ __ __ __ __ __ __ __ __ _
72
65
73
2
40
0.75
49
0.5
74
0
49
-0.25
74
0
0
ENDTAB
0
TABLE
2
LAYER
5
2
100
AcDbSymbolTable
70
2
0
LAYER
5
50
100
AcDbSymbolTableRecord
100
AcDbLayerTableRecord
2
0
70
0
62
7
6
CONTINUOUS
0
ENDTAB
0
TABLE
2
STYLE
5
3
100
AcDbSymbolTable
70
1
0
STYLE
5
11
100
AcDbSymbolTableRecord
100
AcDbTextStyleTableRecord
2
STANDARD
70
0
0
ENDTAB
0
TABLE
2
VIEW
5
6
100
AcDbSymbolTable
70
0
0
ENDTAB
0
TABLE
2
UCS
5
7
100
AcDbSymbolTable
70
0
0
ENDTAB
0
TABLE
2
APPID
5
9
100
AcDbSymbolTable
70
2
0
APPID
5
12
100
AcDbSymbolTableRecord
100
AcDbRegAppTableRecord
2
ACAD
70
0
0
ENDTAB
0
TABLE
2
DIMSTYLE
5
A
100
AcDbSymbolTable
70
1
0
ENDTAB
0
TABLE
2
BLOCK_RECORD
5
1
100
AcDbSymbolTable
70
1
0
BLOCK_RECORD
5
1F
100
AcDbSymbolTableRecord
100
AcDbBlockTableRecord
2
*MODEL_SPACE
0
BLOCK_RECORD
5
1B
100
AcDbSymbolTableRecord
100
AcDbBlockTableRecord
2
*PAPER_SPACE
0
ENDTAB
0
ENDSEC
0
SECTION
2
BLOCKS
0
BLOCK
5
20
100
AcDbEntity
100
AcDbBlockBegin
2
*MODEL_SPACE
0
ENDBLK
5
21
100
AcDbEntity
100
AcDbBlockEnd
0
BLOCK
5
1C
100
AcDbEntity
100
AcDbBlockBegin
2
*PAPER_SPACE
0
ENDBLK
5
1D
100
AcDbEntity
100
AcDbBlockEnd
0
ENDSEC
0
SECTION
2
ENTITIES
0
CIRCLE
5
100
100
AcDbEntity
8
0
100
AcDbCircle
10
-28.000000000000043
20
52.500000000000014
30
0
40
1.0500000000000043
210
0
220
0
230
1
0
CIRCLE
5
101
100
AcDbEntity
8
0
100
AcDbCircle
10
-23.000000000000043
20
66.500000000000043
30
0
40
1.0499999999999998
210
0
220
0
230
1
0
LWPOLYLINE
5
102
100
AcDbEntity
8
0
100
AcDbPolyline
90
4
70
1
43
0.0
10
0
20
79
10
-239.00000000000003
20
79
10
-239.00000000000003
20
0
10
0
20
0
0
LWPOLYLINE
5
103
100
AcDbEntity
8
0
100
AcDbPolyline
90
4
70
1
43
0.0
10
-127.00000000000003
20
41.5
10
-112.00000000000003
20
41.5
42
-0.99999999999999989
10
-112.00000000000003
20
37.500000000000007
10
-127.00000000000003
20
37.500000000000007
42
-0.99999999999999989
0
LWPOLYLINE
5
104
100
AcDbEntity
8
0
100
AcDbPolyline
90
4
70
1
43
0.0
10
-88.000000000000028
20
16.500000000000007
10
-73.000000000000028
20
16.500000000000004
42
-0.99999999999999989
10
-73.000000000000028
20
12.500000000000009
10
-88.000000000000028
20
12.500000000000004
42
-0.99999999999999989
0
LWPOLYLINE
5
105
100
AcDbEntity
8
0
100
AcDbPolyline
90
4
70
1
43
0.0
10
-166
20
66.5
10
-151.00000000000003
20
66.500000000000014
42
-0.99999999999999989
10
-151.00000000000003
20
62.500000000000007
10
-166
20
62.500000000000014
42
-0.99999999999999989
0
LWPOLYLINE
5
106
100
AcDbEntity
8
0
100
AcDbPolyline
90
4
70
1
43
0.0
10
-166
20
16.500000000000007
10
-151.00000000000003
20
16.500000000000004
42
-0.99999999999999989
10
-151.00000000000003
20
12.500000000000009
10
-166
20
12.500000000000004
42
-0.99999999999999989
0
LWPOLYLINE
5
107
100
AcDbEntity
8
0
100
AcDbPolyline
90
4
70
1
43
0.0
10
-190.00000000000003
20
12.500000000000009
10
-204.99999999999997
20
12.500000000000004
42
-0.99999999999999989
10
-205.00000000000003
20
16.500000000000007
10
-190.00000000000011
20
16.500000000000004
42
-0.99999999999999989
0
LWPOLYLINE
5
108
100
AcDbEntity
8
0
100
AcDbPolyline
90
4
70
1
43
0.0
10
-205.00000000000003
20
66.5
10
-190.00000000000011
20
66.500000000000014
42
-0.99999999999999989
10
-190.00000000000003
20
62.500000000000007
10
-204.99999999999997
20
62.500000000000014
42
-0.99999999999999989
0
LWPOLYLINE
5
109
100
AcDbEntity
8
0
100
AcDbPolyline
90
4
70
1
43
0.0
10
-88.000000000000028
20
41.5
10
-73.000000000000043
20
41.5
42
-0.99999999999999989
10
-73.000000000000028
20
37.500000000000007
10
-88.000000000000028
20
37.500000000000007
42
-0.99999999999999989
0
LWPOLYLINE
5
110
100
AcDbEntity
8
0
100
AcDbPolyline
90
4
70
1
43
0.0
10
-127.00000000000003
20
16.500000000000007
10
-112.00000000000003
20
16.500000000000004
42
-0.99999999999999989
10
-112.00000000000003
20
12.500000000000009
10
-127.00000000000003
20
12.500000000000004
42
-0.99999999999999989
0
LWPOLYLINE
5
111
100
AcDbEntity
8
0
100
AcDbPolyline
90
4
70
1
43
0.0
10
-49.000000000000021
20
41.5
10
-34.000000000000028
20
41.5
42
-0.99999999999999989
10
-34.000000000000021
20
37.500000000000007
10
-49
20
37.500000000000007
42
-0.99999999999999989
0
LWPOLYLINE
5
112
100
AcDbEntity
8
0
100
AcDbPolyline
90
4
70
1
43
0.0
10
-127.00000000000003
20
66.5
10
-112.00000000000003
20
66.500000000000014
42
-0.99999999999999989
10
-112.00000000000003
20
62.500000000000007
10
-127.00000000000003
20
62.500000000000014
42
-0.99999999999999989
0
LWPOLYLINE
5
113
100
AcDbEntity
8
0
100
AcDbPolyline
90
4
70
1
43
0.0
10
-166
20
41.5
10
-151.00000000000003
20
41.5
42
-0.99999999999999989
10
-151.00000000000003
20
37.500000000000007
10
-166
20
37.500000000000007
42
-0.99999999999999989
0
LWPOLYLINE
5
114
100
AcDbEntity
8
0
100
AcDbPolyline
90
4
70
1
43
0.0
10
-205.00000000000003
20
41.5
10
-190.00000000000011
20
41.5
42
-0.99999999999999989
10
-190.00000000000003
20
37.500000000000007
10
-204.99999999999997
20
37.500000000000007
42
-0.99999999999999989
0
LWPOLYLINE
5
115
100
AcDbEntity
8
0
100
AcDbPolyline
90
4
70
1
43
0.0
10
-88.000000000000028
20
66.5
10
-73.000000000000028
20
66.500000000000014
42
-0.99999999999999989
10
-73.000000000000028
20
62.500000000000007
10
-88.000000000000028
20
62.500000000000014
42
-0.99999999999999989
0
LWPOLYLINE
5
116
100
AcDbEntity
8
0
100
AcDbPolyline
90
4
70
1
43
0.0
10
-49.000000000000021
20
16.500000000000007
10
-34.000000000000021
20
16.500000000000004
42
-0.99999999999999989
10
-34.000000000000021
20
12.500000000000009
10
-49.000000000000021
20
12.500000000000004
42
-0.99999999999999989
0
CIRCLE
5
117
100
AcDbEntity
8
0
100
AcDbCircle
10
-5.0000000000000018
20
34.499999999999993
30
0
40
1.5000000000000002
210
0
220
0
230
1
0
CIRCLE
5
118
100
AcDbEntity
8
0
100
AcDbCircle
10
-114.5
20
73.999999999999986
30
0
40
1.5000000000000036
210
0
220
0
230
1
0
CIRCLE
5
119
100
AcDbEntity
8
0
100
AcDbCircle
10
-234
20
44.500000000000014
30
0
40
1.4999999999999858
210
0
220
0
230
1
0
ENDSEC
0
SECTION
2
OBJECTS
0
DICTIONARY
5
C
100
AcDbDictionary
3
ACAD_GROUP
350
D
3
ACAD_MLINESTYLE
350
17
0
DICTIONARY
5
D
100
AcDbDictionary
0
DICTIONARY
5
1A
330
C
100
AcDbDictionary
0
DICTIONARY
5
17
100
AcDbDictionary
0
ENDSEC
0
EOF
